%TF.GenerationSoftware,KiCad,Pcbnew,9.0.0*%
%TF.CreationDate,2025-06-13T20:30:42+03:00*%
%TF.ProjectId,BLE_sensors,424c455f-7365-46e7-936f-72732e6b6963,rev?*%
%TF.SameCoordinates,Original*%
%TF.FileFunction,Copper,L3,Inr*%
%TF.FilePolarity,Positive*%
%FSLAX46Y46*%
G04 Gerber Fmt 4.6, Leading zero omitted, Abs format (unit mm)*
G04 Created by KiCad (PCBNEW 9.0.0) date 2025-06-13 20:30:42*
%MOMM*%
%LPD*%
G01*
G04 APERTURE LIST*
%TA.AperFunction,ComponentPad*%
%ADD10R,1.000000X1.000000*%
%TD*%
%TA.AperFunction,ComponentPad*%
%ADD11O,1.000000X1.000000*%
%TD*%
%TA.AperFunction,HeatsinkPad*%
%ADD12O,1.000000X1.800000*%
%TD*%
%TA.AperFunction,HeatsinkPad*%
%ADD13O,1.000000X2.100000*%
%TD*%
%TA.AperFunction,ViaPad*%
%ADD14C,0.600000*%
%TD*%
G04 APERTURE END LIST*
D10*
%TO.N,+V_bat*%
%TO.C,J2*%
X147580000Y-89050000D03*
D11*
%TO.N,GND*%
X148850000Y-89050000D03*
%TD*%
D12*
%TO.N,Net-(J3-SHIELD)*%
%TO.C,J3*%
X144782000Y-90945000D03*
D13*
X144782000Y-86745000D03*
D12*
X136142000Y-90945000D03*
D13*
X136142000Y-86745000D03*
%TD*%
D14*
%TO.N,GND*%
X155070000Y-86720000D03*
X155930000Y-78770000D03*
X125390000Y-75240000D03*
X153070000Y-78430000D03*
X131680000Y-87270000D03*
X123860000Y-78010000D03*
X138260000Y-76320000D03*
X153800000Y-82157500D03*
X143460000Y-85110000D03*
X124660000Y-85340000D03*
X138260000Y-75360000D03*
X131450000Y-69350000D03*
X141920000Y-83200000D03*
X127860000Y-82650000D03*
X152247282Y-85706641D03*
X123240000Y-75140000D03*
X151310000Y-78530000D03*
X143720170Y-80107527D03*
X146420000Y-85060000D03*
X154000000Y-74600000D03*
X139060000Y-80060000D03*
X126100000Y-77100000D03*
X127890000Y-73910000D03*
X153460000Y-84930000D03*
X137130000Y-82880000D03*
X146840000Y-79580000D03*
X138230000Y-78270000D03*
X134190000Y-82430000D03*
X151480000Y-82440000D03*
X141610000Y-81940000D03*
X146960000Y-86700000D03*
X122350000Y-75470000D03*
X141600000Y-79140000D03*
X131920000Y-90900000D03*
X132745000Y-88655000D03*
X136210000Y-81180000D03*
X140900000Y-79160000D03*
X151470000Y-83990000D03*
X158200000Y-79780000D03*
X138220000Y-77560000D03*
X153550000Y-69330000D03*
X154560000Y-78660000D03*
X151470000Y-83210000D03*
X136530000Y-85260000D03*
X150990000Y-89120000D03*
X156450000Y-76230000D03*
X140970000Y-81920000D03*
X154400000Y-80320000D03*
X122220000Y-76580000D03*
X129700000Y-88900000D03*
%TO.N,/nRESET*%
X156900000Y-74800000D03*
X148310000Y-78000000D03*
%TO.N,+5V*%
X155470000Y-90500000D03*
X142250000Y-88650000D03*
X148160000Y-81080000D03*
X157260000Y-90460000D03*
X153600000Y-91200000D03*
X138750000Y-88650000D03*
X146250000Y-84000000D03*
X153840000Y-84140000D03*
X148250000Y-79680000D03*
%TO.N,+3V3*%
X151600000Y-73900000D03*
X130740000Y-84580000D03*
X157700000Y-76600000D03*
X125500000Y-73500000D03*
X153320000Y-75550000D03*
X157120000Y-69360000D03*
X123830000Y-75750000D03*
X129000000Y-86600000D03*
X158250000Y-77780000D03*
X141180000Y-74550000D03*
X130989758Y-73045000D03*
X129487588Y-73036296D03*
X124290000Y-73150000D03*
%TO.N,Net-(U7-URx)*%
X127330000Y-70550000D03*
%TO.N,Net-(U7-UTx)*%
X128490000Y-72820000D03*
%TD*%
%TA.AperFunction,Conductor*%
%TO.N,+5V*%
G36*
X148981991Y-79387999D02*
G01*
X149048686Y-79408817D01*
X149093539Y-79462388D01*
X149103823Y-79507963D01*
X149145696Y-80799687D01*
X149145696Y-80799686D01*
X149145697Y-80799688D01*
X154026060Y-80702662D01*
X154090522Y-80719251D01*
X154206810Y-80786390D01*
X154206811Y-80786390D01*
X154206814Y-80786392D01*
X154334108Y-80820500D01*
X154334110Y-80820500D01*
X154465890Y-80820500D01*
X154465892Y-80820500D01*
X154593186Y-80786392D01*
X154707314Y-80720500D01*
X154707318Y-80720495D01*
X154713760Y-80715553D01*
X154715340Y-80717612D01*
X154765327Y-80690304D01*
X154789232Y-80687490D01*
X158631037Y-80611112D01*
X158698453Y-80629461D01*
X158745248Y-80681345D01*
X158757500Y-80735088D01*
X158757500Y-92354500D01*
X158737815Y-92421539D01*
X158685011Y-92467294D01*
X158633500Y-92478500D01*
X137804000Y-92478500D01*
X137736961Y-92458815D01*
X137691206Y-92406011D01*
X137680000Y-92354500D01*
X137680000Y-91413995D01*
X144081499Y-91413995D01*
X144108418Y-91549322D01*
X144108421Y-91549332D01*
X144161221Y-91676804D01*
X144161228Y-91676817D01*
X144237885Y-91791541D01*
X144237888Y-91791545D01*
X144335454Y-91889111D01*
X144335458Y-91889114D01*
X144450182Y-91965771D01*
X144450195Y-91965778D01*
X144577667Y-92018578D01*
X144577672Y-92018580D01*
X144577676Y-92018580D01*
X144577677Y-92018581D01*
X144713004Y-92045500D01*
X144713007Y-92045500D01*
X144850995Y-92045500D01*
X144942041Y-92027389D01*
X144986328Y-92018580D01*
X145113811Y-91965775D01*
X145228542Y-91889114D01*
X145326114Y-91791542D01*
X145402775Y-91676811D01*
X145455580Y-91549328D01*
X145482500Y-91413993D01*
X145482500Y-90476007D01*
X145482500Y-90476004D01*
X145455581Y-90340677D01*
X145455580Y-90340676D01*
X145455580Y-90340672D01*
X145455578Y-90340667D01*
X145402778Y-90213195D01*
X145402771Y-90213182D01*
X145326114Y-90098458D01*
X145326111Y-90098454D01*
X145228545Y-90000888D01*
X145228541Y-90000885D01*
X145113817Y-89924228D01*
X145113804Y-89924221D01*
X144986332Y-89871421D01*
X144986322Y-89871418D01*
X144850995Y-89844500D01*
X144850993Y-89844500D01*
X144713007Y-89844500D01*
X144713005Y-89844500D01*
X144577677Y-89871418D01*
X144577667Y-89871421D01*
X144450195Y-89924221D01*
X144450182Y-89924228D01*
X144335458Y-90000885D01*
X144335454Y-90000888D01*
X144237888Y-90098454D01*
X144237885Y-90098458D01*
X144161228Y-90213182D01*
X144161221Y-90213195D01*
X144108421Y-90340667D01*
X144108418Y-90340677D01*
X144081500Y-90476004D01*
X144081500Y-90476007D01*
X144081500Y-91413993D01*
X144081500Y-91413995D01*
X144081499Y-91413995D01*
X137680000Y-91413995D01*
X137680000Y-88530247D01*
X146879500Y-88530247D01*
X146879500Y-89569752D01*
X146891131Y-89628229D01*
X146891132Y-89628230D01*
X146935447Y-89694552D01*
X147001769Y-89738867D01*
X147001770Y-89738868D01*
X147060247Y-89750499D01*
X147060250Y-89750500D01*
X147060252Y-89750500D01*
X148099750Y-89750500D01*
X148099751Y-89750499D01*
X148114568Y-89747552D01*
X148158229Y-89738868D01*
X148158229Y-89738867D01*
X148158231Y-89738867D01*
X148224552Y-89694552D01*
X148257279Y-89645573D01*
X148310889Y-89600769D01*
X148380213Y-89592060D01*
X148429271Y-89611362D01*
X148518182Y-89670771D01*
X148518195Y-89670778D01*
X148645667Y-89723578D01*
X148645672Y-89723580D01*
X148645676Y-89723580D01*
X148645677Y-89723581D01*
X148781004Y-89750500D01*
X148781007Y-89750500D01*
X148918995Y-89750500D01*
X149010041Y-89732389D01*
X149054328Y-89723580D01*
X149181811Y-89670775D01*
X149296542Y-89594114D01*
X149394114Y-89496542D01*
X149470775Y-89381811D01*
X149523580Y-89254328D01*
X149550500Y-89118993D01*
X149550500Y-89054108D01*
X150489500Y-89054108D01*
X150489500Y-89185891D01*
X150523608Y-89313187D01*
X150556554Y-89370250D01*
X150589500Y-89427314D01*
X150682686Y-89520500D01*
X150796814Y-89586392D01*
X150924108Y-89620500D01*
X150924110Y-89620500D01*
X151055890Y-89620500D01*
X151055892Y-89620500D01*
X151183186Y-89586392D01*
X151297314Y-89520500D01*
X151390500Y-89427314D01*
X151456392Y-89313186D01*
X151490500Y-89185892D01*
X151490500Y-89054108D01*
X151456392Y-88926814D01*
X151390500Y-88812686D01*
X151297314Y-88719500D01*
X151240250Y-88686554D01*
X151183187Y-88653608D01*
X151119539Y-88636554D01*
X151055892Y-88619500D01*
X150924108Y-88619500D01*
X150796812Y-88653608D01*
X150682686Y-88719500D01*
X150682683Y-88719502D01*
X150589502Y-88812683D01*
X150589500Y-88812686D01*
X150523608Y-88926812D01*
X150489500Y-89054108D01*
X149550500Y-89054108D01*
X149550500Y-88981007D01*
X149550500Y-88981004D01*
X149523581Y-88845677D01*
X149523580Y-88845676D01*
X149523580Y-88845672D01*
X149471319Y-88719502D01*
X149470778Y-88718195D01*
X149470771Y-88718182D01*
X149394114Y-88603458D01*
X149394111Y-88603454D01*
X149296545Y-88505888D01*
X149296541Y-88505885D01*
X149181817Y-88429228D01*
X149181804Y-88429221D01*
X149054332Y-88376421D01*
X149054322Y-88376418D01*
X148918995Y-88349500D01*
X148918993Y-88349500D01*
X148781007Y-88349500D01*
X148781005Y-88349500D01*
X148645677Y-88376418D01*
X148645667Y-88376421D01*
X148518195Y-88429221D01*
X148518177Y-88429231D01*
X148429270Y-88488637D01*
X148362593Y-88509515D01*
X148295213Y-88491030D01*
X148257279Y-88454427D01*
X148224552Y-88405448D01*
X148181110Y-88376420D01*
X148158230Y-88361132D01*
X148158229Y-88361131D01*
X148099752Y-88349500D01*
X148099748Y-88349500D01*
X147060252Y-88349500D01*
X147060247Y-88349500D01*
X147001770Y-88361131D01*
X147001769Y-88361132D01*
X146935447Y-88405447D01*
X146891132Y-88471769D01*
X146891131Y-88471770D01*
X146879500Y-88530247D01*
X137680000Y-88530247D01*
X137680000Y-87765562D01*
X137699685Y-87698523D01*
X137742001Y-87658175D01*
X137833263Y-87605485D01*
X137912485Y-87526263D01*
X137968503Y-87429237D01*
X137997500Y-87321018D01*
X137997500Y-87208982D01*
X137968503Y-87100763D01*
X137912485Y-87003737D01*
X137833263Y-86924515D01*
X137791785Y-86900567D01*
X137741999Y-86871823D01*
X137693784Y-86821255D01*
X137680000Y-86764436D01*
X137680000Y-85584000D01*
X137699685Y-85516961D01*
X137752489Y-85471206D01*
X137804000Y-85460000D01*
X138276000Y-85460000D01*
X138343039Y-85479685D01*
X138388794Y-85532489D01*
X138400000Y-85584000D01*
X138400000Y-87960000D01*
X138450000Y-88010000D01*
X142490000Y-88010000D01*
X142500000Y-88000000D01*
X142500000Y-87208982D01*
X142926500Y-87208982D01*
X142926500Y-87321018D01*
X142955497Y-87429237D01*
X143011515Y-87526263D01*
X143090737Y-87605485D01*
X143187763Y-87661503D01*
X143295982Y-87690500D01*
X143295984Y-87690500D01*
X143408016Y-87690500D01*
X143408018Y-87690500D01*
X143516237Y-87661503D01*
X143613263Y-87605485D01*
X143692485Y-87526263D01*
X143748503Y-87429237D01*
X143765984Y-87363995D01*
X144081499Y-87363995D01*
X144108418Y-87499322D01*
X144108421Y-87499332D01*
X144161221Y-87626804D01*
X144161228Y-87626817D01*
X144237885Y-87741541D01*
X144237888Y-87741545D01*
X144335454Y-87839111D01*
X144335458Y-87839114D01*
X144450182Y-87915771D01*
X144450195Y-87915778D01*
X144556958Y-87960000D01*
X144577672Y-87968580D01*
X144577676Y-87968580D01*
X144577677Y-87968581D01*
X144713004Y-87995500D01*
X144713007Y-87995500D01*
X144850995Y-87995500D01*
X144942041Y-87977389D01*
X144986328Y-87968580D01*
X145113811Y-87915775D01*
X145228542Y-87839114D01*
X145326114Y-87741542D01*
X145402775Y-87626811D01*
X145411609Y-87605485D01*
X145455578Y-87499332D01*
X145455580Y-87499328D01*
X145482500Y-87363993D01*
X145482500Y-86634108D01*
X146459500Y-86634108D01*
X146459500Y-86765892D01*
X146464859Y-86785891D01*
X146493608Y-86893187D01*
X146511696Y-86924515D01*
X146559500Y-87007314D01*
X146652686Y-87100500D01*
X146766814Y-87166392D01*
X146894108Y-87200500D01*
X146894110Y-87200500D01*
X147025890Y-87200500D01*
X147025892Y-87200500D01*
X147153186Y-87166392D01*
X147267314Y-87100500D01*
X147360500Y-87007314D01*
X147426392Y-86893186D01*
X147460500Y-86765892D01*
X147460500Y-86654108D01*
X154569500Y-86654108D01*
X154569500Y-86785892D01*
X154583864Y-86839500D01*
X154603608Y-86913187D01*
X154610150Y-86924517D01*
X154669500Y-87027314D01*
X154762686Y-87120500D01*
X154876814Y-87186392D01*
X155004108Y-87220500D01*
X155004110Y-87220500D01*
X155135890Y-87220500D01*
X155135892Y-87220500D01*
X155263186Y-87186392D01*
X155377314Y-87120500D01*
X155470500Y-87027314D01*
X155536392Y-86913186D01*
X155570500Y-86785892D01*
X155570500Y-86654108D01*
X155536392Y-86526814D01*
X155470500Y-86412686D01*
X155377314Y-86319500D01*
X155320250Y-86286554D01*
X155263187Y-86253608D01*
X155188544Y-86233608D01*
X155135892Y-86219500D01*
X155004108Y-86219500D01*
X154876812Y-86253608D01*
X154762686Y-86319500D01*
X154762683Y-86319502D01*
X154669502Y-86412683D01*
X154669500Y-86412686D01*
X154603608Y-86526812D01*
X154574859Y-86634108D01*
X154569500Y-86654108D01*
X147460500Y-86654108D01*
X147460500Y-86634108D01*
X147426392Y-86506814D01*
X147360500Y-86392686D01*
X147267314Y-86299500D01*
X147187827Y-86253608D01*
X147153187Y-86233608D01*
X147089539Y-86216554D01*
X147025892Y-86199500D01*
X146894108Y-86199500D01*
X146766812Y-86233608D01*
X146652686Y-86299500D01*
X146652683Y-86299502D01*
X146559502Y-86392683D01*
X146559500Y-86392686D01*
X146493608Y-86506812D01*
X146488249Y-86526814D01*
X146459500Y-86634108D01*
X145482500Y-86634108D01*
X145482500Y-86126007D01*
X145482500Y-86126004D01*
X145455581Y-85990677D01*
X145455580Y-85990676D01*
X145455580Y-85990672D01*
X145455578Y-85990667D01*
X145402778Y-85863195D01*
X145402771Y-85863182D01*
X145326114Y-85748458D01*
X145326111Y-85748454D01*
X145228545Y-85650888D01*
X145228541Y-85650885D01*
X145213372Y-85640749D01*
X151746782Y-85640749D01*
X151746782Y-85772532D01*
X151780890Y-85899828D01*
X151813836Y-85956891D01*
X151846782Y-86013955D01*
X151939968Y-86107141D01*
X152054096Y-86173033D01*
X152181390Y-86207141D01*
X152181392Y-86207141D01*
X152313172Y-86207141D01*
X152313174Y-86207141D01*
X152440468Y-86173033D01*
X152554596Y-86107141D01*
X152647782Y-86013955D01*
X152713674Y-85899827D01*
X152747782Y-85772533D01*
X152747782Y-85640749D01*
X152713674Y-85513455D01*
X152647782Y-85399327D01*
X152554596Y-85306141D01*
X152497532Y-85273195D01*
X152440469Y-85240249D01*
X152376821Y-85223195D01*
X152313174Y-85206141D01*
X152181390Y-85206141D01*
X152054094Y-85240249D01*
X151939968Y-85306141D01*
X151939965Y-85306143D01*
X151846784Y-85399324D01*
X151846782Y-85399327D01*
X151780890Y-85513453D01*
X151746782Y-85640749D01*
X145213372Y-85640749D01*
X145113817Y-85574228D01*
X145113804Y-85574221D01*
X144986332Y-85521421D01*
X144986322Y-85521418D01*
X144850995Y-85494500D01*
X144850993Y-85494500D01*
X144713007Y-85494500D01*
X144713005Y-85494500D01*
X144577677Y-85521418D01*
X144577667Y-85521421D01*
X144450195Y-85574221D01*
X144450182Y-85574228D01*
X144335458Y-85650885D01*
X144335454Y-85650888D01*
X144237888Y-85748454D01*
X144237885Y-85748458D01*
X144161228Y-85863182D01*
X144161221Y-85863195D01*
X144108421Y-85990667D01*
X144108418Y-85990677D01*
X144081500Y-86126004D01*
X144081500Y-86126007D01*
X144081500Y-87363993D01*
X144081500Y-87363995D01*
X144081499Y-87363995D01*
X143765984Y-87363995D01*
X143777500Y-87321018D01*
X143777500Y-87208982D01*
X143748503Y-87100763D01*
X143692485Y-87003737D01*
X143613263Y-86924515D01*
X143516237Y-86868497D01*
X143408018Y-86839500D01*
X143295982Y-86839500D01*
X143187763Y-86868497D01*
X143187760Y-86868498D01*
X143090740Y-86924513D01*
X143090734Y-86924517D01*
X143011517Y-87003734D01*
X143011513Y-87003740D01*
X142955498Y-87100760D01*
X142955497Y-87100763D01*
X142926500Y-87208982D01*
X142500000Y-87208982D01*
X142500000Y-84704000D01*
X142519685Y-84636961D01*
X142572489Y-84591206D01*
X142624000Y-84580000D01*
X142982824Y-84580000D01*
X143049863Y-84599685D01*
X143095618Y-84652489D01*
X143105562Y-84721647D01*
X143076537Y-84785203D01*
X143070505Y-84791681D01*
X143059502Y-84802683D01*
X143059500Y-84802686D01*
X142993608Y-84916812D01*
X142959500Y-85044108D01*
X142959500Y-85175891D01*
X142993608Y-85303187D01*
X143026554Y-85360250D01*
X143059500Y-85417314D01*
X143152686Y-85510500D01*
X143251521Y-85567563D01*
X143263060Y-85574225D01*
X143266814Y-85576392D01*
X143394108Y-85610500D01*
X143394110Y-85610500D01*
X143525890Y-85610500D01*
X143525892Y-85610500D01*
X143653186Y-85576392D01*
X143767314Y-85510500D01*
X143860500Y-85417314D01*
X143926392Y-85303186D01*
X143960500Y-85175892D01*
X143960500Y-85044108D01*
X143947103Y-84994108D01*
X145919500Y-84994108D01*
X145919500Y-85125891D01*
X145953608Y-85253187D01*
X145982476Y-85303186D01*
X146019500Y-85367314D01*
X146112686Y-85460500D01*
X146204403Y-85513453D01*
X146226810Y-85526390D01*
X146226814Y-85526392D01*
X146354108Y-85560500D01*
X146354110Y-85560500D01*
X146485890Y-85560500D01*
X146485892Y-85560500D01*
X146613186Y-85526392D01*
X146727314Y-85460500D01*
X146820500Y-85367314D01*
X146886392Y-85253186D01*
X146920500Y-85125892D01*
X146920500Y-84994108D01*
X146886392Y-84866814D01*
X146884830Y-84864108D01*
X152959500Y-84864108D01*
X152959500Y-84995891D01*
X152993608Y-85123187D01*
X152995170Y-85125892D01*
X153059500Y-85237314D01*
X153152686Y-85330500D01*
X153266814Y-85396392D01*
X153394108Y-85430500D01*
X153394110Y-85430500D01*
X153525890Y-85430500D01*
X153525892Y-85430500D01*
X153653186Y-85396392D01*
X153767314Y-85330500D01*
X153860500Y-85237314D01*
X153926392Y-85123186D01*
X153960500Y-84995892D01*
X153960500Y-84864108D01*
X153926392Y-84736814D01*
X153860500Y-84622686D01*
X153767314Y-84529500D01*
X153699764Y-84490500D01*
X153653187Y-84463608D01*
X153589539Y-84446554D01*
X153525892Y-84429500D01*
X153394108Y-84429500D01*
X153266812Y-84463608D01*
X153152686Y-84529500D01*
X153152683Y-84529502D01*
X153059502Y-84622683D01*
X153059500Y-84622686D01*
X152993608Y-84736812D01*
X152959500Y-84864108D01*
X146884830Y-84864108D01*
X146820500Y-84752686D01*
X146727314Y-84659500D01*
X146670250Y-84626554D01*
X146613187Y-84593608D01*
X146549539Y-84576554D01*
X146485892Y-84559500D01*
X146354108Y-84559500D01*
X146226812Y-84593608D01*
X146112686Y-84659500D01*
X146112683Y-84659502D01*
X146019502Y-84752683D01*
X146019500Y-84752686D01*
X145953608Y-84866812D01*
X145919500Y-84994108D01*
X143947103Y-84994108D01*
X143926392Y-84916814D01*
X143860500Y-84802686D01*
X143849495Y-84791681D01*
X143816010Y-84730358D01*
X143820994Y-84660666D01*
X143862866Y-84604733D01*
X143928330Y-84580316D01*
X143937176Y-84580000D01*
X145180000Y-84580000D01*
X146719069Y-83144108D01*
X150969500Y-83144108D01*
X150969500Y-83275891D01*
X151003608Y-83403187D01*
X151036554Y-83460250D01*
X151069500Y-83517314D01*
X151069503Y-83517317D01*
X151074447Y-83523760D01*
X151071843Y-83525757D01*
X151097990Y-83573642D01*
X151093006Y-83643334D01*
X151072713Y-83674909D01*
X151074447Y-83676240D01*
X151069500Y-83682686D01*
X151003608Y-83796812D01*
X150969500Y-83924108D01*
X150969500Y-84055891D01*
X151003608Y-84183187D01*
X151036554Y-84240250D01*
X151069500Y-84297314D01*
X151162686Y-84390500D01*
X151276814Y-84456392D01*
X151404108Y-84490500D01*
X151404110Y-84490500D01*
X151535890Y-84490500D01*
X151535892Y-84490500D01*
X151663186Y-84456392D01*
X151777314Y-84390500D01*
X151870500Y-84297314D01*
X151936392Y-84183186D01*
X151970500Y-84055892D01*
X151970500Y-83924108D01*
X151936392Y-83796814D01*
X151870500Y-83682686D01*
X151870495Y-83682681D01*
X151865553Y-83676240D01*
X151868156Y-83674242D01*
X151842010Y-83626358D01*
X151846994Y-83556666D01*
X151867286Y-83525090D01*
X151865553Y-83523760D01*
X151870492Y-83517321D01*
X151870500Y-83517314D01*
X151936392Y-83403186D01*
X151970500Y-83275892D01*
X151970500Y-83144108D01*
X151936392Y-83016814D01*
X151930618Y-83006814D01*
X151892846Y-82941390D01*
X151870500Y-82902686D01*
X151870498Y-82902684D01*
X151866436Y-82895648D01*
X151868786Y-82894291D01*
X151848389Y-82841547D01*
X151862420Y-82773101D01*
X151876298Y-82754332D01*
X151875553Y-82753760D01*
X151880492Y-82747321D01*
X151880500Y-82747314D01*
X151946392Y-82633186D01*
X151980500Y-82505892D01*
X151980500Y-82374108D01*
X151946392Y-82246814D01*
X151880500Y-82132686D01*
X151839422Y-82091608D01*
X153299500Y-82091608D01*
X153299500Y-82223391D01*
X153333608Y-82350687D01*
X153347132Y-82374110D01*
X153399500Y-82464814D01*
X153492686Y-82558000D01*
X153606814Y-82623892D01*
X153734108Y-82658000D01*
X153734110Y-82658000D01*
X153865890Y-82658000D01*
X153865892Y-82658000D01*
X153993186Y-82623892D01*
X154107314Y-82558000D01*
X154200500Y-82464814D01*
X154266392Y-82350686D01*
X154300500Y-82223392D01*
X154300500Y-82091608D01*
X154266392Y-81964314D01*
X154200500Y-81850186D01*
X154107314Y-81757000D01*
X154050250Y-81724054D01*
X153993187Y-81691108D01*
X153929539Y-81674054D01*
X153865892Y-81657000D01*
X153734108Y-81657000D01*
X153606812Y-81691108D01*
X153492686Y-81757000D01*
X153492683Y-81757002D01*
X153399502Y-81850183D01*
X153399500Y-81850186D01*
X153333608Y-81964312D01*
X153299500Y-82091608D01*
X151839422Y-82091608D01*
X151787314Y-82039500D01*
X151729103Y-82005892D01*
X151673187Y-81973608D01*
X151609539Y-81956554D01*
X151545892Y-81939500D01*
X151414108Y-81939500D01*
X151286812Y-81973608D01*
X151172686Y-82039500D01*
X151172683Y-82039502D01*
X151079502Y-82132683D01*
X151079500Y-82132686D01*
X151013608Y-82246812D01*
X150979500Y-82374108D01*
X150979500Y-82505891D01*
X151013608Y-82633187D01*
X151027934Y-82658000D01*
X151079500Y-82747314D01*
X151079501Y-82747315D01*
X151083564Y-82754352D01*
X151081215Y-82755708D01*
X151101611Y-82808460D01*
X151087575Y-82876905D01*
X151073704Y-82895670D01*
X151074447Y-82896240D01*
X151069500Y-82902686D01*
X151003608Y-83016812D01*
X150969500Y-83144108D01*
X146719069Y-83144108D01*
X146936353Y-82941390D01*
X146998796Y-82910054D01*
X147015973Y-82908161D01*
X147970000Y-82870000D01*
X147921827Y-79497919D01*
X147940552Y-79430607D01*
X147992697Y-79384103D01*
X148047914Y-79372168D01*
X148981991Y-79387999D01*
G37*
%TD.AperFunction*%
%TD*%
%TA.AperFunction,Conductor*%
%TO.N,+3V3*%
G36*
X158700539Y-68357185D02*
G01*
X158746294Y-68409989D01*
X158757500Y-68461500D01*
X158757500Y-79330324D01*
X158737815Y-79397363D01*
X158685011Y-79443118D01*
X158615853Y-79453062D01*
X158552297Y-79424037D01*
X158545819Y-79418005D01*
X158507316Y-79379502D01*
X158507314Y-79379500D01*
X158427096Y-79333186D01*
X158393187Y-79313608D01*
X158329539Y-79296554D01*
X158265892Y-79279500D01*
X158134108Y-79279500D01*
X158006812Y-79313608D01*
X157892686Y-79379500D01*
X157892683Y-79379502D01*
X157799502Y-79472683D01*
X157799500Y-79472686D01*
X157733608Y-79586812D01*
X157717778Y-79645892D01*
X157699500Y-79714108D01*
X157699500Y-79845892D01*
X157716554Y-79909539D01*
X157733608Y-79973187D01*
X157756413Y-80012686D01*
X157799500Y-80087314D01*
X157892686Y-80180500D01*
X157908711Y-80189752D01*
X157956927Y-80240319D01*
X157970150Y-80308926D01*
X157944182Y-80373791D01*
X157887267Y-80414319D01*
X157849176Y-80421115D01*
X155026965Y-80477223D01*
X154959547Y-80458874D01*
X154912752Y-80406990D01*
X154900500Y-80353247D01*
X154900500Y-80254110D01*
X154900500Y-80254108D01*
X154866392Y-80126814D01*
X154800500Y-80012686D01*
X154707314Y-79919500D01*
X154650250Y-79886554D01*
X154593187Y-79853608D01*
X154529539Y-79836554D01*
X154465892Y-79819500D01*
X154334108Y-79819500D01*
X154206812Y-79853608D01*
X154092686Y-79919500D01*
X154092683Y-79919502D01*
X153999502Y-80012683D01*
X153999500Y-80012686D01*
X153933608Y-80126812D01*
X153899500Y-80254108D01*
X153899500Y-80378077D01*
X153879815Y-80445116D01*
X153827011Y-80490871D01*
X153777965Y-80502053D01*
X149466944Y-80587760D01*
X149399526Y-80569411D01*
X149352731Y-80517527D01*
X149340544Y-80467803D01*
X149309215Y-79501305D01*
X149304283Y-79462729D01*
X149293999Y-79417154D01*
X149292739Y-79411894D01*
X149285309Y-79397363D01*
X149251108Y-79330472D01*
X149251106Y-79330469D01*
X149251104Y-79330465D01*
X149206251Y-79276894D01*
X149188966Y-79258645D01*
X149188964Y-79258644D01*
X149188959Y-79258640D01*
X149109920Y-79212652D01*
X149109914Y-79212649D01*
X149043217Y-79191831D01*
X148985480Y-79182529D01*
X148985471Y-79182528D01*
X148051402Y-79166697D01*
X148051391Y-79166697D01*
X148004505Y-79171305D01*
X148004492Y-79171307D01*
X147949272Y-79183243D01*
X147936012Y-79186575D01*
X147936010Y-79186576D01*
X147855919Y-79230733D01*
X147855917Y-79230735D01*
X147803782Y-79277229D01*
X147803776Y-79277235D01*
X147786074Y-79295082D01*
X147786072Y-79295084D01*
X147786072Y-79295085D01*
X147765469Y-79333186D01*
X147742571Y-79375530D01*
X147742568Y-79375537D01*
X147723844Y-79442843D01*
X147716348Y-79500845D01*
X147716347Y-79500867D01*
X147734631Y-80780738D01*
X147718033Y-80844506D01*
X147693609Y-80886811D01*
X147693608Y-80886814D01*
X147659500Y-81014108D01*
X147659500Y-81145892D01*
X147693608Y-81273186D01*
X147726747Y-81330586D01*
X147743347Y-81390813D01*
X147753746Y-82118661D01*
X147759933Y-82551827D01*
X147741208Y-82619141D01*
X147689063Y-82665645D01*
X147640902Y-82677499D01*
X147180437Y-82695917D01*
X147007760Y-82702825D01*
X147004620Y-82703060D01*
X146993438Y-82703899D01*
X146976293Y-82705789D01*
X146976288Y-82705790D01*
X146906623Y-82726384D01*
X146906614Y-82726388D01*
X146844178Y-82757721D01*
X146796167Y-82791129D01*
X146796161Y-82791133D01*
X146578881Y-82993848D01*
X146388829Y-83171160D01*
X146388828Y-83171161D01*
X145134749Y-84341168D01*
X145072303Y-84372507D01*
X145050160Y-84374500D01*
X143937172Y-84374500D01*
X143933508Y-84374565D01*
X143929840Y-84374631D01*
X143920994Y-84374947D01*
X143920989Y-84374947D01*
X143856517Y-84387772D01*
X143791055Y-84412188D01*
X143768083Y-84422395D01*
X143768080Y-84422397D01*
X143698360Y-84481575D01*
X143698354Y-84481581D01*
X143656493Y-84537499D01*
X143656476Y-84537523D01*
X143645251Y-84554604D01*
X143638964Y-84559939D01*
X143635560Y-84567449D01*
X143612716Y-84582217D01*
X143591982Y-84599816D01*
X143582295Y-84601885D01*
X143576885Y-84605383D01*
X143559502Y-84606754D01*
X143541964Y-84610501D01*
X143529751Y-84610534D01*
X143525892Y-84609500D01*
X143394108Y-84609500D01*
X143388818Y-84610917D01*
X143375269Y-84610954D01*
X143349047Y-84603331D01*
X143322076Y-84599124D01*
X143315991Y-84593722D01*
X143308176Y-84591451D01*
X143290239Y-84570864D01*
X143269823Y-84552742D01*
X143265500Y-84545268D01*
X143250926Y-84517919D01*
X143250924Y-84517915D01*
X143205169Y-84465111D01*
X143205163Y-84465104D01*
X143187581Y-84447160D01*
X143187580Y-84447159D01*
X143187578Y-84447157D01*
X143187576Y-84447156D01*
X143187574Y-84447154D01*
X143107764Y-84402511D01*
X143107759Y-84402509D01*
X143040727Y-84382826D01*
X143040723Y-84382825D01*
X143040722Y-84382825D01*
X142982824Y-84374500D01*
X142624000Y-84374500D01*
X142623992Y-84374500D01*
X142580313Y-84379197D01*
X142528825Y-84390397D01*
X142518627Y-84392890D01*
X142518624Y-84392891D01*
X142437916Y-84435899D01*
X142437913Y-84435901D01*
X142385104Y-84481660D01*
X142367160Y-84499242D01*
X142367154Y-84499249D01*
X142322511Y-84579059D01*
X142322509Y-84579064D01*
X142302826Y-84646096D01*
X142294500Y-84704003D01*
X142294500Y-87680500D01*
X142274815Y-87747539D01*
X142222011Y-87793294D01*
X142170500Y-87804500D01*
X138729500Y-87804500D01*
X138662461Y-87784815D01*
X138616706Y-87732011D01*
X138605500Y-87680500D01*
X138605500Y-85584008D01*
X138605499Y-85583992D01*
X138604449Y-85574225D01*
X138600803Y-85540316D01*
X138590836Y-85494500D01*
X138589602Y-85488825D01*
X138589348Y-85487789D01*
X138587110Y-85478627D01*
X138544100Y-85397915D01*
X138498345Y-85345111D01*
X138498339Y-85345104D01*
X138480757Y-85327160D01*
X138480756Y-85327159D01*
X138480754Y-85327157D01*
X138480752Y-85327156D01*
X138480750Y-85327154D01*
X138400940Y-85282511D01*
X138400935Y-85282509D01*
X138333903Y-85262826D01*
X138333899Y-85262825D01*
X138333898Y-85262825D01*
X138276000Y-85254500D01*
X137804000Y-85254500D01*
X137803992Y-85254500D01*
X137760313Y-85259197D01*
X137708825Y-85270397D01*
X137698627Y-85272890D01*
X137698624Y-85272891D01*
X137617916Y-85315899D01*
X137617913Y-85315901D01*
X137565104Y-85361660D01*
X137547160Y-85379242D01*
X137547154Y-85379249D01*
X137502511Y-85459059D01*
X137502509Y-85459064D01*
X137482826Y-85526096D01*
X137482825Y-85526101D01*
X137482825Y-85526102D01*
X137474502Y-85583992D01*
X137474500Y-85584003D01*
X137474500Y-86758374D01*
X137454815Y-86825413D01*
X137412501Y-86865761D01*
X137310737Y-86924515D01*
X137310734Y-86924517D01*
X137231517Y-87003734D01*
X137231513Y-87003740D01*
X137175498Y-87100760D01*
X137175497Y-87100763D01*
X137146500Y-87208982D01*
X137146500Y-87321018D01*
X137175497Y-87429237D01*
X137231515Y-87526263D01*
X137310737Y-87605485D01*
X137407763Y-87661503D01*
X137407767Y-87661504D01*
X137412499Y-87664236D01*
X137460715Y-87714803D01*
X137474500Y-87771624D01*
X137474500Y-92354500D01*
X137454815Y-92421539D01*
X137402011Y-92467294D01*
X137350500Y-92478500D01*
X121726500Y-92478500D01*
X121659461Y-92458815D01*
X121613706Y-92406011D01*
X121602500Y-92354500D01*
X121602500Y-91413995D01*
X135441499Y-91413995D01*
X135468418Y-91549322D01*
X135468421Y-91549332D01*
X135521221Y-91676804D01*
X135521228Y-91676817D01*
X135597885Y-91791541D01*
X135597888Y-91791545D01*
X135695454Y-91889111D01*
X135695458Y-91889114D01*
X135810182Y-91965771D01*
X135810195Y-91965778D01*
X135937667Y-92018578D01*
X135937672Y-92018580D01*
X135937676Y-92018580D01*
X135937677Y-92018581D01*
X136073004Y-92045500D01*
X136073007Y-92045500D01*
X136210995Y-92045500D01*
X136302041Y-92027389D01*
X136346328Y-92018580D01*
X136473811Y-91965775D01*
X136588542Y-91889114D01*
X136686114Y-91791542D01*
X136762775Y-91676811D01*
X136815580Y-91549328D01*
X136842500Y-91413993D01*
X136842500Y-90476007D01*
X136842500Y-90476004D01*
X136815581Y-90340677D01*
X136815580Y-90340676D01*
X136815580Y-90340672D01*
X136815578Y-90340667D01*
X136762778Y-90213195D01*
X136762771Y-90213182D01*
X136686114Y-90098458D01*
X136686111Y-90098454D01*
X136588545Y-90000888D01*
X136588541Y-90000885D01*
X136473817Y-89924228D01*
X136473804Y-89924221D01*
X136346332Y-89871421D01*
X136346322Y-89871418D01*
X136210995Y-89844500D01*
X136210993Y-89844500D01*
X136073007Y-89844500D01*
X136073005Y-89844500D01*
X135937677Y-89871418D01*
X135937667Y-89871421D01*
X135810195Y-89924221D01*
X135810182Y-89924228D01*
X135695458Y-90000885D01*
X135695454Y-90000888D01*
X135597888Y-90098454D01*
X135597885Y-90098458D01*
X135521228Y-90213182D01*
X135521221Y-90213195D01*
X135468421Y-90340667D01*
X135468418Y-90340677D01*
X135441500Y-90476004D01*
X135441500Y-90476007D01*
X135441500Y-91413993D01*
X135441500Y-91413995D01*
X135441499Y-91413995D01*
X121602500Y-91413995D01*
X121602500Y-90834108D01*
X131419500Y-90834108D01*
X131419500Y-90965891D01*
X131453608Y-91093187D01*
X131486554Y-91150250D01*
X131519500Y-91207314D01*
X131612686Y-91300500D01*
X131726814Y-91366392D01*
X131854108Y-91400500D01*
X131854110Y-91400500D01*
X131985890Y-91400500D01*
X131985892Y-91400500D01*
X132113186Y-91366392D01*
X132227314Y-91300500D01*
X132320500Y-91207314D01*
X132386392Y-91093186D01*
X132420500Y-90965892D01*
X132420500Y-90834108D01*
X132386392Y-90706814D01*
X132320500Y-90592686D01*
X132227314Y-90499500D01*
X132170250Y-90466554D01*
X132113187Y-90433608D01*
X132049539Y-90416554D01*
X131985892Y-90399500D01*
X131854108Y-90399500D01*
X131726812Y-90433608D01*
X131612686Y-90499500D01*
X131612683Y-90499502D01*
X131519502Y-90592683D01*
X131519500Y-90592686D01*
X131453608Y-90706812D01*
X131419500Y-90834108D01*
X121602500Y-90834108D01*
X121602500Y-88834108D01*
X129199500Y-88834108D01*
X129199500Y-88965891D01*
X129233608Y-89093187D01*
X129266554Y-89150250D01*
X129299500Y-89207314D01*
X129392686Y-89300500D01*
X129506814Y-89366392D01*
X129634108Y-89400500D01*
X129634110Y-89400500D01*
X129765890Y-89400500D01*
X129765892Y-89400500D01*
X129893186Y-89366392D01*
X130007314Y-89300500D01*
X130100500Y-89207314D01*
X130166392Y-89093186D01*
X130200500Y-88965892D01*
X130200500Y-88834108D01*
X130166392Y-88706814D01*
X130100500Y-88592686D01*
X130096922Y-88589108D01*
X132244500Y-88589108D01*
X132244500Y-88720891D01*
X132278608Y-88848187D01*
X132311554Y-88905250D01*
X132344500Y-88962314D01*
X132437686Y-89055500D01*
X132551814Y-89121392D01*
X132679108Y-89155500D01*
X132679110Y-89155500D01*
X132810890Y-89155500D01*
X132810892Y-89155500D01*
X132938186Y-89121392D01*
X133052314Y-89055500D01*
X133145500Y-88962314D01*
X133211392Y-88848186D01*
X133245500Y-88720892D01*
X133245500Y-88589108D01*
X133211392Y-88461814D01*
X133145500Y-88347686D01*
X133052314Y-88254500D01*
X132995250Y-88221554D01*
X132938187Y-88188608D01*
X132874539Y-88171554D01*
X132810892Y-88154500D01*
X132679108Y-88154500D01*
X132551812Y-88188608D01*
X132437686Y-88254500D01*
X132437683Y-88254502D01*
X132344502Y-88347683D01*
X132344500Y-88347686D01*
X132278608Y-88461812D01*
X132244500Y-88589108D01*
X130096922Y-88589108D01*
X130007314Y-88499500D01*
X129942037Y-88461812D01*
X129893187Y-88433608D01*
X129829539Y-88416554D01*
X129765892Y-88399500D01*
X129634108Y-88399500D01*
X129506812Y-88433608D01*
X129392686Y-88499500D01*
X129392683Y-88499502D01*
X129299502Y-88592683D01*
X129299500Y-88592686D01*
X129233608Y-88706812D01*
X129199500Y-88834108D01*
X121602500Y-88834108D01*
X121602500Y-87204108D01*
X131179500Y-87204108D01*
X131179500Y-87335891D01*
X131213608Y-87463187D01*
X131234477Y-87499332D01*
X131279500Y-87577314D01*
X131372686Y-87670500D01*
X131486814Y-87736392D01*
X131614108Y-87770500D01*
X131614110Y-87770500D01*
X131745890Y-87770500D01*
X131745892Y-87770500D01*
X131873186Y-87736392D01*
X131987314Y-87670500D01*
X132080500Y-87577314D01*
X132146392Y-87463186D01*
X132172970Y-87363995D01*
X135441499Y-87363995D01*
X135468418Y-87499322D01*
X135468421Y-87499332D01*
X135521221Y-87626804D01*
X135521228Y-87626817D01*
X135597885Y-87741541D01*
X135597888Y-87741545D01*
X135695454Y-87839111D01*
X135695458Y-87839114D01*
X135810182Y-87915771D01*
X135810195Y-87915778D01*
X135937667Y-87968578D01*
X135937672Y-87968580D01*
X135937676Y-87968580D01*
X135937677Y-87968581D01*
X136073004Y-87995500D01*
X136073007Y-87995500D01*
X136210995Y-87995500D01*
X136302041Y-87977389D01*
X136346328Y-87968580D01*
X136473811Y-87915775D01*
X136588542Y-87839114D01*
X136686114Y-87741542D01*
X136762775Y-87626811D01*
X136771609Y-87605485D01*
X136815578Y-87499332D01*
X136815580Y-87499328D01*
X136842500Y-87363993D01*
X136842500Y-86126007D01*
X136842500Y-86126004D01*
X136815581Y-85990677D01*
X136815580Y-85990676D01*
X136815580Y-85990672D01*
X136815578Y-85990667D01*
X136762778Y-85863195D01*
X136762770Y-85863181D01*
X136759347Y-85858057D01*
X136738471Y-85791379D01*
X136756957Y-85723999D01*
X136800451Y-85681782D01*
X136837314Y-85660500D01*
X136930500Y-85567314D01*
X136996392Y-85453186D01*
X137030500Y-85325892D01*
X137030500Y-85194108D01*
X136996392Y-85066814D01*
X136930500Y-84952686D01*
X136837314Y-84859500D01*
X136780250Y-84826554D01*
X136723187Y-84793608D01*
X136659539Y-84776554D01*
X136595892Y-84759500D01*
X136464108Y-84759500D01*
X136336812Y-84793608D01*
X136222686Y-84859500D01*
X136222683Y-84859502D01*
X136129502Y-84952683D01*
X136129500Y-84952686D01*
X136063608Y-85066812D01*
X136029500Y-85194108D01*
X136029500Y-85325891D01*
X136040328Y-85366302D01*
X136038665Y-85436152D01*
X135999502Y-85494014D01*
X135944751Y-85520011D01*
X135937678Y-85521418D01*
X135937667Y-85521421D01*
X135810195Y-85574221D01*
X135810182Y-85574228D01*
X135695458Y-85650885D01*
X135695454Y-85650888D01*
X135597888Y-85748454D01*
X135597885Y-85748458D01*
X135521228Y-85863182D01*
X135521221Y-85863195D01*
X135468421Y-85990667D01*
X135468418Y-85990677D01*
X135441500Y-86126004D01*
X135441500Y-86126007D01*
X135441500Y-87363993D01*
X135441500Y-87363995D01*
X135441499Y-87363995D01*
X132172970Y-87363995D01*
X132180500Y-87335892D01*
X132180500Y-87204108D01*
X132146392Y-87076814D01*
X132080500Y-86962686D01*
X131987314Y-86869500D01*
X131930250Y-86836554D01*
X131873187Y-86803608D01*
X131809539Y-86786554D01*
X131745892Y-86769500D01*
X131614108Y-86769500D01*
X131486812Y-86803608D01*
X131372686Y-86869500D01*
X131372683Y-86869502D01*
X131279502Y-86962683D01*
X131279500Y-86962686D01*
X131213608Y-87076812D01*
X131179500Y-87204108D01*
X121602500Y-87204108D01*
X121602500Y-85274108D01*
X124159500Y-85274108D01*
X124159500Y-85405891D01*
X124193608Y-85533187D01*
X124222947Y-85584003D01*
X124259500Y-85647314D01*
X124352686Y-85740500D01*
X124466814Y-85806392D01*
X124594108Y-85840500D01*
X124594110Y-85840500D01*
X124725890Y-85840500D01*
X124725892Y-85840500D01*
X124853186Y-85806392D01*
X124967314Y-85740500D01*
X125060500Y-85647314D01*
X125126392Y-85533186D01*
X125160500Y-85405892D01*
X125160500Y-85274108D01*
X125126392Y-85146814D01*
X125060500Y-85032686D01*
X124967314Y-84939500D01*
X124910250Y-84906554D01*
X124853187Y-84873608D01*
X124789539Y-84856554D01*
X124725892Y-84839500D01*
X124594108Y-84839500D01*
X124466812Y-84873608D01*
X124352686Y-84939500D01*
X124352683Y-84939502D01*
X124259502Y-85032683D01*
X124259500Y-85032686D01*
X124193608Y-85146812D01*
X124159500Y-85274108D01*
X121602500Y-85274108D01*
X121602500Y-82584108D01*
X127359500Y-82584108D01*
X127359500Y-82715892D01*
X127370708Y-82757720D01*
X127393608Y-82843187D01*
X127422185Y-82892683D01*
X127459500Y-82957314D01*
X127552686Y-83050500D01*
X127666814Y-83116392D01*
X127794108Y-83150500D01*
X127794110Y-83150500D01*
X127925890Y-83150500D01*
X127925892Y-83150500D01*
X128053186Y-83116392D01*
X128167314Y-83050500D01*
X128260500Y-82957314D01*
X128326392Y-82843186D01*
X128360500Y-82715892D01*
X128360500Y-82584108D01*
X128326392Y-82456814D01*
X128272868Y-82364108D01*
X133689500Y-82364108D01*
X133689500Y-82495891D01*
X133723608Y-82623187D01*
X133748122Y-82665645D01*
X133789500Y-82737314D01*
X133882686Y-82830500D01*
X133996814Y-82896392D01*
X134124108Y-82930500D01*
X134124110Y-82930500D01*
X134255890Y-82930500D01*
X134255892Y-82930500D01*
X134383186Y-82896392D01*
X134497314Y-82830500D01*
X134513706Y-82814108D01*
X136629500Y-82814108D01*
X136629500Y-82945892D01*
X136632561Y-82957316D01*
X136663608Y-83073187D01*
X136688552Y-83116391D01*
X136729500Y-83187314D01*
X136822686Y-83280500D01*
X136936814Y-83346392D01*
X137064108Y-83380500D01*
X137064110Y-83380500D01*
X137195890Y-83380500D01*
X137195892Y-83380500D01*
X137323186Y-83346392D01*
X137437314Y-83280500D01*
X137530500Y-83187314D01*
X137561219Y-83134108D01*
X141419500Y-83134108D01*
X141419500Y-83265892D01*
X141423414Y-83280499D01*
X141453608Y-83393187D01*
X141486554Y-83450250D01*
X141519500Y-83507314D01*
X141612686Y-83600500D01*
X141726814Y-83666392D01*
X141854108Y-83700500D01*
X141854110Y-83700500D01*
X141985890Y-83700500D01*
X141985892Y-83700500D01*
X142113186Y-83666392D01*
X142227314Y-83600500D01*
X142320500Y-83507314D01*
X142386392Y-83393186D01*
X142420500Y-83265892D01*
X142420500Y-83134108D01*
X142386392Y-83006814D01*
X142320500Y-82892686D01*
X142227314Y-82799500D01*
X142154949Y-82757720D01*
X142113187Y-82733608D01*
X142047061Y-82715890D01*
X141985892Y-82699500D01*
X141854108Y-82699500D01*
X141726812Y-82733608D01*
X141612686Y-82799500D01*
X141612683Y-82799502D01*
X141519502Y-82892683D01*
X141519500Y-82892686D01*
X141453608Y-83006812D01*
X141424247Y-83116391D01*
X141419500Y-83134108D01*
X137561219Y-83134108D01*
X137596392Y-83073186D01*
X137630500Y-82945892D01*
X137630500Y-82814108D01*
X137596392Y-82686814D01*
X137530500Y-82572686D01*
X137437314Y-82479500D01*
X137369764Y-82440500D01*
X137323187Y-82413608D01*
X137259539Y-82396554D01*
X137195892Y-82379500D01*
X137064108Y-82379500D01*
X136936812Y-82413608D01*
X136822686Y-82479500D01*
X136822683Y-82479502D01*
X136729502Y-82572683D01*
X136729500Y-82572686D01*
X136663608Y-82686812D01*
X136635657Y-82791129D01*
X136629500Y-82814108D01*
X134513706Y-82814108D01*
X134590500Y-82737314D01*
X134656392Y-82623186D01*
X134690500Y-82495892D01*
X134690500Y-82364108D01*
X134656392Y-82236814D01*
X134590500Y-82122686D01*
X134497314Y-82029500D01*
X134421783Y-81985892D01*
X134383187Y-81963608D01*
X134319539Y-81946554D01*
X134255892Y-81929500D01*
X134124108Y-81929500D01*
X133996812Y-81963608D01*
X133882686Y-82029500D01*
X133882683Y-82029502D01*
X133789502Y-82122683D01*
X133789500Y-82122686D01*
X133723608Y-82236812D01*
X133689500Y-82364108D01*
X128272868Y-82364108D01*
X128260500Y-82342686D01*
X128167314Y-82249500D01*
X128110250Y-82216554D01*
X128053187Y-82183608D01*
X127989539Y-82166554D01*
X127925892Y-82149500D01*
X127794108Y-82149500D01*
X127666812Y-82183608D01*
X127552686Y-82249500D01*
X127552683Y-82249502D01*
X127459502Y-82342683D01*
X127459500Y-82342686D01*
X127393608Y-82456812D01*
X127362561Y-82572683D01*
X127359500Y-82584108D01*
X121602500Y-82584108D01*
X121602500Y-81854108D01*
X140469500Y-81854108D01*
X140469500Y-81985892D01*
X140474859Y-82005891D01*
X140503608Y-82113187D01*
X140524574Y-82149500D01*
X140569500Y-82227314D01*
X140662686Y-82320500D01*
X140776814Y-82386392D01*
X140904108Y-82420500D01*
X140904110Y-82420500D01*
X141035890Y-82420500D01*
X141035892Y-82420500D01*
X141163186Y-82386392D01*
X141210679Y-82358971D01*
X141278577Y-82342498D01*
X141334677Y-82358970D01*
X141416814Y-82406392D01*
X141544108Y-82440500D01*
X141544110Y-82440500D01*
X141675890Y-82440500D01*
X141675892Y-82440500D01*
X141803186Y-82406392D01*
X141917314Y-82340500D01*
X142010500Y-82247314D01*
X142076392Y-82133186D01*
X142110500Y-82005892D01*
X142110500Y-81874108D01*
X142076392Y-81746814D01*
X142010500Y-81632686D01*
X141917314Y-81539500D01*
X141826929Y-81487316D01*
X141803187Y-81473608D01*
X141728544Y-81453608D01*
X141675892Y-81439500D01*
X141544108Y-81439500D01*
X141416814Y-81473608D01*
X141416813Y-81473608D01*
X141416811Y-81473609D01*
X141416810Y-81473609D01*
X141369320Y-81501028D01*
X141301420Y-81517501D01*
X141245320Y-81501028D01*
X141163188Y-81453609D01*
X141163187Y-81453608D01*
X141163186Y-81453608D01*
X141035892Y-81419500D01*
X140904108Y-81419500D01*
X140776812Y-81453608D01*
X140662686Y-81519500D01*
X140662683Y-81519502D01*
X140569502Y-81612683D01*
X140569500Y-81612686D01*
X140503608Y-81726812D01*
X140498249Y-81746814D01*
X140469500Y-81854108D01*
X121602500Y-81854108D01*
X121602500Y-81114108D01*
X135709500Y-81114108D01*
X135709500Y-81245891D01*
X135743608Y-81373187D01*
X135753785Y-81390813D01*
X135809500Y-81487314D01*
X135902686Y-81580500D01*
X136016814Y-81646392D01*
X136144108Y-81680500D01*
X136144110Y-81680500D01*
X136275890Y-81680500D01*
X136275892Y-81680500D01*
X136403186Y-81646392D01*
X136517314Y-81580500D01*
X136610500Y-81487314D01*
X136676392Y-81373186D01*
X136710500Y-81245892D01*
X136710500Y-81114108D01*
X136676392Y-80986814D01*
X136610500Y-80872686D01*
X136517314Y-80779500D01*
X136460250Y-80746554D01*
X136403187Y-80713608D01*
X136339539Y-80696554D01*
X136275892Y-80679500D01*
X136144108Y-80679500D01*
X136016812Y-80713608D01*
X135902686Y-80779500D01*
X135902683Y-80779502D01*
X135809502Y-80872683D01*
X135809500Y-80872686D01*
X135743608Y-80986812D01*
X135709500Y-81114108D01*
X121602500Y-81114108D01*
X121602500Y-79994108D01*
X138559500Y-79994108D01*
X138559500Y-80125892D01*
X138572235Y-80173419D01*
X138593608Y-80253187D01*
X138621048Y-80300713D01*
X138659500Y-80367314D01*
X138752686Y-80460500D01*
X138866814Y-80526392D01*
X138994108Y-80560500D01*
X138994110Y-80560500D01*
X139125890Y-80560500D01*
X139125892Y-80560500D01*
X139253186Y-80526392D01*
X139367314Y-80460500D01*
X139460500Y-80367314D01*
X139526392Y-80253186D01*
X139560500Y-80125892D01*
X139560500Y-80041635D01*
X143219670Y-80041635D01*
X143219670Y-80173419D01*
X143236724Y-80237066D01*
X143253778Y-80300714D01*
X143284109Y-80353247D01*
X143319670Y-80414841D01*
X143412856Y-80508027D01*
X143526984Y-80573919D01*
X143654278Y-80608027D01*
X143654280Y-80608027D01*
X143786060Y-80608027D01*
X143786062Y-80608027D01*
X143913356Y-80573919D01*
X144027484Y-80508027D01*
X144120670Y-80414841D01*
X144186562Y-80300713D01*
X144220670Y-80173419D01*
X144220670Y-80041635D01*
X144186562Y-79914341D01*
X144120670Y-79800213D01*
X144027484Y-79707027D01*
X143946897Y-79660500D01*
X143913357Y-79641135D01*
X143887785Y-79634283D01*
X143786062Y-79607027D01*
X143654278Y-79607027D01*
X143526982Y-79641135D01*
X143412856Y-79707027D01*
X143412853Y-79707029D01*
X143319672Y-79800210D01*
X143319670Y-79800213D01*
X143253778Y-79914339D01*
X143227427Y-80012686D01*
X143219670Y-80041635D01*
X139560500Y-80041635D01*
X139560500Y-79994108D01*
X139526392Y-79866814D01*
X139518767Y-79853608D01*
X139499075Y-79819500D01*
X139460500Y-79752686D01*
X139367314Y-79659500D01*
X139308868Y-79625756D01*
X139253187Y-79593608D01*
X139189539Y-79576554D01*
X139125892Y-79559500D01*
X138994108Y-79559500D01*
X138866812Y-79593608D01*
X138752686Y-79659500D01*
X138752683Y-79659502D01*
X138659502Y-79752683D01*
X138659500Y-79752686D01*
X138593608Y-79866812D01*
X138580873Y-79914341D01*
X138559500Y-79994108D01*
X121602500Y-79994108D01*
X121602500Y-79094108D01*
X140399500Y-79094108D01*
X140399500Y-79225892D01*
X140412038Y-79272686D01*
X140433608Y-79353187D01*
X140453022Y-79386812D01*
X140499500Y-79467314D01*
X140592686Y-79560500D01*
X140706814Y-79626392D01*
X140834108Y-79660500D01*
X140834110Y-79660500D01*
X140965890Y-79660500D01*
X140965892Y-79660500D01*
X141093186Y-79626392D01*
X141205321Y-79561650D01*
X141273219Y-79545178D01*
X141329320Y-79561651D01*
X141370003Y-79585139D01*
X141406814Y-79606392D01*
X141534108Y-79640500D01*
X141534110Y-79640500D01*
X141665890Y-79640500D01*
X141665892Y-79640500D01*
X141793186Y-79606392D01*
X141907314Y-79540500D01*
X141933706Y-79514108D01*
X146339500Y-79514108D01*
X146339500Y-79645891D01*
X146373608Y-79773187D01*
X146389210Y-79800210D01*
X146439500Y-79887314D01*
X146532686Y-79980500D01*
X146646814Y-80046392D01*
X146774108Y-80080500D01*
X146774110Y-80080500D01*
X146905890Y-80080500D01*
X146905892Y-80080500D01*
X147033186Y-80046392D01*
X147147314Y-79980500D01*
X147240500Y-79887314D01*
X147306392Y-79773186D01*
X147340500Y-79645892D01*
X147340500Y-79514108D01*
X147306392Y-79386814D01*
X147240500Y-79272686D01*
X147147314Y-79179500D01*
X147090250Y-79146554D01*
X147033187Y-79113608D01*
X146960410Y-79094108D01*
X146905892Y-79079500D01*
X146774108Y-79079500D01*
X146646812Y-79113608D01*
X146532686Y-79179500D01*
X146532683Y-79179502D01*
X146439502Y-79272683D01*
X146439500Y-79272686D01*
X146373608Y-79386812D01*
X146339500Y-79514108D01*
X141933706Y-79514108D01*
X142000500Y-79447314D01*
X142066392Y-79333186D01*
X142100500Y-79205892D01*
X142100500Y-79074108D01*
X142066392Y-78946814D01*
X142000500Y-78832686D01*
X141907314Y-78739500D01*
X141827827Y-78693608D01*
X141793187Y-78673608D01*
X141729539Y-78656554D01*
X141665892Y-78639500D01*
X141534108Y-78639500D01*
X141406814Y-78673608D01*
X141406813Y-78673608D01*
X141406811Y-78673609D01*
X141406810Y-78673609D01*
X141294679Y-78738348D01*
X141226778Y-78754821D01*
X141170679Y-78738348D01*
X141093189Y-78693609D01*
X141093186Y-78693608D01*
X140965892Y-78659500D01*
X140834108Y-78659500D01*
X140706812Y-78693608D01*
X140592686Y-78759500D01*
X140592683Y-78759502D01*
X140499502Y-78852683D01*
X140499500Y-78852686D01*
X140433608Y-78966812D01*
X140408506Y-79060497D01*
X140399500Y-79094108D01*
X121602500Y-79094108D01*
X121602500Y-77944108D01*
X123359500Y-77944108D01*
X123359500Y-78075892D01*
X123372038Y-78122686D01*
X123393608Y-78203187D01*
X123404866Y-78222686D01*
X123459500Y-78317314D01*
X123552686Y-78410500D01*
X123666814Y-78476392D01*
X123794108Y-78510500D01*
X123794110Y-78510500D01*
X123925890Y-78510500D01*
X123925892Y-78510500D01*
X124053186Y-78476392D01*
X124167314Y-78410500D01*
X124260500Y-78317314D01*
X124326392Y-78203186D01*
X124360500Y-78075892D01*
X124360500Y-77944108D01*
X124326392Y-77816814D01*
X124320618Y-77806814D01*
X124289656Y-77753186D01*
X124260500Y-77702686D01*
X124167314Y-77609500D01*
X124092649Y-77566392D01*
X124053187Y-77543608D01*
X123989539Y-77526554D01*
X123925892Y-77509500D01*
X123794108Y-77509500D01*
X123666812Y-77543608D01*
X123552686Y-77609500D01*
X123552683Y-77609502D01*
X123459502Y-77702683D01*
X123459500Y-77702686D01*
X123393608Y-77816812D01*
X123371201Y-77900437D01*
X123359500Y-77944108D01*
X121602500Y-77944108D01*
X121602500Y-76969676D01*
X121622185Y-76902637D01*
X121674989Y-76856882D01*
X121744147Y-76846938D01*
X121807703Y-76875963D01*
X121814181Y-76881995D01*
X121819499Y-76887313D01*
X121819500Y-76887314D01*
X121912686Y-76980500D01*
X122026814Y-77046392D01*
X122154108Y-77080500D01*
X122154110Y-77080500D01*
X122285890Y-77080500D01*
X122285892Y-77080500D01*
X122413186Y-77046392D01*
X122434462Y-77034108D01*
X125599500Y-77034108D01*
X125599500Y-77165891D01*
X125633608Y-77293187D01*
X125666554Y-77350250D01*
X125699500Y-77407314D01*
X125792686Y-77500500D01*
X125906814Y-77566392D01*
X126034108Y-77600500D01*
X126034110Y-77600500D01*
X126165890Y-77600500D01*
X126165892Y-77600500D01*
X126293186Y-77566392D01*
X126407314Y-77500500D01*
X126413706Y-77494108D01*
X137719500Y-77494108D01*
X137719500Y-77625892D01*
X137737397Y-77692686D01*
X137753609Y-77753188D01*
X137753609Y-77753189D01*
X137816235Y-77861660D01*
X137832708Y-77929560D01*
X137816235Y-77985660D01*
X137763609Y-78076810D01*
X137763609Y-78076811D01*
X137763609Y-78076812D01*
X137763608Y-78076814D01*
X137729500Y-78204108D01*
X137729500Y-78335892D01*
X137737061Y-78364110D01*
X137763608Y-78463187D01*
X137782490Y-78495891D01*
X137829500Y-78577314D01*
X137922686Y-78670500D01*
X138036814Y-78736392D01*
X138164108Y-78770500D01*
X138164110Y-78770500D01*
X138295890Y-78770500D01*
X138295892Y-78770500D01*
X138423186Y-78736392D01*
X138537314Y-78670500D01*
X138630500Y-78577314D01*
X138696392Y-78463186D01*
X138730500Y-78335892D01*
X138730500Y-78204108D01*
X138696392Y-78076814D01*
X138688767Y-78063608D01*
X138669075Y-78029500D01*
X138633762Y-77968337D01*
X138625459Y-77934108D01*
X147809500Y-77934108D01*
X147809500Y-78065892D01*
X147812426Y-78076811D01*
X147843608Y-78193187D01*
X147868797Y-78236814D01*
X147909500Y-78307314D01*
X148002686Y-78400500D01*
X148116814Y-78466392D01*
X148244108Y-78500500D01*
X148244110Y-78500500D01*
X148375890Y-78500500D01*
X148375892Y-78500500D01*
X148503186Y-78466392D01*
X148507142Y-78464108D01*
X150809500Y-78464108D01*
X150809500Y-78595891D01*
X150843608Y-78723187D01*
X150864574Y-78759500D01*
X150909500Y-78837314D01*
X151002686Y-78930500D01*
X151116814Y-78996392D01*
X151244108Y-79030500D01*
X151244110Y-79030500D01*
X151375890Y-79030500D01*
X151375892Y-79030500D01*
X151503186Y-78996392D01*
X151617314Y-78930500D01*
X151710500Y-78837314D01*
X151776392Y-78723186D01*
X151810500Y-78595892D01*
X151810500Y-78464108D01*
X151783705Y-78364108D01*
X152569500Y-78364108D01*
X152569500Y-78495892D01*
X152570735Y-78500500D01*
X152603608Y-78623187D01*
X152613027Y-78639500D01*
X152669500Y-78737314D01*
X152762686Y-78830500D01*
X152876814Y-78896392D01*
X153004108Y-78930500D01*
X153004110Y-78930500D01*
X153135890Y-78930500D01*
X153135892Y-78930500D01*
X153263186Y-78896392D01*
X153377314Y-78830500D01*
X153470500Y-78737314D01*
X153536392Y-78623186D01*
X153544183Y-78594108D01*
X154059500Y-78594108D01*
X154059500Y-78725892D01*
X154068505Y-78759500D01*
X154093608Y-78853187D01*
X154118552Y-78896391D01*
X154159500Y-78967314D01*
X154252686Y-79060500D01*
X154366814Y-79126392D01*
X154494108Y-79160500D01*
X154494110Y-79160500D01*
X154625890Y-79160500D01*
X154625892Y-79160500D01*
X154753186Y-79126392D01*
X154867314Y-79060500D01*
X154960500Y-78967314D01*
X155026392Y-78853186D01*
X155060500Y-78725892D01*
X155060500Y-78704108D01*
X155429500Y-78704108D01*
X155429500Y-78835891D01*
X155463608Y-78963187D01*
X155496554Y-79020250D01*
X155529500Y-79077314D01*
X155622686Y-79170500D01*
X155736814Y-79236392D01*
X155864108Y-79270500D01*
X155864110Y-79270500D01*
X155995890Y-79270500D01*
X155995892Y-79270500D01*
X156123186Y-79236392D01*
X156237314Y-79170500D01*
X156330500Y-79077314D01*
X156396392Y-78963186D01*
X156430500Y-78835892D01*
X156430500Y-78704108D01*
X156396392Y-78576814D01*
X156330500Y-78462686D01*
X156237314Y-78369500D01*
X156146929Y-78317316D01*
X156123187Y-78303608D01*
X156059539Y-78286554D01*
X155995892Y-78269500D01*
X155864108Y-78269500D01*
X155736812Y-78303608D01*
X155622686Y-78369500D01*
X155622683Y-78369502D01*
X155529502Y-78462683D01*
X155529500Y-78462686D01*
X155463608Y-78576812D01*
X155429500Y-78704108D01*
X155060500Y-78704108D01*
X155060500Y-78594108D01*
X155026392Y-78466814D01*
X155026148Y-78466392D01*
X154988105Y-78400500D01*
X154960500Y-78352686D01*
X154867314Y-78259500D01*
X154810250Y-78226554D01*
X154753187Y-78193608D01*
X154689539Y-78176554D01*
X154625892Y-78159500D01*
X154494108Y-78159500D01*
X154366812Y-78193608D01*
X154252686Y-78259500D01*
X154252683Y-78259502D01*
X154159502Y-78352683D01*
X154159500Y-78352686D01*
X154093608Y-78466812D01*
X154081902Y-78510500D01*
X154059500Y-78594108D01*
X153544183Y-78594108D01*
X153570500Y-78495892D01*
X153570500Y-78364108D01*
X153536392Y-78236814D01*
X153470500Y-78122686D01*
X153377314Y-78029500D01*
X153305403Y-77987982D01*
X153263187Y-77963608D01*
X153190410Y-77944108D01*
X153135892Y-77929500D01*
X153004108Y-77929500D01*
X152876812Y-77963608D01*
X152762686Y-78029500D01*
X152762683Y-78029502D01*
X152669502Y-78122683D01*
X152669500Y-78122686D01*
X152603608Y-78236812D01*
X152582038Y-78317314D01*
X152569500Y-78364108D01*
X151783705Y-78364108D01*
X151776392Y-78336814D01*
X151710500Y-78222686D01*
X151617314Y-78129500D01*
X151560250Y-78096554D01*
X151503187Y-78063608D01*
X151439539Y-78046554D01*
X151375892Y-78029500D01*
X151244108Y-78029500D01*
X151116812Y-78063608D01*
X151002686Y-78129500D01*
X151002683Y-78129502D01*
X150909502Y-78222683D01*
X150909500Y-78222686D01*
X150843608Y-78336812D01*
X150809500Y-78464108D01*
X148507142Y-78464108D01*
X148617314Y-78400500D01*
X148710500Y-78307314D01*
X148776392Y-78193186D01*
X148810500Y-78065892D01*
X148810500Y-77934108D01*
X148776392Y-77806814D01*
X148710500Y-77692686D01*
X148617314Y-77599500D01*
X148559968Y-77566391D01*
X148503187Y-77533608D01*
X148439539Y-77516554D01*
X148375892Y-77499500D01*
X148244108Y-77499500D01*
X148116812Y-77533608D01*
X148002686Y-77599500D01*
X148002683Y-77599502D01*
X147909502Y-77692683D01*
X147909500Y-77692686D01*
X147843608Y-77806812D01*
X147828912Y-77861660D01*
X147809500Y-77934108D01*
X138625459Y-77934108D01*
X138617292Y-77900437D01*
X138633765Y-77844338D01*
X138686389Y-77753191D01*
X138686390Y-77753189D01*
X138686392Y-77753186D01*
X138720500Y-77625892D01*
X138720500Y-77494108D01*
X138686392Y-77366814D01*
X138620500Y-77252686D01*
X138527314Y-77159500D01*
X138413186Y-77093608D01*
X138338798Y-77073676D01*
X138316119Y-77067599D01*
X138316117Y-77067598D01*
X138285892Y-77059500D01*
X138154108Y-77059500D01*
X138151842Y-77060107D01*
X138151841Y-77060107D01*
X138026812Y-77093608D01*
X137912686Y-77159500D01*
X137912683Y-77159502D01*
X137819502Y-77252683D01*
X137819500Y-77252686D01*
X137753608Y-77366812D01*
X137719500Y-77494108D01*
X126413706Y-77494108D01*
X126500500Y-77407314D01*
X126566392Y-77293186D01*
X126600500Y-77165892D01*
X126600500Y-77034108D01*
X126566392Y-76906814D01*
X126563980Y-76902637D01*
X126548580Y-76875963D01*
X126500500Y-76792686D01*
X126407314Y-76699500D01*
X126350250Y-76666554D01*
X126293187Y-76633608D01*
X126229539Y-76616554D01*
X126165892Y-76599500D01*
X126034108Y-76599500D01*
X125906812Y-76633608D01*
X125792686Y-76699500D01*
X125792683Y-76699502D01*
X125699502Y-76792683D01*
X125699500Y-76792686D01*
X125633608Y-76906812D01*
X125599500Y-77034108D01*
X122434462Y-77034108D01*
X122527314Y-76980500D01*
X122620500Y-76887314D01*
X122686392Y-76773186D01*
X122720500Y-76645892D01*
X122720500Y-76514108D01*
X122686392Y-76386814D01*
X122620500Y-76272686D01*
X122527314Y-76179500D01*
X122518016Y-76174131D01*
X122503998Y-76166038D01*
X122455783Y-76115470D01*
X122442562Y-76046863D01*
X122468531Y-75981999D01*
X122525446Y-75941471D01*
X122533895Y-75938881D01*
X122543186Y-75936392D01*
X122657314Y-75870500D01*
X122750500Y-75777314D01*
X122816392Y-75663186D01*
X122818616Y-75654884D01*
X122854980Y-75595224D01*
X122917827Y-75564694D01*
X122987202Y-75572988D01*
X123000391Y-75579590D01*
X123028191Y-75595640D01*
X123046814Y-75606392D01*
X123174108Y-75640500D01*
X123174110Y-75640500D01*
X123305890Y-75640500D01*
X123305892Y-75640500D01*
X123433186Y-75606392D01*
X123547314Y-75540500D01*
X123640500Y-75447314D01*
X123706392Y-75333186D01*
X123740500Y-75205892D01*
X123740500Y-75174108D01*
X124889500Y-75174108D01*
X124889500Y-75305891D01*
X124923608Y-75433187D01*
X124956554Y-75490250D01*
X124989500Y-75547314D01*
X125082686Y-75640500D01*
X125196814Y-75706392D01*
X125324108Y-75740500D01*
X125324110Y-75740500D01*
X125455890Y-75740500D01*
X125455892Y-75740500D01*
X125583186Y-75706392D01*
X125697314Y-75640500D01*
X125790500Y-75547314D01*
X125856392Y-75433186D01*
X125890500Y-75305892D01*
X125890500Y-75294108D01*
X137759500Y-75294108D01*
X137759500Y-75425892D01*
X137768187Y-75458314D01*
X137793608Y-75553187D01*
X137808852Y-75579590D01*
X137859500Y-75667314D01*
X137859502Y-75667316D01*
X137944505Y-75752319D01*
X137977990Y-75813642D01*
X137973006Y-75883334D01*
X137944505Y-75927681D01*
X137859502Y-76012683D01*
X137859500Y-76012686D01*
X137793608Y-76126812D01*
X137759500Y-76254108D01*
X137759500Y-76385891D01*
X137793608Y-76513187D01*
X137807538Y-76537314D01*
X137859500Y-76627314D01*
X137952686Y-76720500D01*
X138066814Y-76786392D01*
X138194108Y-76820500D01*
X138325892Y-76820500D01*
X138453186Y-76786392D01*
X138567314Y-76720500D01*
X138660500Y-76627314D01*
X138726392Y-76513186D01*
X138760500Y-76385892D01*
X138760500Y-76254108D01*
X138736385Y-76164108D01*
X155949500Y-76164108D01*
X155949500Y-76295892D01*
X155966554Y-76359539D01*
X155983608Y-76423187D01*
X156016554Y-76480250D01*
X156049500Y-76537314D01*
X156142686Y-76630500D01*
X156256814Y-76696392D01*
X156384108Y-76730500D01*
X156384110Y-76730500D01*
X156515890Y-76730500D01*
X156515892Y-76730500D01*
X156643186Y-76696392D01*
X156757314Y-76630500D01*
X156850500Y-76537314D01*
X156916392Y-76423186D01*
X156950500Y-76295892D01*
X156950500Y-76164108D01*
X156916392Y-76036814D01*
X156850500Y-75922686D01*
X156757314Y-75829500D01*
X156666929Y-75777316D01*
X156643187Y-75763608D01*
X156556941Y-75740499D01*
X156515892Y-75729500D01*
X156384108Y-75729500D01*
X156256812Y-75763608D01*
X156142686Y-75829500D01*
X156142683Y-75829502D01*
X156049502Y-75922683D01*
X156049500Y-75922686D01*
X155983608Y-76036812D01*
X155963031Y-76113608D01*
X155949500Y-76164108D01*
X138736385Y-76164108D01*
X138726392Y-76126814D01*
X138718767Y-76113608D01*
X138692435Y-76067999D01*
X138660500Y-76012686D01*
X138575495Y-75927681D01*
X138542010Y-75866358D01*
X138546994Y-75796666D01*
X138575495Y-75752319D01*
X138598314Y-75729500D01*
X138660500Y-75667314D01*
X138726392Y-75553186D01*
X138760500Y-75425892D01*
X138760500Y-75294108D01*
X138726392Y-75166814D01*
X138660500Y-75052686D01*
X138567314Y-74959500D01*
X138476929Y-74907316D01*
X138453187Y-74893608D01*
X138349747Y-74865892D01*
X138325892Y-74859500D01*
X138194108Y-74859500D01*
X138066812Y-74893608D01*
X137952686Y-74959500D01*
X137952683Y-74959502D01*
X137859502Y-75052683D01*
X137859500Y-75052686D01*
X137793608Y-75166812D01*
X137783137Y-75205891D01*
X137759500Y-75294108D01*
X125890500Y-75294108D01*
X125890500Y-75174108D01*
X125856392Y-75046814D01*
X125790500Y-74932686D01*
X125697314Y-74839500D01*
X125617096Y-74793186D01*
X125583187Y-74773608D01*
X125519539Y-74756554D01*
X125455892Y-74739500D01*
X125324108Y-74739500D01*
X125196812Y-74773608D01*
X125082686Y-74839500D01*
X125082683Y-74839502D01*
X124989502Y-74932683D01*
X124989500Y-74932686D01*
X124923608Y-75046812D01*
X124889500Y-75174108D01*
X123740500Y-75174108D01*
X123740500Y-75074108D01*
X123706392Y-74946814D01*
X123640500Y-74832686D01*
X123547314Y-74739500D01*
X123468312Y-74693888D01*
X123433187Y-74673608D01*
X123369539Y-74656554D01*
X123305892Y-74639500D01*
X123174108Y-74639500D01*
X123046812Y-74673608D01*
X122932686Y-74739500D01*
X122932683Y-74739502D01*
X122839502Y-74832683D01*
X122839500Y-74832686D01*
X122773607Y-74946814D01*
X122771381Y-74955123D01*
X122735012Y-75014781D01*
X122672163Y-75045306D01*
X122602788Y-75037007D01*
X122589608Y-75030409D01*
X122543189Y-75003609D01*
X122543186Y-75003608D01*
X122415892Y-74969500D01*
X122284108Y-74969500D01*
X122156812Y-75003608D01*
X122042686Y-75069500D01*
X122042683Y-75069502D01*
X121949502Y-75162683D01*
X121949500Y-75162686D01*
X121883608Y-75276812D01*
X121868503Y-75333186D01*
X121849500Y-75404108D01*
X121849500Y-75535892D01*
X121859440Y-75572988D01*
X121883608Y-75663187D01*
X121885991Y-75667314D01*
X121949500Y-75777314D01*
X122042686Y-75870500D01*
X122066000Y-75883960D01*
X122114215Y-75934528D01*
X122127437Y-76003135D01*
X122101469Y-76067999D01*
X122044555Y-76108527D01*
X122036095Y-76111121D01*
X122026814Y-76113607D01*
X121912686Y-76179500D01*
X121912683Y-76179502D01*
X121814181Y-76278005D01*
X121752858Y-76311490D01*
X121683166Y-76306506D01*
X121627233Y-76264634D01*
X121602816Y-76199170D01*
X121602500Y-76190324D01*
X121602500Y-74534108D01*
X153499500Y-74534108D01*
X153499500Y-74665892D01*
X153516554Y-74729539D01*
X153533608Y-74793187D01*
X153556413Y-74832686D01*
X153599500Y-74907314D01*
X153692686Y-75000500D01*
X153806814Y-75066392D01*
X153934108Y-75100500D01*
X153934110Y-75100500D01*
X154065890Y-75100500D01*
X154065892Y-75100500D01*
X154193186Y-75066392D01*
X154307314Y-75000500D01*
X154400500Y-74907314D01*
X154466392Y-74793186D01*
X154482222Y-74734108D01*
X156399500Y-74734108D01*
X156399500Y-74865892D01*
X156416554Y-74929539D01*
X156433608Y-74993187D01*
X156446076Y-75014781D01*
X156499500Y-75107314D01*
X156592686Y-75200500D01*
X156706814Y-75266392D01*
X156834108Y-75300500D01*
X156834110Y-75300500D01*
X156965890Y-75300500D01*
X156965892Y-75300500D01*
X157093186Y-75266392D01*
X157207314Y-75200500D01*
X157300500Y-75107314D01*
X157366392Y-74993186D01*
X157400500Y-74865892D01*
X157400500Y-74734108D01*
X157366392Y-74606814D01*
X157300500Y-74492686D01*
X157207314Y-74399500D01*
X157150250Y-74366554D01*
X157093187Y-74333608D01*
X157006941Y-74310499D01*
X156965892Y-74299500D01*
X156834108Y-74299500D01*
X156706812Y-74333608D01*
X156592686Y-74399500D01*
X156592683Y-74399502D01*
X156499502Y-74492683D01*
X156499500Y-74492686D01*
X156433608Y-74606812D01*
X156417778Y-74665892D01*
X156399500Y-74734108D01*
X154482222Y-74734108D01*
X154500500Y-74665892D01*
X154500500Y-74534108D01*
X154466392Y-74406814D01*
X154400500Y-74292686D01*
X154307314Y-74199500D01*
X154250250Y-74166554D01*
X154193187Y-74133608D01*
X154129539Y-74116554D01*
X154065892Y-74099500D01*
X153934108Y-74099500D01*
X153806812Y-74133608D01*
X153692686Y-74199500D01*
X153692683Y-74199502D01*
X153599502Y-74292683D01*
X153599500Y-74292686D01*
X153533608Y-74406812D01*
X153532620Y-74410500D01*
X153499500Y-74534108D01*
X121602500Y-74534108D01*
X121602500Y-73844108D01*
X127389500Y-73844108D01*
X127389500Y-73975891D01*
X127423608Y-74103187D01*
X127441172Y-74133608D01*
X127489500Y-74217314D01*
X127582686Y-74310500D01*
X127696814Y-74376392D01*
X127824108Y-74410500D01*
X127824110Y-74410500D01*
X127955890Y-74410500D01*
X127955892Y-74410500D01*
X128083186Y-74376392D01*
X128197314Y-74310500D01*
X128290500Y-74217314D01*
X128356392Y-74103186D01*
X128390500Y-73975892D01*
X128390500Y-73844108D01*
X128356392Y-73716814D01*
X128290500Y-73602686D01*
X128197314Y-73509500D01*
X128083186Y-73443608D01*
X128066578Y-73439158D01*
X128066573Y-73439155D01*
X127955893Y-73409500D01*
X127955892Y-73409500D01*
X127824108Y-73409500D01*
X127696812Y-73443608D01*
X127582686Y-73509500D01*
X127582683Y-73509502D01*
X127489502Y-73602683D01*
X127489500Y-73602686D01*
X127423608Y-73716812D01*
X127389500Y-73844108D01*
X121602500Y-73844108D01*
X121602500Y-72754108D01*
X127989500Y-72754108D01*
X127989500Y-72885891D01*
X128023608Y-73013187D01*
X128056554Y-73070250D01*
X128089500Y-73127314D01*
X128182686Y-73220500D01*
X128296814Y-73286392D01*
X128424108Y-73320500D01*
X128424110Y-73320500D01*
X128555890Y-73320500D01*
X128555892Y-73320500D01*
X128683186Y-73286392D01*
X128797314Y-73220500D01*
X128890500Y-73127314D01*
X128956392Y-73013186D01*
X128990500Y-72885892D01*
X128990500Y-72754108D01*
X128956392Y-72626814D01*
X128890500Y-72512686D01*
X128797314Y-72419500D01*
X128740250Y-72386554D01*
X128683187Y-72353608D01*
X128619539Y-72336554D01*
X128555892Y-72319500D01*
X128424108Y-72319500D01*
X128296812Y-72353608D01*
X128182686Y-72419500D01*
X128182683Y-72419502D01*
X128089502Y-72512683D01*
X128089500Y-72512686D01*
X128023608Y-72626812D01*
X127989500Y-72754108D01*
X121602500Y-72754108D01*
X121602500Y-71237561D01*
X151764200Y-71237561D01*
X151764200Y-71394439D01*
X151804803Y-71545970D01*
X151883241Y-71681830D01*
X151994170Y-71792759D01*
X152130030Y-71871197D01*
X152281561Y-71911800D01*
X152281564Y-71911800D01*
X152438436Y-71911800D01*
X152438439Y-71911800D01*
X152589970Y-71871197D01*
X152725830Y-71792759D01*
X152836759Y-71681830D01*
X152915197Y-71545970D01*
X152955800Y-71394439D01*
X152955800Y-71237561D01*
X152915197Y-71086030D01*
X152836759Y-70950170D01*
X152725830Y-70839241D01*
X152589970Y-70760803D01*
X152589971Y-70760803D01*
X152552087Y-70750652D01*
X152438439Y-70720200D01*
X152281561Y-70720200D01*
X152167912Y-70750652D01*
X152130029Y-70760803D01*
X151994171Y-70839240D01*
X151994168Y-70839242D01*
X151883242Y-70950168D01*
X151883240Y-70950171D01*
X151804803Y-71086029D01*
X151804803Y-71086030D01*
X151764200Y-71237561D01*
X121602500Y-71237561D01*
X121602500Y-70484108D01*
X126829500Y-70484108D01*
X126829500Y-70615891D01*
X126863608Y-70743187D01*
X126873779Y-70760803D01*
X126929500Y-70857314D01*
X127022686Y-70950500D01*
X127136814Y-71016392D01*
X127264108Y-71050500D01*
X127264110Y-71050500D01*
X127395890Y-71050500D01*
X127395892Y-71050500D01*
X127523186Y-71016392D01*
X127637314Y-70950500D01*
X127730500Y-70857314D01*
X127796392Y-70743186D01*
X127830500Y-70615892D01*
X127830500Y-70484108D01*
X127796392Y-70356814D01*
X127730500Y-70242686D01*
X127709375Y-70221561D01*
X156844200Y-70221561D01*
X156844200Y-70378439D01*
X156884803Y-70529970D01*
X156963241Y-70665830D01*
X157074170Y-70776759D01*
X157210030Y-70855197D01*
X157361561Y-70895800D01*
X157361564Y-70895800D01*
X157518436Y-70895800D01*
X157518439Y-70895800D01*
X157669970Y-70855197D01*
X157805830Y-70776759D01*
X157916759Y-70665830D01*
X157995197Y-70529970D01*
X158035800Y-70378439D01*
X158035800Y-70221561D01*
X157995197Y-70070030D01*
X157916759Y-69934170D01*
X157805830Y-69823241D01*
X157669970Y-69744803D01*
X157669971Y-69744803D01*
X157616587Y-69730499D01*
X157518439Y-69704200D01*
X157361561Y-69704200D01*
X157263413Y-69730499D01*
X157210029Y-69744803D01*
X157074171Y-69823240D01*
X157074168Y-69823242D01*
X156963242Y-69934168D01*
X156963240Y-69934171D01*
X156884803Y-70070029D01*
X156884803Y-70070030D01*
X156844200Y-70221561D01*
X127709375Y-70221561D01*
X127637314Y-70149500D01*
X127580250Y-70116554D01*
X127523187Y-70083608D01*
X127459539Y-70066554D01*
X127395892Y-70049500D01*
X127264108Y-70049500D01*
X127136812Y-70083608D01*
X127022686Y-70149500D01*
X127022683Y-70149502D01*
X126929502Y-70242683D01*
X126929500Y-70242686D01*
X126863608Y-70356812D01*
X126829500Y-70484108D01*
X121602500Y-70484108D01*
X121602500Y-69284108D01*
X130949500Y-69284108D01*
X130949500Y-69415891D01*
X130983608Y-69543187D01*
X130992583Y-69558731D01*
X131049500Y-69657314D01*
X131142686Y-69750500D01*
X131256814Y-69816392D01*
X131384108Y-69850500D01*
X131384110Y-69850500D01*
X131515890Y-69850500D01*
X131515892Y-69850500D01*
X131643186Y-69816392D01*
X131757314Y-69750500D01*
X131850500Y-69657314D01*
X131916392Y-69543186D01*
X131950500Y-69415892D01*
X131950500Y-69284108D01*
X131929454Y-69205561D01*
X151764200Y-69205561D01*
X151764200Y-69362439D01*
X151804803Y-69513970D01*
X151883241Y-69649830D01*
X151994170Y-69760759D01*
X152130030Y-69839197D01*
X152281561Y-69879800D01*
X152281564Y-69879800D01*
X152438436Y-69879800D01*
X152438439Y-69879800D01*
X152589970Y-69839197D01*
X152725830Y-69760759D01*
X152836759Y-69649830D01*
X152889355Y-69558729D01*
X152939921Y-69510515D01*
X153008528Y-69497291D01*
X153073393Y-69523259D01*
X153104128Y-69558728D01*
X153149500Y-69637314D01*
X153242686Y-69730500D01*
X153356814Y-69796392D01*
X153484108Y-69830500D01*
X153484110Y-69830500D01*
X153615890Y-69830500D01*
X153615892Y-69830500D01*
X153743186Y-69796392D01*
X153857314Y-69730500D01*
X153950500Y-69637314D01*
X154016392Y-69523186D01*
X154050500Y-69395892D01*
X154050500Y-69264108D01*
X154016392Y-69136814D01*
X153950500Y-69022686D01*
X153857314Y-68929500D01*
X153777827Y-68883608D01*
X153743187Y-68863608D01*
X153679539Y-68846554D01*
X153615892Y-68829500D01*
X153484108Y-68829500D01*
X153356812Y-68863608D01*
X153242686Y-68929500D01*
X153242683Y-68929502D01*
X153149502Y-69022683D01*
X153149495Y-69022692D01*
X153130686Y-69055271D01*
X153080119Y-69103486D01*
X153011512Y-69116708D01*
X152946647Y-69090740D01*
X152915912Y-69055269D01*
X152915196Y-69054029D01*
X152836759Y-68918170D01*
X152725830Y-68807241D01*
X152589970Y-68728803D01*
X152589971Y-68728803D01*
X152552087Y-68718652D01*
X152438439Y-68688200D01*
X152281561Y-68688200D01*
X152167912Y-68718652D01*
X152130029Y-68728803D01*
X151994171Y-68807240D01*
X151994168Y-68807242D01*
X151883242Y-68918168D01*
X151883240Y-68918171D01*
X151804803Y-69054029D01*
X151804803Y-69054030D01*
X151764200Y-69205561D01*
X131929454Y-69205561D01*
X131916392Y-69156814D01*
X131850500Y-69042686D01*
X131757314Y-68949500D01*
X131700250Y-68916554D01*
X131643187Y-68883608D01*
X131568544Y-68863608D01*
X131515892Y-68849500D01*
X131384108Y-68849500D01*
X131256812Y-68883608D01*
X131142686Y-68949500D01*
X131142683Y-68949502D01*
X131049502Y-69042683D01*
X131049500Y-69042686D01*
X130983608Y-69156812D01*
X130949500Y-69284108D01*
X121602500Y-69284108D01*
X121602500Y-68461500D01*
X121622185Y-68394461D01*
X121674989Y-68348706D01*
X121726500Y-68337500D01*
X158633500Y-68337500D01*
X158700539Y-68357185D01*
G37*
%TD.AperFunction*%
%TD*%
M02*
