%TF.GenerationSoftware,KiCad,Pcbnew,9.0.0*%
%TF.CreationDate,2025-06-13T20:30:42+03:00*%
%TF.ProjectId,BLE_sensors,424c455f-7365-46e7-936f-72732e6b6963,rev?*%
%TF.SameCoordinates,Original*%
%TF.FileFunction,Paste,Bot*%
%TF.FilePolarity,Positive*%
%FSLAX46Y46*%
G04 Gerber Fmt 4.6, Leading zero omitted, Abs format (unit mm)*
G04 Created by KiCad (PCBNEW 9.0.0) date 2025-06-13 20:30:42*
%MOMM*%
%LPD*%
G01*
G04 APERTURE LIST*
G04 Aperture macros list*
%AMRoundRect*
0 Rectangle with rounded corners*
0 $1 Rounding radius*
0 $2 $3 $4 $5 $6 $7 $8 $9 X,Y pos of 4 corners*
0 Add a 4 corners polygon primitive as box body*
4,1,4,$2,$3,$4,$5,$6,$7,$8,$9,$2,$3,0*
0 Add four circle primitives for the rounded corners*
1,1,$1+$1,$2,$3*
1,1,$1+$1,$4,$5*
1,1,$1+$1,$6,$7*
1,1,$1+$1,$8,$9*
0 Add four rect primitives between the rounded corners*
20,1,$1+$1,$2,$3,$4,$5,0*
20,1,$1+$1,$4,$5,$6,$7,0*
20,1,$1+$1,$6,$7,$8,$9,0*
20,1,$1+$1,$8,$9,$2,$3,0*%
G04 Aperture macros list end*
%ADD10RoundRect,0.218750X-0.256250X0.218750X-0.256250X-0.218750X0.256250X-0.218750X0.256250X0.218750X0*%
%ADD11RoundRect,0.200000X0.200000X0.275000X-0.200000X0.275000X-0.200000X-0.275000X0.200000X-0.275000X0*%
%ADD12RoundRect,0.225000X0.225000X0.250000X-0.225000X0.250000X-0.225000X-0.250000X0.225000X-0.250000X0*%
%ADD13RoundRect,0.200000X-0.200000X-0.275000X0.200000X-0.275000X0.200000X0.275000X-0.200000X0.275000X0*%
%ADD14RoundRect,0.250000X1.075000X-0.375000X1.075000X0.375000X-1.075000X0.375000X-1.075000X-0.375000X0*%
%ADD15R,0.600000X1.240000*%
%ADD16R,0.300000X1.240000*%
%ADD17RoundRect,0.225000X-0.250000X0.225000X-0.250000X-0.225000X0.250000X-0.225000X0.250000X0.225000X0*%
%ADD18RoundRect,0.100000X-0.100000X0.637500X-0.100000X-0.637500X0.100000X-0.637500X0.100000X0.637500X0*%
%ADD19RoundRect,0.200000X-0.275000X0.200000X-0.275000X-0.200000X0.275000X-0.200000X0.275000X0.200000X0*%
%ADD20RoundRect,0.250000X-0.255000X0.255000X-0.255000X-0.255000X0.255000X-0.255000X0.255000X0.255000X0*%
%ADD21RoundRect,0.062500X-0.062500X0.350000X-0.062500X-0.350000X0.062500X-0.350000X0.062500X0.350000X0*%
%ADD22RoundRect,0.062500X-0.350000X0.062500X-0.350000X-0.062500X0.350000X-0.062500X0.350000X0.062500X0*%
%ADD23RoundRect,0.250000X0.250000X0.475000X-0.250000X0.475000X-0.250000X-0.475000X0.250000X-0.475000X0*%
%ADD24RoundRect,0.225000X0.250000X-0.225000X0.250000X0.225000X-0.250000X0.225000X-0.250000X-0.225000X0*%
%ADD25RoundRect,0.175000X0.325000X-0.175000X0.325000X0.175000X-0.325000X0.175000X-0.325000X-0.175000X0*%
%ADD26RoundRect,0.150000X0.150000X-0.200000X0.150000X0.200000X-0.150000X0.200000X-0.150000X-0.200000X0*%
%ADD27RoundRect,0.120000X0.120000X0.285000X-0.120000X0.285000X-0.120000X-0.285000X0.120000X-0.285000X0*%
%ADD28RoundRect,0.062500X0.350000X0.062500X-0.350000X0.062500X-0.350000X-0.062500X0.350000X-0.062500X0*%
G04 APERTURE END LIST*
D10*
%TO.C,D2*%
X156270000Y-89665000D03*
X156270000Y-91240000D03*
%TD*%
D11*
%TO.C,R9*%
X134395000Y-84520000D03*
X132745000Y-84520000D03*
%TD*%
D10*
%TO.C,D1*%
X154470000Y-89665000D03*
X154470000Y-91240000D03*
%TD*%
D12*
%TO.C,C11*%
X138590000Y-81160000D03*
X137040000Y-81160000D03*
%TD*%
D13*
%TO.C,R13*%
X132715000Y-90960000D03*
X134365000Y-90960000D03*
%TD*%
%TO.C,R11*%
X132745000Y-87720000D03*
X134395000Y-87720000D03*
%TD*%
D14*
%TO.C,L1*%
X144870000Y-81230000D03*
X144870000Y-78430000D03*
%TD*%
D12*
%TO.C,C7*%
X149415000Y-86680000D03*
X147865000Y-86680000D03*
%TD*%
D13*
%TO.C,R6*%
X155065000Y-82890000D03*
X156715000Y-82890000D03*
%TD*%
%TO.C,R5*%
X155055000Y-84440000D03*
X156705000Y-84440000D03*
%TD*%
D15*
%TO.C,J3*%
X143662000Y-86145000D03*
X142862000Y-86145000D03*
D16*
X141712000Y-86145000D03*
X140712000Y-86145000D03*
X140212000Y-86145000D03*
X139212000Y-86145000D03*
D15*
X138062000Y-86145000D03*
X137262000Y-86145000D03*
X137262000Y-86145000D03*
X138062000Y-86145000D03*
D16*
X138712000Y-86145000D03*
X139712000Y-86145000D03*
X141212000Y-86145000D03*
X142212000Y-86145000D03*
D15*
X142862000Y-86145000D03*
X143662000Y-86145000D03*
%TD*%
D11*
%TO.C,R8*%
X134395000Y-86170000D03*
X132745000Y-86170000D03*
%TD*%
D17*
%TO.C,C9*%
X147295000Y-83525000D03*
X147295000Y-85075000D03*
%TD*%
D10*
%TO.C,D3*%
X158080000Y-89685000D03*
X158080000Y-91260000D03*
%TD*%
D18*
%TO.C,U7*%
X124730000Y-78387500D03*
X125380000Y-78387500D03*
X126030000Y-78387500D03*
X126680000Y-78387500D03*
X127330000Y-78387500D03*
X127980000Y-78387500D03*
X128630000Y-78387500D03*
X128630000Y-84112500D03*
X127980000Y-84112500D03*
X127330000Y-84112500D03*
X126680000Y-84112500D03*
X126030000Y-84112500D03*
X125380000Y-84112500D03*
X124730000Y-84112500D03*
%TD*%
D13*
%TO.C,TH1*%
X151840000Y-79820000D03*
X153490000Y-79820000D03*
%TD*%
D19*
%TO.C,R3*%
X150990000Y-86645000D03*
X150990000Y-88295000D03*
%TD*%
D20*
%TO.C,U5*%
X151350000Y-82632500D03*
X150100000Y-82632500D03*
X151350000Y-83882500D03*
X150100000Y-83882500D03*
D21*
X149725000Y-81320000D03*
X150225000Y-81320000D03*
X150725000Y-81320000D03*
X151225000Y-81320000D03*
X151725000Y-81320000D03*
D22*
X152662500Y-82257500D03*
X152662500Y-82757500D03*
X152662500Y-83257500D03*
X152662500Y-83757500D03*
X152662500Y-84257500D03*
D21*
X151725000Y-85195000D03*
X151225000Y-85195000D03*
X150725000Y-85195000D03*
X150225000Y-85195000D03*
X149725000Y-85195000D03*
D22*
X148787500Y-84257500D03*
X148787500Y-83757500D03*
X148787500Y-83257500D03*
X148787500Y-82757500D03*
X148787500Y-82257500D03*
%TD*%
D23*
%TO.C,C17*%
X124290000Y-74330000D03*
X122390000Y-74330000D03*
%TD*%
%TO.C,C12*%
X141190000Y-77860000D03*
X139290000Y-77860000D03*
%TD*%
D13*
%TO.C,R7*%
X155065000Y-81290000D03*
X156715000Y-81290000D03*
%TD*%
D23*
%TO.C,C13*%
X141180000Y-75800000D03*
X139280000Y-75800000D03*
%TD*%
D12*
%TO.C,C16*%
X124555000Y-76580000D03*
X123005000Y-76580000D03*
%TD*%
D24*
%TO.C,C8*%
X147300000Y-81995000D03*
X147300000Y-80445000D03*
%TD*%
D25*
%TO.C,D4*%
X129700000Y-88130000D03*
D26*
X128000000Y-88130000D03*
X128000000Y-86130000D03*
X129900000Y-86130000D03*
%TD*%
D27*
%TO.C,U3*%
X141557500Y-81080000D03*
X141557500Y-80080000D03*
X140957500Y-81080000D03*
X140957500Y-80080000D03*
D28*
X142470000Y-79580000D03*
X142470000Y-80080000D03*
X142470000Y-80580000D03*
X142470000Y-81080000D03*
X142470000Y-81580000D03*
X140045000Y-81580000D03*
X140045000Y-81080000D03*
X140045000Y-80580000D03*
X140045000Y-80080000D03*
X140045000Y-79580000D03*
%TD*%
D13*
%TO.C,R4*%
X152625000Y-86660000D03*
X154275000Y-86660000D03*
%TD*%
D23*
%TO.C,C10*%
X142970000Y-83160000D03*
X141070000Y-83160000D03*
%TD*%
D13*
%TO.C,R12*%
X137915000Y-82930000D03*
X139565000Y-82930000D03*
%TD*%
M02*
