%TF.GenerationSoftware,KiCad,Pcbnew,9.0.0*%
%TF.CreationDate,2025-06-13T20:30:42+03:00*%
%TF.ProjectId,BLE_sensors,424c455f-7365-46e7-936f-72732e6b6963,rev?*%
%TF.SameCoordinates,Original*%
%TF.FileFunction,Soldermask,Top*%
%TF.FilePolarity,Negative*%
%FSLAX46Y46*%
G04 Gerber Fmt 4.6, Leading zero omitted, Abs format (unit mm)*
G04 Created by KiCad (PCBNEW 9.0.0) date 2025-06-13 20:30:42*
%MOMM*%
%LPD*%
G01*
G04 APERTURE LIST*
G04 Aperture macros list*
%AMRoundRect*
0 Rectangle with rounded corners*
0 $1 Rounding radius*
0 $2 $3 $4 $5 $6 $7 $8 $9 X,Y pos of 4 corners*
0 Add a 4 corners polygon primitive as box body*
4,1,4,$2,$3,$4,$5,$6,$7,$8,$9,$2,$3,0*
0 Add four circle primitives for the rounded corners*
1,1,$1+$1,$2,$3*
1,1,$1+$1,$4,$5*
1,1,$1+$1,$6,$7*
1,1,$1+$1,$8,$9*
0 Add four rect primitives between the rounded corners*
20,1,$1+$1,$2,$3,$4,$5,0*
20,1,$1+$1,$4,$5,$6,$7,0*
20,1,$1+$1,$6,$7,$8,$9,0*
20,1,$1+$1,$8,$9,$2,$3,0*%
G04 Aperture macros list end*
%ADD10RoundRect,0.225000X-0.225000X-0.250000X0.225000X-0.250000X0.225000X0.250000X-0.225000X0.250000X0*%
%ADD11RoundRect,0.225000X-0.250000X0.225000X-0.250000X-0.225000X0.250000X-0.225000X0.250000X0.225000X0*%
%ADD12R,1.000000X1.000000*%
%ADD13O,1.000000X1.000000*%
%ADD14R,0.381000X0.355600*%
%ADD15R,0.355600X0.381000*%
%ADD16RoundRect,0.200000X-0.275000X0.200000X-0.275000X-0.200000X0.275000X-0.200000X0.275000X0.200000X0*%
%ADD17RoundRect,0.200000X0.275000X-0.200000X0.275000X0.200000X-0.275000X0.200000X-0.275000X-0.200000X0*%
%ADD18RoundRect,0.200000X-0.200000X-0.275000X0.200000X-0.275000X0.200000X0.275000X-0.200000X0.275000X0*%
%ADD19R,0.500000X0.350000*%
%ADD20RoundRect,0.225000X0.225000X0.250000X-0.225000X0.250000X-0.225000X-0.250000X0.225000X-0.250000X0*%
%ADD21C,0.990600*%
%ADD22C,0.787400*%
%ADD23RoundRect,0.250000X-0.475000X0.250000X-0.475000X-0.250000X0.475000X-0.250000X0.475000X0.250000X0*%
%ADD24O,2.000000X0.800000*%
%ADD25C,0.650000*%
%ADD26O,1.000000X1.800000*%
%ADD27O,1.000000X2.100000*%
G04 APERTURE END LIST*
D10*
%TO.C,C6*%
X154125000Y-76225000D03*
X155675000Y-76225000D03*
%TD*%
D11*
%TO.C,C3*%
X152775000Y-80475000D03*
X152775000Y-82025000D03*
%TD*%
D12*
%TO.C,J2*%
X147580000Y-89050000D03*
D13*
X148850000Y-89050000D03*
%TD*%
D14*
%TO.C,U2*%
X152250000Y-77624874D03*
X152250000Y-78125000D03*
X152250000Y-78625126D03*
X152250000Y-79125252D03*
D15*
X152761937Y-79137063D03*
X153262063Y-79137063D03*
D14*
X153774000Y-79125252D03*
X153774000Y-78625126D03*
X153774000Y-78125000D03*
X153774000Y-77624874D03*
D15*
X153262063Y-77613063D03*
X152761937Y-77613063D03*
%TD*%
D16*
%TO.C,R14*%
X128800000Y-81330000D03*
X128800000Y-82980000D03*
%TD*%
D17*
%TO.C,R10*%
X130400000Y-82980000D03*
X130400000Y-81330000D03*
%TD*%
%TO.C,R1*%
X131000000Y-75365000D03*
X131000000Y-73715000D03*
%TD*%
D18*
%TO.C,R16*%
X129175000Y-72070000D03*
X130825000Y-72070000D03*
%TD*%
D19*
%TO.C,U1*%
X128125000Y-74585000D03*
X128125000Y-75235000D03*
X128125000Y-75885000D03*
X128125000Y-76535000D03*
X126075000Y-76535000D03*
X126075000Y-75885000D03*
X126075000Y-75235000D03*
X126075000Y-74585000D03*
%TD*%
D16*
%TO.C,R17*%
X157700000Y-73975000D03*
X157700000Y-75625000D03*
%TD*%
D20*
%TO.C,C2*%
X124755000Y-74310000D03*
X123205000Y-74310000D03*
%TD*%
D21*
%TO.C,J1*%
X157440000Y-70300000D03*
X152360000Y-71316000D03*
X152360000Y-69284000D03*
D22*
X156170000Y-69665000D03*
X156170000Y-70935000D03*
X154900000Y-69665000D03*
X154900000Y-70935000D03*
X153630000Y-69665000D03*
X153630000Y-70935000D03*
%TD*%
D11*
%TO.C,C1*%
X124700000Y-76385000D03*
X124700000Y-77935000D03*
%TD*%
%TO.C,C4*%
X155200000Y-77800000D03*
X155200000Y-79350000D03*
%TD*%
D23*
%TO.C,C5*%
X157050000Y-77850000D03*
X157050000Y-79750000D03*
%TD*%
D17*
%TO.C,R2*%
X129430000Y-75435000D03*
X129430000Y-73785000D03*
%TD*%
D18*
%TO.C,R15*%
X129175000Y-70500000D03*
X130825000Y-70500000D03*
%TD*%
D16*
%TO.C,R18*%
X152400000Y-73075000D03*
X152400000Y-74725000D03*
%TD*%
D24*
%TO.C,U4*%
X132800000Y-69310000D03*
X132800000Y-70410000D03*
X132800000Y-71520000D03*
X132800000Y-72620000D03*
X132800000Y-73720000D03*
X132800000Y-74820000D03*
X132800000Y-75830000D03*
X132800000Y-76930000D03*
X132800000Y-78030000D03*
X132800000Y-79130000D03*
X132800000Y-80240000D03*
X132800000Y-81340000D03*
X132800000Y-82440000D03*
X132800000Y-83540000D03*
X149800000Y-83540000D03*
X149800000Y-82440000D03*
X149800000Y-81340000D03*
X149800000Y-80240000D03*
X149800000Y-79130000D03*
X149800000Y-78030000D03*
X149800000Y-76930000D03*
X149800000Y-75830000D03*
X149800000Y-74820000D03*
X149800000Y-73720000D03*
X149800000Y-72620000D03*
X149800000Y-71520000D03*
X149800000Y-70410000D03*
X149800000Y-69310000D03*
%TD*%
D11*
%TO.C,C14*%
X131770000Y-84935000D03*
X131770000Y-86485000D03*
%TD*%
D16*
%TO.C,R19*%
X155100000Y-73075000D03*
X155100000Y-74725000D03*
%TD*%
D25*
%TO.C,J3*%
X143352000Y-87265000D03*
X137572000Y-87265000D03*
D26*
X144782000Y-90945000D03*
D27*
X144782000Y-86745000D03*
D26*
X136142000Y-90945000D03*
D27*
X136142000Y-86745000D03*
%TD*%
M02*
