M48
; DRILL file {KiCad 9.0.0} date 2025-06-13T20:30:38+0300
; FORMAT={-:-/ absolute / metric / decimal}
; #@! TF.CreationDate,2025-06-13T20:30:38+03:00
; #@! TF.GenerationSoftware,Kicad,Pcbnew,9.0.0
; #@! TF.FileFunction,Plated,1,4,PTH
FMAT,2
METRIC
; #@! TA.AperFunction,Plated,PTH,ViaDrill
T1C0.300
; #@! TA.AperFunction,Plated,PTH,ComponentDrill
T2C0.600
; #@! TA.AperFunction,Plated,PTH,ComponentDrill
T3C0.650
%
G90
G05
T1
X122.22Y-76.58
X122.35Y-75.47
X123.24Y-75.14
X123.83Y-75.75
X123.86Y-78.01
X124.29Y-73.15
X124.66Y-85.34
X125.39Y-75.24
X125.5Y-73.5
X126.1Y-77.1
X127.33Y-70.55
X127.86Y-82.65
X127.89Y-73.91
X128.49Y-72.82
X129.0Y-86.6
X129.488Y-73.036
X129.7Y-88.9
X130.74Y-84.58
X130.99Y-73.045
X131.45Y-69.35
X131.68Y-87.27
X131.92Y-90.9
X132.745Y-88.655
X134.19Y-82.43
X136.21Y-81.18
X136.53Y-85.26
X137.13Y-82.88
X138.22Y-77.56
X138.23Y-78.27
X138.26Y-75.36
X138.26Y-76.32
X138.75Y-88.65
X139.06Y-80.06
X140.9Y-79.16
X140.97Y-81.92
X141.18Y-74.55
X141.6Y-79.14
X141.61Y-81.94
X141.92Y-83.2
X142.25Y-88.65
X143.46Y-85.11
X143.72Y-80.108
X146.25Y-84.0
X146.42Y-85.06
X146.84Y-79.58
X146.96Y-86.7
X148.16Y-81.08
X148.25Y-79.68
X148.31Y-78.0
X150.99Y-89.12
X151.31Y-78.53
X151.47Y-83.21
X151.47Y-83.99
X151.48Y-82.44
X151.6Y-73.9
X152.247Y-85.707
X153.07Y-78.43
X153.32Y-75.55
X153.46Y-84.93
X153.55Y-69.33
X153.6Y-91.2
X153.8Y-82.157
X153.84Y-84.14
X154.0Y-74.6
X154.4Y-80.32
X154.56Y-78.66
X155.07Y-86.72
X155.47Y-90.5
X155.93Y-78.77
X156.45Y-76.23
X156.9Y-74.8
X157.12Y-69.36
X157.26Y-90.46
X157.7Y-76.6
X158.2Y-79.78
X158.25Y-77.78
T3
X147.58Y-89.05
X148.85Y-89.05
T2
G00X136.142Y-87.295
M15
G01X136.142Y-86.195
M16
G05
G00X136.142Y-91.345
M15
G01X136.142Y-90.545
M16
G05
G00X144.782Y-87.295
M15
G01X144.782Y-86.195
M16
G05
G00X144.782Y-91.345
M15
G01X144.782Y-90.545
M16
G05
M30
