%TF.GenerationSoftware,KiCad,Pcbnew,9.0.0*%
%TF.CreationDate,2025-06-13T20:30:42+03:00*%
%TF.ProjectId,BLE_sensors,424c455f-7365-46e7-936f-72732e6b6963,rev?*%
%TF.SameCoordinates,Original*%
%TF.FileFunction,Copper,L1,Top*%
%TF.FilePolarity,Positive*%
%FSLAX46Y46*%
G04 Gerber Fmt 4.6, Leading zero omitted, Abs format (unit mm)*
G04 Created by KiCad (PCBNEW 9.0.0) date 2025-06-13 20:30:42*
%MOMM*%
%LPD*%
G01*
G04 APERTURE LIST*
G04 Aperture macros list*
%AMRoundRect*
0 Rectangle with rounded corners*
0 $1 Rounding radius*
0 $2 $3 $4 $5 $6 $7 $8 $9 X,Y pos of 4 corners*
0 Add a 4 corners polygon primitive as box body*
4,1,4,$2,$3,$4,$5,$6,$7,$8,$9,$2,$3,0*
0 Add four circle primitives for the rounded corners*
1,1,$1+$1,$2,$3*
1,1,$1+$1,$4,$5*
1,1,$1+$1,$6,$7*
1,1,$1+$1,$8,$9*
0 Add four rect primitives between the rounded corners*
20,1,$1+$1,$2,$3,$4,$5,0*
20,1,$1+$1,$4,$5,$6,$7,0*
20,1,$1+$1,$6,$7,$8,$9,0*
20,1,$1+$1,$8,$9,$2,$3,0*%
G04 Aperture macros list end*
%TA.AperFunction,SMDPad,CuDef*%
%ADD10RoundRect,0.225000X-0.225000X-0.250000X0.225000X-0.250000X0.225000X0.250000X-0.225000X0.250000X0*%
%TD*%
%TA.AperFunction,SMDPad,CuDef*%
%ADD11RoundRect,0.225000X-0.250000X0.225000X-0.250000X-0.225000X0.250000X-0.225000X0.250000X0.225000X0*%
%TD*%
%TA.AperFunction,ComponentPad*%
%ADD12R,1.000000X1.000000*%
%TD*%
%TA.AperFunction,ComponentPad*%
%ADD13O,1.000000X1.000000*%
%TD*%
%TA.AperFunction,SMDPad,CuDef*%
%ADD14R,0.381000X0.355600*%
%TD*%
%TA.AperFunction,SMDPad,CuDef*%
%ADD15R,0.355600X0.381000*%
%TD*%
%TA.AperFunction,SMDPad,CuDef*%
%ADD16RoundRect,0.200000X-0.275000X0.200000X-0.275000X-0.200000X0.275000X-0.200000X0.275000X0.200000X0*%
%TD*%
%TA.AperFunction,SMDPad,CuDef*%
%ADD17RoundRect,0.200000X0.275000X-0.200000X0.275000X0.200000X-0.275000X0.200000X-0.275000X-0.200000X0*%
%TD*%
%TA.AperFunction,SMDPad,CuDef*%
%ADD18RoundRect,0.200000X-0.200000X-0.275000X0.200000X-0.275000X0.200000X0.275000X-0.200000X0.275000X0*%
%TD*%
%TA.AperFunction,SMDPad,CuDef*%
%ADD19R,0.500000X0.350000*%
%TD*%
%TA.AperFunction,SMDPad,CuDef*%
%ADD20RoundRect,0.225000X0.225000X0.250000X-0.225000X0.250000X-0.225000X-0.250000X0.225000X-0.250000X0*%
%TD*%
%TA.AperFunction,ConnectorPad*%
%ADD21C,0.787400*%
%TD*%
%TA.AperFunction,SMDPad,CuDef*%
%ADD22RoundRect,0.250000X-0.475000X0.250000X-0.475000X-0.250000X0.475000X-0.250000X0.475000X0.250000X0*%
%TD*%
%TA.AperFunction,SMDPad,CuDef*%
%ADD23O,2.000000X0.800000*%
%TD*%
%TA.AperFunction,HeatsinkPad*%
%ADD24O,1.000000X1.800000*%
%TD*%
%TA.AperFunction,HeatsinkPad*%
%ADD25O,1.000000X2.100000*%
%TD*%
%TA.AperFunction,ViaPad*%
%ADD26C,0.600000*%
%TD*%
%TA.AperFunction,Conductor*%
%ADD27C,0.200000*%
%TD*%
G04 APERTURE END LIST*
D10*
%TO.P,C6,1*%
%TO.N,+3V3*%
X154125000Y-76225000D03*
%TO.P,C6,2*%
%TO.N,GND*%
X155675000Y-76225000D03*
%TD*%
D11*
%TO.P,C3,1*%
%TO.N,Net-(U2-C1)*%
X152775000Y-80475000D03*
%TO.P,C3,2*%
%TO.N,GND*%
X152775000Y-82025000D03*
%TD*%
D12*
%TO.P,J2,1,Pin_1*%
%TO.N,+V_bat*%
X147580000Y-89050000D03*
D13*
%TO.P,J2,2,Pin_2*%
%TO.N,GND*%
X148850000Y-89050000D03*
%TD*%
D14*
%TO.P,U2,1,SCL/SPC*%
%TO.N,/SPC*%
X152250000Y-77624874D03*
%TO.P,U2,2,CS*%
%TO.N,/CS*%
X152250000Y-78125000D03*
%TO.P,U2,3,RESERVED*%
%TO.N,GND*%
X152250000Y-78625126D03*
%TO.P,U2,4,SDA/SDI/SDO*%
%TO.N,/SDI*%
X152250000Y-79125252D03*
D15*
%TO.P,U2,5,C1*%
%TO.N,Net-(U2-C1)*%
X152761937Y-79137063D03*
%TO.P,U2,6,GND*%
%TO.N,GND*%
X153262063Y-79137063D03*
D14*
%TO.P,U2,7,INT_MAG/DRDY*%
%TO.N,/INT_MAG{slash}DRDY*%
X153774000Y-79125252D03*
%TO.P,U2,8,GND*%
%TO.N,GND*%
X153774000Y-78625126D03*
%TO.P,U2,9,Vdd*%
%TO.N,+3V3*%
X153774000Y-78125000D03*
%TO.P,U2,10,Vdd_IO*%
X153774000Y-77624874D03*
D15*
%TO.P,U2,11,INT2_XL*%
%TO.N,/INT2_XL*%
X153262063Y-77613063D03*
%TO.P,U2,12,INT1_XL*%
%TO.N,/INT1_XL*%
X152761937Y-77613063D03*
%TD*%
D16*
%TO.P,R14,1*%
%TO.N,Net-(U4-P1.04{slash}AIN0)*%
X128800000Y-81330000D03*
%TO.P,R14,2*%
%TO.N,GND*%
X128800000Y-82980000D03*
%TD*%
D17*
%TO.P,R10,1*%
%TO.N,+V_bat*%
X130400000Y-82980000D03*
%TO.P,R10,2*%
%TO.N,Net-(U4-P1.04{slash}AIN0)*%
X130400000Y-81330000D03*
%TD*%
%TO.P,R1,1*%
%TO.N,/SCL*%
X131000000Y-75365000D03*
%TO.P,R1,2*%
%TO.N,+3V3*%
X131000000Y-73715000D03*
%TD*%
D18*
%TO.P,R16,1*%
%TO.N,Net-(U7-UTx)*%
X129175000Y-72070000D03*
%TO.P,R16,2*%
%TO.N,/RX*%
X130825000Y-72070000D03*
%TD*%
D19*
%TO.P,U1,1,GND*%
%TO.N,GND*%
X128125000Y-74585000D03*
%TO.P,U1,2,CSB*%
%TO.N,+3V3*%
X128125000Y-75235000D03*
%TO.P,U1,3,SDI*%
%TO.N,/SDA*%
X128125000Y-75885000D03*
%TO.P,U1,4,SCK*%
%TO.N,/SCL*%
X128125000Y-76535000D03*
%TO.P,U1,5,SDO*%
%TO.N,GND*%
X126075000Y-76535000D03*
%TO.P,U1,6,VDDIO*%
%TO.N,+3V3*%
X126075000Y-75885000D03*
%TO.P,U1,7,GND*%
%TO.N,GND*%
X126075000Y-75235000D03*
%TO.P,U1,8,VDD*%
%TO.N,+3V3*%
X126075000Y-74585000D03*
%TD*%
D16*
%TO.P,R17,1*%
%TO.N,/nRESET*%
X157700000Y-73975000D03*
%TO.P,R17,2*%
%TO.N,+3V3*%
X157700000Y-75625000D03*
%TD*%
D20*
%TO.P,C2,1*%
%TO.N,+3V3*%
X124755000Y-74310000D03*
%TO.P,C2,2*%
%TO.N,GND*%
X123205000Y-74310000D03*
%TD*%
D21*
%TO.P,J1,1,VCC*%
%TO.N,+3V3*%
X156170000Y-69665000D03*
%TO.P,J1,2,SWDIO*%
%TO.N,/SWDIO*%
X156170000Y-70935000D03*
%TO.P,J1,3,~{RESET}*%
%TO.N,/nRESET*%
X154900000Y-69665000D03*
%TO.P,J1,4,SWCLK*%
%TO.N,/SWCLK*%
X154900000Y-70935000D03*
%TO.P,J1,5,GND*%
%TO.N,GND*%
X153630000Y-69665000D03*
%TO.P,J1,6,SWO*%
%TO.N,unconnected-(J1-SWO-Pad6)*%
X153630000Y-70935000D03*
%TD*%
D11*
%TO.P,C1,1*%
%TO.N,+3V3*%
X124700000Y-76385000D03*
%TO.P,C1,2*%
%TO.N,GND*%
X124700000Y-77935000D03*
%TD*%
%TO.P,C4,1*%
%TO.N,+3V3*%
X155200000Y-77800000D03*
%TO.P,C4,2*%
%TO.N,GND*%
X155200000Y-79350000D03*
%TD*%
D22*
%TO.P,C5,1*%
%TO.N,+3V3*%
X157050000Y-77850000D03*
%TO.P,C5,2*%
%TO.N,GND*%
X157050000Y-79750000D03*
%TD*%
D17*
%TO.P,R2,1*%
%TO.N,/SDA*%
X129430000Y-75435000D03*
%TO.P,R2,2*%
%TO.N,+3V3*%
X129430000Y-73785000D03*
%TD*%
D18*
%TO.P,R15,1*%
%TO.N,Net-(U7-URx)*%
X129175000Y-70500000D03*
%TO.P,R15,2*%
%TO.N,/TX*%
X130825000Y-70500000D03*
%TD*%
D16*
%TO.P,R18,1*%
%TO.N,/SWDIO*%
X152400000Y-73075000D03*
%TO.P,R18,2*%
%TO.N,+3V3*%
X152400000Y-74725000D03*
%TD*%
D23*
%TO.P,U4,1,GND*%
%TO.N,GND*%
X132800000Y-69310000D03*
%TO.P,U4,2,P1.09*%
%TO.N,/TX*%
X132800000Y-70410000D03*
%TO.P,U4,3,P1.10*%
%TO.N,/RX*%
X132800000Y-71520000D03*
%TO.P,U4,4,P1.11/AIN4*%
%TO.N,unconnected-(U4-P1.11{slash}AIN4-Pad4)*%
X132800000Y-72620000D03*
%TO.P,U4,5,P1.12/AIN5*%
%TO.N,/SDA*%
X132800000Y-73720000D03*
%TO.P,U4,6,P1.13/AIN6*%
%TO.N,/SCL*%
X132800000Y-74820000D03*
%TO.P,U4,7,P1.14/AIN7*%
%TO.N,unconnected-(U4-P1.14{slash}AIN7-Pad7)*%
X132800000Y-75830000D03*
%TO.P,U4,8,P1.06/AIN2*%
%TO.N,unconnected-(U4-P1.06{slash}AIN2-Pad8)*%
X132800000Y-76930000D03*
%TO.P,U4,9,P1.05/AIN1*%
%TO.N,unconnected-(U4-P1.05{slash}AIN1-Pad9)*%
X132800000Y-78030000D03*
%TO.P,U4,10,P1.02/NFC1*%
%TO.N,unconnected-(U4-P1.02{slash}NFC1-Pad10)*%
X132800000Y-79130000D03*
%TO.P,U4,11,P1.03/NFC2*%
%TO.N,unconnected-(U4-P1.03{slash}NFC2-Pad11)*%
X132800000Y-80240000D03*
%TO.P,U4,12,P1.04/AIN0*%
%TO.N,Net-(U4-P1.04{slash}AIN0)*%
X132800000Y-81340000D03*
%TO.P,U4,13,GND*%
%TO.N,GND*%
X132800000Y-82440000D03*
%TO.P,U4,14,VCC*%
%TO.N,+3V3*%
X132800000Y-83540000D03*
%TO.P,U4,15,NC*%
%TO.N,unconnected-(U4-NC-Pad15)*%
X149800000Y-83540000D03*
%TO.P,U4,16,NC*%
%TO.N,unconnected-(U4-NC-Pad16)*%
X149800000Y-82440000D03*
%TO.P,U4,17,NC*%
%TO.N,unconnected-(U4-NC-Pad17)*%
X149800000Y-81340000D03*
%TO.P,U4,18,P2.06*%
%TO.N,/INT_MAG{slash}DRDY*%
X149800000Y-80240000D03*
%TO.P,U4,19,P2.07*%
%TO.N,/SDI*%
X149800000Y-79130000D03*
%TO.P,U4,20,NRESET*%
%TO.N,/nRESET*%
X149800000Y-78030000D03*
%TO.P,U4,21,P2.09*%
%TO.N,/CS*%
X149800000Y-76930000D03*
%TO.P,U4,22,P2.10*%
%TO.N,/SPC*%
X149800000Y-75830000D03*
%TO.P,U4,23,P0.00*%
%TO.N,/INT1_XL*%
X149800000Y-74820000D03*
%TO.P,U4,24,P0.01*%
%TO.N,/INT2_XL*%
X149800000Y-73720000D03*
%TO.P,U4,25,SWDIO*%
%TO.N,/SWDIO*%
X149800000Y-72620000D03*
%TO.P,U4,26,SWDCLK*%
%TO.N,/SWCLK*%
X149800000Y-71520000D03*
%TO.P,U4,27,P0.02*%
%TO.N,unconnected-(U4-P0.02-Pad27)*%
X149800000Y-70410000D03*
%TO.P,U4,28,P0.03*%
%TO.N,unconnected-(U4-P0.03-Pad28)*%
X149800000Y-69310000D03*
%TD*%
D11*
%TO.P,C14,1*%
%TO.N,+3V3*%
X131770000Y-84935000D03*
%TO.P,C14,2*%
%TO.N,GND*%
X131770000Y-86485000D03*
%TD*%
D16*
%TO.P,R19,1*%
%TO.N,/SWCLK*%
X155100000Y-73075000D03*
%TO.P,R19,2*%
%TO.N,GND*%
X155100000Y-74725000D03*
%TD*%
D24*
%TO.P,J3,S1,SHIELD*%
%TO.N,Net-(J3-SHIELD)*%
X144782000Y-90945000D03*
D25*
X144782000Y-86745000D03*
D24*
X136142000Y-90945000D03*
D25*
X136142000Y-86745000D03*
%TD*%
D26*
%TO.N,GND*%
X155070000Y-86720000D03*
X155930000Y-78770000D03*
X125390000Y-75240000D03*
X153070000Y-78430000D03*
X131680000Y-87270000D03*
X123860000Y-78010000D03*
X138260000Y-76320000D03*
X153800000Y-82157500D03*
X143460000Y-85110000D03*
X124660000Y-85340000D03*
X138260000Y-75360000D03*
X131450000Y-69350000D03*
X141920000Y-83200000D03*
X127860000Y-82650000D03*
X152247282Y-85706641D03*
X123240000Y-75140000D03*
X151310000Y-78530000D03*
X143720170Y-80107527D03*
X146420000Y-85060000D03*
X154000000Y-74600000D03*
X139060000Y-80060000D03*
X126100000Y-77100000D03*
X127890000Y-73910000D03*
X153460000Y-84930000D03*
X137130000Y-82880000D03*
X146840000Y-79580000D03*
X138230000Y-78270000D03*
X134190000Y-82430000D03*
X151480000Y-82440000D03*
X141610000Y-81940000D03*
X146960000Y-86700000D03*
X122350000Y-75470000D03*
X141600000Y-79140000D03*
X131920000Y-90900000D03*
X132745000Y-88655000D03*
X136210000Y-81180000D03*
X140900000Y-79160000D03*
X151470000Y-83990000D03*
X158200000Y-79780000D03*
X138220000Y-77560000D03*
X153550000Y-69330000D03*
X154560000Y-78660000D03*
X151470000Y-83210000D03*
X136530000Y-85260000D03*
X150990000Y-89120000D03*
X156450000Y-76230000D03*
X140970000Y-81920000D03*
X154400000Y-80320000D03*
X122220000Y-76580000D03*
X129700000Y-88900000D03*
%TO.N,/nRESET*%
X156900000Y-74800000D03*
X148310000Y-78000000D03*
%TO.N,+5V*%
X155470000Y-90500000D03*
X142250000Y-88650000D03*
X148160000Y-81080000D03*
X157260000Y-90460000D03*
X153600000Y-91200000D03*
X138750000Y-88650000D03*
X146250000Y-84000000D03*
X153840000Y-84140000D03*
X148250000Y-79680000D03*
%TO.N,+3V3*%
X151600000Y-73900000D03*
X130740000Y-84580000D03*
X157700000Y-76600000D03*
X125500000Y-73500000D03*
X153320000Y-75550000D03*
X157120000Y-69360000D03*
X123830000Y-75750000D03*
X129000000Y-86600000D03*
X158250000Y-77780000D03*
X141180000Y-74550000D03*
X130989758Y-73045000D03*
X129487588Y-73036296D03*
X124290000Y-73150000D03*
%TO.N,Net-(U7-URx)*%
X127330000Y-70550000D03*
%TO.N,Net-(U7-UTx)*%
X128490000Y-72820000D03*
%TD*%
D27*
%TO.N,GND*%
X134180000Y-82440000D02*
X134190000Y-82430000D01*
X123880000Y-77990000D02*
X124645000Y-77990000D01*
X153262063Y-79137063D02*
X153262063Y-78622063D01*
X154525126Y-78625126D02*
X154560000Y-78660000D01*
X126100000Y-76560000D02*
X126075000Y-76535000D01*
X153555000Y-69590000D02*
X153555000Y-69335000D01*
X132800000Y-69310000D02*
X131490000Y-69310000D01*
X155680000Y-76230000D02*
X155675000Y-76225000D01*
X127860000Y-82650000D02*
X128190000Y-82980000D01*
X154775000Y-74600000D02*
X154900000Y-74725000D01*
X131680000Y-87270000D02*
X131680000Y-86575000D01*
X157050000Y-79750000D02*
X158170000Y-79750000D01*
X151405126Y-78625126D02*
X152250000Y-78625126D01*
X123240000Y-75140000D02*
X123240000Y-74345000D01*
X155350000Y-79350000D02*
X155930000Y-78770000D01*
X153774000Y-78625126D02*
X154525126Y-78625126D01*
X123240000Y-74345000D02*
X123205000Y-74310000D01*
X132800000Y-82440000D02*
X134180000Y-82440000D01*
X151310000Y-78530000D02*
X151405126Y-78625126D01*
X131490000Y-69310000D02*
X131450000Y-69350000D01*
X126070000Y-75240000D02*
X126075000Y-75235000D01*
X153630000Y-69665000D02*
X153555000Y-69590000D01*
X154000000Y-74600000D02*
X154775000Y-74600000D01*
X128190000Y-82980000D02*
X128800000Y-82980000D01*
X152820000Y-81980000D02*
X152775000Y-82025000D01*
X155200000Y-79350000D02*
X155350000Y-79350000D01*
X125390000Y-75240000D02*
X126070000Y-75240000D01*
X153800000Y-82157500D02*
X153622500Y-81980000D01*
X154900000Y-74725000D02*
X155100000Y-74725000D01*
X131680000Y-86575000D02*
X131770000Y-86485000D01*
X127890000Y-73910000D02*
X127890000Y-74120000D01*
X153070000Y-78430000D02*
X153240737Y-78600737D01*
X123860000Y-78010000D02*
X123880000Y-77990000D01*
X156450000Y-76230000D02*
X155680000Y-76230000D01*
X158170000Y-79750000D02*
X158200000Y-79780000D01*
X128125000Y-74355000D02*
X128125000Y-74585000D01*
X127890000Y-74120000D02*
X128125000Y-74355000D01*
X124645000Y-77990000D02*
X124700000Y-77935000D01*
X153555000Y-69335000D02*
X153550000Y-69330000D01*
X153262063Y-78622063D02*
X153070000Y-78430000D01*
X153240737Y-78600737D02*
X153240737Y-78920000D01*
X126100000Y-77100000D02*
X126100000Y-76560000D01*
X153622500Y-81980000D02*
X152820000Y-81980000D01*
%TO.N,/INT2_XL*%
X153262063Y-77094963D02*
X153262063Y-77613063D01*
X151200000Y-74500000D02*
X151200000Y-75032900D01*
X149800000Y-73720000D02*
X150420000Y-73720000D01*
X150420000Y-73720000D02*
X151200000Y-74500000D01*
X151200000Y-75032900D02*
X153262063Y-77094963D01*
%TO.N,/INT1_XL*%
X150420000Y-74820000D02*
X152761937Y-77161937D01*
X152761937Y-77161937D02*
X152761937Y-77613063D01*
X149800000Y-74820000D02*
X150420000Y-74820000D01*
%TO.N,Net-(U2-C1)*%
X152761937Y-80461937D02*
X152775000Y-80475000D01*
X152761937Y-79137063D02*
X152761937Y-80461937D01*
%TO.N,/CS*%
X149800000Y-76930000D02*
X150584826Y-76930000D01*
X151779826Y-78125000D02*
X152250000Y-78125000D01*
X150584826Y-76930000D02*
X151779826Y-78125000D01*
%TO.N,/INT_MAG{slash}DRDY*%
X151775000Y-81226000D02*
X153249110Y-81226000D01*
X150789000Y-80240000D02*
X151775000Y-81226000D01*
X153774000Y-80701110D02*
X153774000Y-79125252D01*
X149800000Y-80240000D02*
X150789000Y-80240000D01*
X153249110Y-81226000D02*
X153774000Y-80701110D01*
%TO.N,/SPC*%
X150455126Y-75830000D02*
X152250000Y-77624874D01*
X149800000Y-75830000D02*
X150455126Y-75830000D01*
%TO.N,/SDI*%
X152245252Y-79130000D02*
X152250000Y-79125252D01*
X149800000Y-79130000D02*
X152245252Y-79130000D01*
X149820189Y-79150189D02*
X149800000Y-79130000D01*
%TO.N,Net-(U4-P1.04{slash}AIN0)*%
X131220000Y-81340000D02*
X132800000Y-81340000D01*
X130400000Y-81330000D02*
X131210000Y-81330000D01*
X131210000Y-81330000D02*
X131220000Y-81340000D01*
X128800000Y-81330000D02*
X130400000Y-81330000D01*
%TO.N,/nRESET*%
X154825000Y-69590000D02*
X154900000Y-69665000D01*
X158211300Y-69451300D02*
X157510000Y-68750000D01*
X149770000Y-78000000D02*
X149800000Y-78030000D01*
X157700000Y-72000000D02*
X158211300Y-71488700D01*
X155430000Y-68750000D02*
X154825000Y-69355000D01*
X154825000Y-69355000D02*
X154825000Y-69590000D01*
X148310000Y-78000000D02*
X149770000Y-78000000D01*
X157700000Y-74000000D02*
X157700000Y-72000000D01*
X156900000Y-74800000D02*
X157700000Y-74000000D01*
X158211300Y-71488700D02*
X158211300Y-69451300D01*
X157510000Y-68750000D02*
X155430000Y-68750000D01*
%TO.N,/SWDIO*%
X152400000Y-73075000D02*
X152300000Y-72975000D01*
X150155000Y-72975000D02*
X149800000Y-72620000D01*
X152500000Y-72975000D02*
X152400000Y-73075000D01*
X149800000Y-72620000D02*
X150636990Y-72620000D01*
X156170000Y-73330000D02*
X155700000Y-73800000D01*
X153900000Y-73800000D02*
X153075000Y-72975000D01*
X152300000Y-72975000D02*
X150155000Y-72975000D01*
X155700000Y-73800000D02*
X153900000Y-73800000D01*
X153075000Y-72975000D02*
X152500000Y-72975000D01*
X156170000Y-70935000D02*
X156170000Y-73330000D01*
%TO.N,+V_bat*%
X130400000Y-83320000D02*
X130400000Y-82980000D01*
X129770000Y-84820000D02*
X129770000Y-83950000D01*
X147580000Y-89050000D02*
X147380000Y-89250000D01*
X132466000Y-85686000D02*
X130636000Y-85686000D01*
X130636000Y-85686000D02*
X129770000Y-84820000D01*
X136030000Y-89250000D02*
X132466000Y-85686000D01*
X129770000Y-83950000D02*
X130400000Y-83320000D01*
X147380000Y-89250000D02*
X136030000Y-89250000D01*
%TO.N,/SWCLK*%
X155100000Y-73075000D02*
X154900000Y-73075000D01*
X154825000Y-71010000D02*
X154900000Y-70935000D01*
X155100000Y-71135000D02*
X154900000Y-70935000D01*
X154375000Y-72975000D02*
X153600000Y-72200000D01*
X151080000Y-72200000D02*
X150400000Y-71520000D01*
X155100000Y-72875000D02*
X155100000Y-71135000D01*
X154900000Y-73075000D02*
X154800000Y-72975000D01*
X153600000Y-72200000D02*
X151080000Y-72200000D01*
X150400000Y-71520000D02*
X149800000Y-71520000D01*
X154800000Y-72975000D02*
X154375000Y-72975000D01*
%TO.N,+3V3*%
X124755000Y-74310000D02*
X125160000Y-74310000D01*
X132597500Y-84107500D02*
X131770000Y-84935000D01*
X156815000Y-69665000D02*
X157120000Y-69360000D01*
X124075000Y-76385000D02*
X124700000Y-76385000D01*
X125160000Y-74310000D02*
X125440000Y-74590000D01*
X129430000Y-74190000D02*
X129430000Y-73785000D01*
X125445000Y-74585000D02*
X126075000Y-74585000D01*
X129487588Y-73036296D02*
X129470000Y-73053884D01*
X157120000Y-77780000D02*
X157050000Y-77850000D01*
X155200000Y-77800000D02*
X157000000Y-77800000D01*
X125440000Y-74590000D02*
X125445000Y-74585000D01*
X129470000Y-73053884D02*
X129470000Y-73745000D01*
X152100000Y-73900000D02*
X152300000Y-74100000D01*
X132597500Y-83742500D02*
X132800000Y-83540000D01*
X153774000Y-78125000D02*
X154250000Y-78125000D01*
X152300000Y-74100000D02*
X152300000Y-74525000D01*
X125500000Y-73565000D02*
X124755000Y-74310000D01*
X131035000Y-84935000D02*
X131770000Y-84935000D01*
X153450000Y-75550000D02*
X154125000Y-76225000D01*
X152400000Y-74625000D02*
X152400000Y-74725000D01*
X130989758Y-73045000D02*
X130990000Y-73045242D01*
X123830000Y-76140000D02*
X124075000Y-76385000D01*
X156170000Y-69665000D02*
X156815000Y-69665000D01*
X154575000Y-77800000D02*
X155200000Y-77800000D01*
X130740000Y-84580000D02*
X130740000Y-84640000D01*
X130990000Y-73045242D02*
X130990000Y-73705000D01*
X125200000Y-75885000D02*
X126075000Y-75885000D01*
X128385000Y-75235000D02*
X129430000Y-74190000D01*
X154125000Y-76225000D02*
X154125000Y-76775000D01*
X129470000Y-73745000D02*
X129430000Y-73785000D01*
X157000000Y-77800000D02*
X157050000Y-77850000D01*
X153774000Y-77126000D02*
X153774000Y-77624874D01*
X128125000Y-75235000D02*
X128385000Y-75235000D01*
X123830000Y-75750000D02*
X123830000Y-76140000D01*
X154125000Y-76775000D02*
X153774000Y-77126000D01*
X132597500Y-84107500D02*
X132597500Y-83742500D01*
X151600000Y-73900000D02*
X152100000Y-73900000D01*
X152300000Y-74525000D02*
X152400000Y-74625000D01*
X157700000Y-76600000D02*
X157700000Y-75625000D01*
X125500000Y-73500000D02*
X125500000Y-73565000D01*
X154250000Y-78125000D02*
X154575000Y-77800000D01*
X130990000Y-73705000D02*
X131000000Y-73715000D01*
X153320000Y-75550000D02*
X153450000Y-75550000D01*
X158250000Y-77780000D02*
X157120000Y-77780000D01*
X130740000Y-84640000D02*
X131035000Y-84935000D01*
X124700000Y-76385000D02*
X125200000Y-75885000D01*
%TO.N,Net-(U7-URx)*%
X127360000Y-70520000D02*
X128480000Y-70520000D01*
X128500000Y-70500000D02*
X129175000Y-70500000D01*
X127330000Y-70550000D02*
X127360000Y-70520000D01*
X128480000Y-70520000D02*
X128500000Y-70500000D01*
%TO.N,Net-(U7-UTx)*%
X129140000Y-72105000D02*
X129175000Y-72070000D01*
X128490000Y-72820000D02*
X129140000Y-72170000D01*
X129140000Y-72170000D02*
X129140000Y-72105000D01*
%TO.N,/TX*%
X132710000Y-70500000D02*
X132800000Y-70410000D01*
X130825000Y-70500000D02*
X132710000Y-70500000D01*
%TO.N,/RX*%
X130825000Y-72070000D02*
X131375000Y-71520000D01*
X131375000Y-71520000D02*
X132800000Y-71520000D01*
X132720000Y-71600000D02*
X132800000Y-71520000D01*
%TO.N,/SCL*%
X132020000Y-74820000D02*
X132800000Y-74820000D01*
X128125000Y-76535000D02*
X129830000Y-76535000D01*
X129830000Y-76535000D02*
X131000000Y-75365000D01*
X131000000Y-75365000D02*
X131475000Y-75365000D01*
X131475000Y-75365000D02*
X132020000Y-74820000D01*
%TO.N,/SDA*%
X128125000Y-75885000D02*
X128980000Y-75885000D01*
X129430000Y-75435000D02*
X130201000Y-74664000D01*
X131364636Y-74664000D02*
X132308636Y-73720000D01*
X128980000Y-75885000D02*
X129430000Y-75435000D01*
X132308636Y-73720000D02*
X132800000Y-73720000D01*
X130201000Y-74664000D02*
X131364636Y-74664000D01*
X132720000Y-73800000D02*
X132800000Y-73720000D01*
%TD*%
M02*
