%TF.GenerationSoftware,KiCad,Pcbnew,9.0.0*%
%TF.CreationDate,2025-06-13T20:30:42+03:00*%
%TF.ProjectId,BLE_sensors,424c455f-7365-46e7-936f-72732e6b6963,rev?*%
%TF.SameCoordinates,Original*%
%TF.FileFunction,Copper,L4,Bot*%
%TF.FilePolarity,Positive*%
%FSLAX46Y46*%
G04 Gerber Fmt 4.6, Leading zero omitted, Abs format (unit mm)*
G04 Created by KiCad (PCBNEW 9.0.0) date 2025-06-13 20:30:42*
%MOMM*%
%LPD*%
G01*
G04 APERTURE LIST*
G04 Aperture macros list*
%AMRoundRect*
0 Rectangle with rounded corners*
0 $1 Rounding radius*
0 $2 $3 $4 $5 $6 $7 $8 $9 X,Y pos of 4 corners*
0 Add a 4 corners polygon primitive as box body*
4,1,4,$2,$3,$4,$5,$6,$7,$8,$9,$2,$3,0*
0 Add four circle primitives for the rounded corners*
1,1,$1+$1,$2,$3*
1,1,$1+$1,$4,$5*
1,1,$1+$1,$6,$7*
1,1,$1+$1,$8,$9*
0 Add four rect primitives between the rounded corners*
20,1,$1+$1,$2,$3,$4,$5,0*
20,1,$1+$1,$4,$5,$6,$7,0*
20,1,$1+$1,$6,$7,$8,$9,0*
20,1,$1+$1,$8,$9,$2,$3,0*%
G04 Aperture macros list end*
%TA.AperFunction,ComponentPad*%
%ADD10R,1.000000X1.000000*%
%TD*%
%TA.AperFunction,ComponentPad*%
%ADD11O,1.000000X1.000000*%
%TD*%
%TA.AperFunction,SMDPad,CuDef*%
%ADD12RoundRect,0.218750X-0.256250X0.218750X-0.256250X-0.218750X0.256250X-0.218750X0.256250X0.218750X0*%
%TD*%
%TA.AperFunction,SMDPad,CuDef*%
%ADD13RoundRect,0.200000X0.200000X0.275000X-0.200000X0.275000X-0.200000X-0.275000X0.200000X-0.275000X0*%
%TD*%
%TA.AperFunction,SMDPad,CuDef*%
%ADD14RoundRect,0.225000X0.225000X0.250000X-0.225000X0.250000X-0.225000X-0.250000X0.225000X-0.250000X0*%
%TD*%
%TA.AperFunction,SMDPad,CuDef*%
%ADD15RoundRect,0.200000X-0.200000X-0.275000X0.200000X-0.275000X0.200000X0.275000X-0.200000X0.275000X0*%
%TD*%
%TA.AperFunction,SMDPad,CuDef*%
%ADD16RoundRect,0.250000X1.075000X-0.375000X1.075000X0.375000X-1.075000X0.375000X-1.075000X-0.375000X0*%
%TD*%
%TA.AperFunction,SMDPad,CuDef*%
%ADD17R,0.600000X1.240000*%
%TD*%
%TA.AperFunction,SMDPad,CuDef*%
%ADD18R,0.300000X1.240000*%
%TD*%
%TA.AperFunction,HeatsinkPad*%
%ADD19O,1.000000X1.800000*%
%TD*%
%TA.AperFunction,HeatsinkPad*%
%ADD20O,1.000000X2.100000*%
%TD*%
%TA.AperFunction,SMDPad,CuDef*%
%ADD21RoundRect,0.225000X-0.250000X0.225000X-0.250000X-0.225000X0.250000X-0.225000X0.250000X0.225000X0*%
%TD*%
%TA.AperFunction,SMDPad,CuDef*%
%ADD22RoundRect,0.100000X-0.100000X0.637500X-0.100000X-0.637500X0.100000X-0.637500X0.100000X0.637500X0*%
%TD*%
%TA.AperFunction,SMDPad,CuDef*%
%ADD23RoundRect,0.200000X-0.275000X0.200000X-0.275000X-0.200000X0.275000X-0.200000X0.275000X0.200000X0*%
%TD*%
%TA.AperFunction,SMDPad,CuDef*%
%ADD24RoundRect,0.062500X-0.062500X0.350000X-0.062500X-0.350000X0.062500X-0.350000X0.062500X0.350000X0*%
%TD*%
%TA.AperFunction,SMDPad,CuDef*%
%ADD25RoundRect,0.062500X-0.350000X0.062500X-0.350000X-0.062500X0.350000X-0.062500X0.350000X0.062500X0*%
%TD*%
%TA.AperFunction,HeatsinkPad*%
%ADD26R,2.500000X2.500000*%
%TD*%
%TA.AperFunction,SMDPad,CuDef*%
%ADD27RoundRect,0.250000X0.250000X0.475000X-0.250000X0.475000X-0.250000X-0.475000X0.250000X-0.475000X0*%
%TD*%
%TA.AperFunction,SMDPad,CuDef*%
%ADD28RoundRect,0.225000X0.250000X-0.225000X0.250000X0.225000X-0.250000X0.225000X-0.250000X-0.225000X0*%
%TD*%
%TA.AperFunction,SMDPad,CuDef*%
%ADD29RoundRect,0.175000X0.325000X-0.175000X0.325000X0.175000X-0.325000X0.175000X-0.325000X-0.175000X0*%
%TD*%
%TA.AperFunction,SMDPad,CuDef*%
%ADD30RoundRect,0.150000X0.150000X-0.200000X0.150000X0.200000X-0.150000X0.200000X-0.150000X-0.200000X0*%
%TD*%
%TA.AperFunction,SMDPad,CuDef*%
%ADD31RoundRect,0.062500X0.350000X0.062500X-0.350000X0.062500X-0.350000X-0.062500X0.350000X-0.062500X0*%
%TD*%
%TA.AperFunction,HeatsinkPad*%
%ADD32R,1.200000X2.000000*%
%TD*%
%TA.AperFunction,ViaPad*%
%ADD33C,0.600000*%
%TD*%
%TA.AperFunction,Conductor*%
%ADD34C,0.200000*%
%TD*%
%TA.AperFunction,Conductor*%
%ADD35C,0.300000*%
%TD*%
G04 APERTURE END LIST*
D10*
%TO.P,J2,1,Pin_1*%
%TO.N,+V_bat*%
X147580000Y-89050000D03*
D11*
%TO.P,J2,2,Pin_2*%
%TO.N,GND*%
X148850000Y-89050000D03*
%TD*%
D12*
%TO.P,D2,1,K*%
%TO.N,Net-(D2-K)*%
X156270000Y-89665000D03*
%TO.P,D2,2,A*%
%TO.N,+5V*%
X156270000Y-91240000D03*
%TD*%
D13*
%TO.P,R9,1*%
%TO.N,Net-(J3-D--PadA7)*%
X134395000Y-84520000D03*
%TO.P,R9,2*%
%TO.N,/usb-c/Protected_D-*%
X132745000Y-84520000D03*
%TD*%
D12*
%TO.P,D1,1,K*%
%TO.N,Net-(D1-K)*%
X154470000Y-89665000D03*
%TO.P,D1,2,A*%
%TO.N,+5V*%
X154470000Y-91240000D03*
%TD*%
D14*
%TO.P,C11,1*%
%TO.N,Net-(U3-EN)*%
X138590000Y-81160000D03*
%TO.P,C11,2*%
%TO.N,GND*%
X137040000Y-81160000D03*
%TD*%
D15*
%TO.P,R13,1*%
%TO.N,GND*%
X132715000Y-90960000D03*
%TO.P,R13,2*%
%TO.N,Net-(J3-SHIELD)*%
X134365000Y-90960000D03*
%TD*%
%TO.P,R11,1*%
%TO.N,GND*%
X132745000Y-87720000D03*
%TO.P,R11,2*%
%TO.N,Net-(J3-CC2)*%
X134395000Y-87720000D03*
%TD*%
D16*
%TO.P,L1,1*%
%TO.N,Net-(U3-L1)*%
X144870000Y-81230000D03*
%TO.P,L1,2*%
%TO.N,Net-(U3-L2)*%
X144870000Y-78430000D03*
%TD*%
D14*
%TO.P,C7,1*%
%TO.N,+V_bat*%
X149415000Y-86680000D03*
%TO.P,C7,2*%
%TO.N,GND*%
X147865000Y-86680000D03*
%TD*%
D15*
%TO.P,R6,1*%
%TO.N,Net-(U5-STAT2)*%
X155065000Y-82890000D03*
%TO.P,R6,2*%
%TO.N,Net-(D2-K)*%
X156715000Y-82890000D03*
%TD*%
%TO.P,R5,1*%
%TO.N,Net-(U5-STAT1{slash}~{LBO})*%
X155055000Y-84440000D03*
%TO.P,R5,2*%
%TO.N,Net-(D1-K)*%
X156705000Y-84440000D03*
%TD*%
D17*
%TO.P,J3,A1,GND*%
%TO.N,GND*%
X143662000Y-86145000D03*
%TO.P,J3,A4,VBUS*%
%TO.N,+5V*%
X142862000Y-86145000D03*
D18*
%TO.P,J3,A5,CC1*%
%TO.N,Net-(J3-CC1)*%
X141712000Y-86145000D03*
%TO.P,J3,A6,D+*%
%TO.N,Net-(J3-D+-PadA6)*%
X140712000Y-86145000D03*
%TO.P,J3,A7,D-*%
%TO.N,Net-(J3-D--PadA7)*%
X140212000Y-86145000D03*
%TO.P,J3,A8,SBU1*%
%TO.N,unconnected-(J3-SBU1-PadA8)*%
X139212000Y-86145000D03*
D17*
%TO.P,J3,A9,VBUS*%
%TO.N,+5V*%
X138062000Y-86145000D03*
%TO.P,J3,A12,GND*%
%TO.N,GND*%
X137262000Y-86145000D03*
%TO.P,J3,B1,GND*%
X137262000Y-86145000D03*
%TO.P,J3,B4,VBUS*%
%TO.N,+5V*%
X138062000Y-86145000D03*
D18*
%TO.P,J3,B5,CC2*%
%TO.N,Net-(J3-CC2)*%
X138712000Y-86145000D03*
%TO.P,J3,B6,D+*%
%TO.N,Net-(J3-D+-PadA6)*%
X139712000Y-86145000D03*
%TO.P,J3,B7,D-*%
%TO.N,Net-(J3-D--PadA7)*%
X141212000Y-86145000D03*
%TO.P,J3,B8,SBU2*%
%TO.N,unconnected-(J3-SBU2-PadB8)*%
X142212000Y-86145000D03*
D17*
%TO.P,J3,B9,VBUS*%
%TO.N,+5V*%
X142862000Y-86145000D03*
%TO.P,J3,B12,GND*%
%TO.N,GND*%
X143662000Y-86145000D03*
D19*
%TO.P,J3,S1,SHIELD*%
%TO.N,Net-(J3-SHIELD)*%
X144782000Y-90945000D03*
D20*
X144782000Y-86745000D03*
D19*
X136142000Y-90945000D03*
D20*
X136142000Y-86745000D03*
%TD*%
D13*
%TO.P,R8,1*%
%TO.N,Net-(J3-D+-PadA6)*%
X134395000Y-86170000D03*
%TO.P,R8,2*%
%TO.N,/usb-c/Protected_D+*%
X132745000Y-86170000D03*
%TD*%
D21*
%TO.P,C9,1*%
%TO.N,+5V*%
X147295000Y-83525000D03*
%TO.P,C9,2*%
%TO.N,GND*%
X147295000Y-85075000D03*
%TD*%
D12*
%TO.P,D3,1,K*%
%TO.N,Net-(D3-K)*%
X158080000Y-89685000D03*
%TO.P,D3,2,A*%
%TO.N,+5V*%
X158080000Y-91260000D03*
%TD*%
D22*
%TO.P,U7,1,VDD*%
%TO.N,+3V3*%
X124730000Y-78387500D03*
%TO.P,U7,2,GP0*%
%TO.N,unconnected-(U7-GP0-Pad2)*%
X125380000Y-78387500D03*
%TO.P,U7,3,GP1*%
%TO.N,unconnected-(U7-GP1-Pad3)*%
X126030000Y-78387500D03*
%TO.P,U7,4,~{RST}*%
%TO.N,unconnected-(U7-~{RST}-Pad4)*%
X126680000Y-78387500D03*
%TO.P,U7,5,URx*%
%TO.N,Net-(U7-URx)*%
X127330000Y-78387500D03*
%TO.P,U7,6,UTx*%
%TO.N,Net-(U7-UTx)*%
X127980000Y-78387500D03*
%TO.P,U7,7,GP2*%
%TO.N,unconnected-(U7-GP2-Pad7)*%
X128630000Y-78387500D03*
%TO.P,U7,8,GP3*%
%TO.N,unconnected-(U7-GP3-Pad8)*%
X128630000Y-84112500D03*
%TO.P,U7,9,SDA*%
%TO.N,unconnected-(U7-SDA-Pad9)*%
X127980000Y-84112500D03*
%TO.P,U7,10,SCL*%
%TO.N,unconnected-(U7-SCL-Pad10)*%
X127330000Y-84112500D03*
%TO.P,U7,11,VUSB*%
%TO.N,+3V3*%
X126680000Y-84112500D03*
%TO.P,U7,12,D-*%
%TO.N,/usb-c/Protected_D-*%
X126030000Y-84112500D03*
%TO.P,U7,13,D+*%
%TO.N,/usb-c/Protected_D+*%
X125380000Y-84112500D03*
%TO.P,U7,14,VSS*%
%TO.N,GND*%
X124730000Y-84112500D03*
%TD*%
D15*
%TO.P,TH1,1*%
%TO.N,Net-(U5-THERM)*%
X151840000Y-79820000D03*
%TO.P,TH1,2*%
%TO.N,GND*%
X153490000Y-79820000D03*
%TD*%
D23*
%TO.P,R3,1*%
%TO.N,Net-(U5-PROG1)*%
X150990000Y-86645000D03*
%TO.P,R3,2*%
%TO.N,GND*%
X150990000Y-88295000D03*
%TD*%
D24*
%TO.P,U5,1,OUT*%
%TO.N,/PWR_SUPPLY/Buck-Boost/Vin*%
X149725000Y-81320000D03*
%TO.P,U5,2,VPCC*%
%TO.N,+5V*%
X150225000Y-81320000D03*
%TO.P,U5,3,SEL*%
%TO.N,GND*%
X150725000Y-81320000D03*
%TO.P,U5,4,PROG2*%
%TO.N,+5V*%
X151225000Y-81320000D03*
%TO.P,U5,5,THERM*%
%TO.N,Net-(U5-THERM)*%
X151725000Y-81320000D03*
D25*
%TO.P,U5,6,~{PG}*%
%TO.N,Net-(U5-~{PG})*%
X152662500Y-82257500D03*
%TO.P,U5,7,STAT2*%
%TO.N,Net-(U5-STAT2)*%
X152662500Y-82757500D03*
%TO.P,U5,8,STAT1/~{LBO}*%
%TO.N,Net-(U5-STAT1{slash}~{LBO})*%
X152662500Y-83257500D03*
%TO.P,U5,9,~{TE}*%
%TO.N,+5V*%
X152662500Y-83757500D03*
%TO.P,U5,10,V_{SS}*%
%TO.N,GND*%
X152662500Y-84257500D03*
D24*
%TO.P,U5,11,V_{SS}*%
X151725000Y-85195000D03*
%TO.P,U5,12,PROG3*%
%TO.N,Net-(U5-PROG3)*%
X151225000Y-85195000D03*
%TO.P,U5,13,PROG1*%
%TO.N,Net-(U5-PROG1)*%
X150725000Y-85195000D03*
%TO.P,U5,14,V_{BAT}*%
%TO.N,+V_bat*%
X150225000Y-85195000D03*
%TO.P,U5,15,V_{BAT}*%
X149725000Y-85195000D03*
D25*
%TO.P,U5,16,V_{BAT_SENSE}*%
X148787500Y-84257500D03*
%TO.P,U5,17,CE*%
%TO.N,+5V*%
X148787500Y-83757500D03*
%TO.P,U5,18,IN*%
X148787500Y-83257500D03*
%TO.P,U5,19,IN*%
X148787500Y-82757500D03*
%TO.P,U5,20,OUT*%
%TO.N,/PWR_SUPPLY/Buck-Boost/Vin*%
X148787500Y-82257500D03*
D26*
%TO.P,U5,21,V_{SS}*%
%TO.N,GND*%
X150725000Y-83257500D03*
%TD*%
D27*
%TO.P,C17,1*%
%TO.N,+3V3*%
X124290000Y-74330000D03*
%TO.P,C17,2*%
%TO.N,GND*%
X122390000Y-74330000D03*
%TD*%
%TO.P,C12,1*%
%TO.N,+3V3*%
X141190000Y-77860000D03*
%TO.P,C12,2*%
%TO.N,GND*%
X139290000Y-77860000D03*
%TD*%
D15*
%TO.P,R7,1*%
%TO.N,Net-(U5-~{PG})*%
X155065000Y-81290000D03*
%TO.P,R7,2*%
%TO.N,Net-(D3-K)*%
X156715000Y-81290000D03*
%TD*%
D27*
%TO.P,C13,1*%
%TO.N,+3V3*%
X141180000Y-75800000D03*
%TO.P,C13,2*%
%TO.N,GND*%
X139280000Y-75800000D03*
%TD*%
D14*
%TO.P,C16,1*%
%TO.N,+3V3*%
X124555000Y-76580000D03*
%TO.P,C16,2*%
%TO.N,GND*%
X123005000Y-76580000D03*
%TD*%
D28*
%TO.P,C8,1*%
%TO.N,/PWR_SUPPLY/Buck-Boost/Vin*%
X147300000Y-81995000D03*
%TO.P,C8,2*%
%TO.N,GND*%
X147300000Y-80445000D03*
%TD*%
D29*
%TO.P,D4,1,GND*%
%TO.N,GND*%
X129700000Y-88130000D03*
D30*
%TO.P,D4,2,I/O1*%
%TO.N,/usb-c/Protected_D+*%
X128000000Y-88130000D03*
%TO.P,D4,3,I/O2*%
%TO.N,/usb-c/Protected_D-*%
X128000000Y-86130000D03*
%TO.P,D4,4,VCC*%
%TO.N,+3V3*%
X129900000Y-86130000D03*
%TD*%
D31*
%TO.P,U3,1,VOUT*%
%TO.N,+3V3*%
X142470000Y-79580000D03*
%TO.P,U3,2,L2*%
%TO.N,Net-(U3-L2)*%
X142470000Y-80080000D03*
%TO.P,U3,3,PGND*%
%TO.N,GND*%
X142470000Y-80580000D03*
%TO.P,U3,4,L1*%
%TO.N,Net-(U3-L1)*%
X142470000Y-81080000D03*
%TO.P,U3,5,VIN*%
%TO.N,/PWR_SUPPLY/Buck-Boost/Vin*%
X142470000Y-81580000D03*
%TO.P,U3,6,EN*%
%TO.N,Net-(U3-EN)*%
X140045000Y-81580000D03*
%TO.P,U3,7,PS/SYNC*%
X140045000Y-81080000D03*
%TO.P,U3,8,VINA*%
X140045000Y-80580000D03*
%TO.P,U3,9,GND*%
%TO.N,GND*%
X140045000Y-80080000D03*
%TO.P,U3,10,FB*%
%TO.N,+3V3*%
X140045000Y-79580000D03*
D32*
%TO.P,U3,11,PGND*%
%TO.N,GND*%
X141257500Y-80580000D03*
%TD*%
D15*
%TO.P,R4,1*%
%TO.N,Net-(U5-PROG3)*%
X152625000Y-86660000D03*
%TO.P,R4,2*%
%TO.N,GND*%
X154275000Y-86660000D03*
%TD*%
D27*
%TO.P,C10,1*%
%TO.N,/PWR_SUPPLY/Buck-Boost/Vin*%
X142970000Y-83160000D03*
%TO.P,C10,2*%
%TO.N,GND*%
X141070000Y-83160000D03*
%TD*%
D15*
%TO.P,R12,1*%
%TO.N,GND*%
X137915000Y-82930000D03*
%TO.P,R12,2*%
%TO.N,Net-(J3-CC1)*%
X139565000Y-82930000D03*
%TD*%
D33*
%TO.N,GND*%
X155070000Y-86720000D03*
X155930000Y-78770000D03*
X125390000Y-75240000D03*
X153070000Y-78430000D03*
X131680000Y-87270000D03*
X123860000Y-78010000D03*
X138260000Y-76320000D03*
X153800000Y-82157500D03*
X143460000Y-85110000D03*
X124660000Y-85340000D03*
X138260000Y-75360000D03*
X131450000Y-69350000D03*
X141920000Y-83200000D03*
X127860000Y-82650000D03*
X152247282Y-85706641D03*
X123240000Y-75140000D03*
X151310000Y-78530000D03*
X143720170Y-80107527D03*
X146420000Y-85060000D03*
X154000000Y-74600000D03*
X139060000Y-80060000D03*
X126100000Y-77100000D03*
X127890000Y-73910000D03*
X153460000Y-84930000D03*
X137130000Y-82880000D03*
X146840000Y-79580000D03*
X138230000Y-78270000D03*
X134190000Y-82430000D03*
X151480000Y-82440000D03*
X141610000Y-81940000D03*
X146960000Y-86700000D03*
X122350000Y-75470000D03*
X141600000Y-79140000D03*
X131920000Y-90900000D03*
X132745000Y-88655000D03*
X136210000Y-81180000D03*
X140900000Y-79160000D03*
X151470000Y-83990000D03*
X158200000Y-79780000D03*
X138220000Y-77560000D03*
X153550000Y-69330000D03*
X154560000Y-78660000D03*
X151470000Y-83210000D03*
X136530000Y-85260000D03*
X150990000Y-89120000D03*
X156450000Y-76230000D03*
X140970000Y-81920000D03*
X154400000Y-80320000D03*
X122220000Y-76580000D03*
X129700000Y-88900000D03*
%TO.N,/nRESET*%
X156900000Y-74800000D03*
X148310000Y-78000000D03*
%TO.N,+5V*%
X155470000Y-90500000D03*
X142250000Y-88650000D03*
X148160000Y-81080000D03*
X157260000Y-90460000D03*
X153600000Y-91200000D03*
X138750000Y-88650000D03*
X146250000Y-84000000D03*
X153840000Y-84140000D03*
X148250000Y-79680000D03*
%TO.N,+3V3*%
X151600000Y-73900000D03*
X130740000Y-84580000D03*
X157700000Y-76600000D03*
X125500000Y-73500000D03*
X153320000Y-75550000D03*
X157120000Y-69360000D03*
X123830000Y-75750000D03*
X129000000Y-86600000D03*
X158250000Y-77780000D03*
X141180000Y-74550000D03*
X130989758Y-73045000D03*
X129487588Y-73036296D03*
X124290000Y-73150000D03*
%TO.N,Net-(U7-URx)*%
X127330000Y-70550000D03*
%TO.N,Net-(U7-UTx)*%
X128490000Y-72820000D03*
%TD*%
D34*
%TO.N,GND*%
X139060000Y-80060000D02*
X140025000Y-80060000D01*
X138260000Y-75360000D02*
X138840000Y-75360000D01*
X146435000Y-85075000D02*
X146420000Y-85060000D01*
X136620000Y-85350000D02*
X137190000Y-85350000D01*
X129700000Y-88900000D02*
X129700000Y-88130000D01*
X138220000Y-77560000D02*
X138990000Y-77560000D01*
X150725000Y-83257500D02*
X150767500Y-83257500D01*
X141880000Y-83160000D02*
X141920000Y-83200000D01*
X143247697Y-80580000D02*
X142470000Y-80580000D01*
X143720170Y-80107527D02*
X143247697Y-80580000D01*
X138880000Y-78270000D02*
X139290000Y-77860000D01*
X153460000Y-84930000D02*
X153190000Y-84930000D01*
X152247282Y-85706641D02*
X152247282Y-85482282D01*
X153190000Y-84930000D02*
X152662500Y-84402500D01*
X154275000Y-86660000D02*
X155010000Y-86660000D01*
X141600000Y-79140000D02*
X141600000Y-80237500D01*
X143730000Y-86077000D02*
X143662000Y-86145000D01*
X150725000Y-81320000D02*
X150725000Y-83257500D01*
X138230000Y-78270000D02*
X138880000Y-78270000D01*
X124660000Y-85340000D02*
X124660000Y-84182500D01*
X147865000Y-86680000D02*
X146980000Y-86680000D01*
X152247282Y-85482282D02*
X151960000Y-85195000D01*
X138760000Y-76320000D02*
X139280000Y-75800000D01*
X147300000Y-80040000D02*
X147300000Y-80445000D01*
X143730000Y-85380000D02*
X143730000Y-86077000D01*
X147295000Y-85075000D02*
X146435000Y-85075000D01*
X140025000Y-80060000D02*
X140045000Y-80080000D01*
X154400000Y-80320000D02*
X154400000Y-80230000D01*
X137262000Y-85422000D02*
X137262000Y-86145000D01*
X141600000Y-80237500D02*
X141257500Y-80580000D01*
X132745000Y-88655000D02*
X132745000Y-87720000D01*
X137180000Y-82930000D02*
X137130000Y-82880000D01*
X137020000Y-81180000D02*
X137040000Y-81160000D01*
X143460000Y-85110000D02*
X143730000Y-85380000D01*
X154400000Y-80230000D02*
X153990000Y-79820000D01*
X124660000Y-84182500D02*
X124730000Y-84112500D01*
X140970000Y-80867500D02*
X141257500Y-80580000D01*
X153990000Y-79820000D02*
X153490000Y-79820000D01*
X146980000Y-86680000D02*
X146960000Y-86700000D01*
X132655000Y-90900000D02*
X132715000Y-90960000D01*
X141610000Y-81940000D02*
X141610000Y-80932500D01*
X122350000Y-75470000D02*
X122350000Y-74370000D01*
X138840000Y-75360000D02*
X139280000Y-75800000D01*
X138990000Y-77560000D02*
X139290000Y-77860000D01*
X152662500Y-84402500D02*
X152662500Y-84257500D01*
X146840000Y-79580000D02*
X147300000Y-80040000D01*
X141070000Y-83160000D02*
X141880000Y-83160000D01*
X131920000Y-90900000D02*
X132655000Y-90900000D01*
X141610000Y-80932500D02*
X141257500Y-80580000D01*
X151960000Y-85195000D02*
X151725000Y-85195000D01*
X122220000Y-76580000D02*
X123005000Y-76580000D01*
X138260000Y-76320000D02*
X138760000Y-76320000D01*
X137190000Y-85350000D02*
X137262000Y-85422000D01*
X136530000Y-85260000D02*
X136620000Y-85350000D01*
X137915000Y-82930000D02*
X137180000Y-82930000D01*
X140970000Y-81920000D02*
X140970000Y-80867500D01*
X150990000Y-88295000D02*
X150990000Y-89120000D01*
X140900000Y-79160000D02*
X140900000Y-80222500D01*
X140900000Y-80222500D02*
X141257500Y-80580000D01*
X155010000Y-86660000D02*
X155070000Y-86720000D01*
X136210000Y-81180000D02*
X137020000Y-81180000D01*
%TO.N,/usb-c/Protected_D-*%
X128850000Y-85280000D02*
X128000000Y-86130000D01*
X131930000Y-84520000D02*
X131170000Y-85280000D01*
X126030000Y-84849999D02*
X127310001Y-86130000D01*
X131170000Y-85280000D02*
X128850000Y-85280000D01*
X127310001Y-86130000D02*
X128000000Y-86130000D01*
X126030000Y-84112500D02*
X126030000Y-84849999D01*
X132745000Y-84520000D02*
X131930000Y-84520000D01*
%TO.N,/usb-c/Protected_D+*%
X128830000Y-87300000D02*
X128000000Y-88130000D01*
X125380000Y-84112500D02*
X125380000Y-85510000D01*
X130330000Y-87300000D02*
X128830000Y-87300000D01*
X132745000Y-86170000D02*
X131460000Y-86170000D01*
X131460000Y-86170000D02*
X130330000Y-87300000D01*
X125380000Y-84112500D02*
X125305000Y-84187500D01*
X125380000Y-85510000D02*
X128000000Y-88130000D01*
%TO.N,+V_bat*%
X149415000Y-86680000D02*
X149490000Y-86680000D01*
X147580000Y-89050000D02*
X149415000Y-87215000D01*
X150225000Y-85195000D02*
X149725000Y-85195000D01*
X150225000Y-85945000D02*
X150225000Y-85195000D01*
X148787500Y-84597500D02*
X149385000Y-85195000D01*
X149725000Y-85195000D02*
X149385000Y-85195000D01*
X149490000Y-86680000D02*
X150225000Y-85945000D01*
X149415000Y-87215000D02*
X149415000Y-86680000D01*
X148787500Y-84257500D02*
X148787500Y-84597500D01*
%TO.N,/PWR_SUPPLY/Buck-Boost/Vin*%
X147982500Y-82257500D02*
X148787500Y-82257500D01*
X149320000Y-81320000D02*
X149725000Y-81320000D01*
X147300000Y-81995000D02*
X146815000Y-81995000D01*
X142470000Y-82660000D02*
X142970000Y-83160000D01*
X146815000Y-81995000D02*
X145650000Y-83160000D01*
X147695000Y-81995000D02*
X147970000Y-82270000D01*
X147300000Y-81995000D02*
X147695000Y-81995000D01*
X145650000Y-83160000D02*
X142970000Y-83160000D01*
X147970000Y-82270000D02*
X147982500Y-82257500D01*
X148787500Y-81852500D02*
X149320000Y-81320000D01*
X148787500Y-82257500D02*
X148787500Y-81852500D01*
X142470000Y-81580000D02*
X142470000Y-82660000D01*
D35*
%TO.N,+5V*%
X148787500Y-83757500D02*
X148787500Y-83257500D01*
D34*
X150210000Y-81305000D02*
X150225000Y-81320000D01*
X155530000Y-90500000D02*
X156270000Y-91240000D01*
X155470000Y-90500000D02*
X155530000Y-90500000D01*
X151225000Y-80685000D02*
X151225000Y-81320000D01*
X138062000Y-86692000D02*
X138062000Y-86145000D01*
X148250000Y-79680000D02*
X148580000Y-80010000D01*
X142250000Y-87577000D02*
X142862000Y-86965000D01*
X142862000Y-86748000D02*
X142862000Y-86145000D01*
X138750000Y-87380000D02*
X138062000Y-86692000D01*
X153600000Y-91200000D02*
X154430000Y-91200000D01*
X148580000Y-80010000D02*
X150550000Y-80010000D01*
X146725000Y-83525000D02*
X147295000Y-83525000D01*
X142250000Y-88650000D02*
X142250000Y-87577000D01*
D35*
X148787500Y-82757500D02*
X148787500Y-83257500D01*
D34*
X153840000Y-84140000D02*
X153440000Y-83740000D01*
X149939798Y-80606500D02*
X150225000Y-80891702D01*
X157260000Y-90460000D02*
X157280000Y-90460000D01*
X150550000Y-80010000D02*
X151225000Y-80685000D01*
X152680000Y-83740000D02*
X152662500Y-83757500D01*
X148160000Y-80910000D02*
X148463500Y-80606500D01*
D35*
X148787500Y-83257500D02*
X147562500Y-83257500D01*
D34*
X138750000Y-88650000D02*
X138750000Y-87380000D01*
X157280000Y-90460000D02*
X158080000Y-91260000D01*
X150225000Y-80891702D02*
X150225000Y-81320000D01*
X148463500Y-80606500D02*
X149939798Y-80606500D01*
X148160000Y-81080000D02*
X148160000Y-80910000D01*
X146250000Y-84000000D02*
X146725000Y-83525000D01*
X154430000Y-91200000D02*
X154470000Y-91240000D01*
X142862000Y-86965000D02*
X142862000Y-86145000D01*
X153440000Y-83740000D02*
X152680000Y-83740000D01*
%TO.N,+3V3*%
X124290000Y-73150000D02*
X124290000Y-74330000D01*
X141180000Y-75800000D02*
X141180000Y-77850000D01*
X124535000Y-76557500D02*
X124730000Y-76752500D01*
X124730000Y-76752500D02*
X124730000Y-78387500D01*
X141180000Y-77850000D02*
X141190000Y-77860000D01*
X141570000Y-75410000D02*
X141180000Y-75800000D01*
X124580000Y-74820000D02*
X124535000Y-74865000D01*
X124555000Y-74595000D02*
X124290000Y-74330000D01*
X142470000Y-79140000D02*
X142470000Y-79580000D01*
X141180000Y-74550000D02*
X141180000Y-75800000D01*
X124730000Y-79860000D02*
X126680000Y-81810000D01*
X124555000Y-76580000D02*
X124555000Y-74595000D01*
X141190000Y-77860000D02*
X142470000Y-79140000D01*
X129000000Y-86600000D02*
X129470000Y-86130000D01*
X140045000Y-79005000D02*
X140045000Y-79580000D01*
X141190000Y-77860000D02*
X140045000Y-79005000D01*
X129470000Y-86130000D02*
X129900000Y-86130000D01*
X126680000Y-81810000D02*
X126680000Y-84112500D01*
X124730000Y-78387500D02*
X124730000Y-79860000D01*
%TO.N,Net-(U3-L1)*%
X144640000Y-81000000D02*
X144870000Y-81230000D01*
X142470000Y-81080000D02*
X144542500Y-81080000D01*
X144622500Y-81000000D02*
X144640000Y-81000000D01*
X144542500Y-81080000D02*
X144622500Y-81000000D01*
%TO.N,Net-(U3-EN)*%
X140045000Y-81080000D02*
X138670000Y-81080000D01*
X140045000Y-81580000D02*
X140045000Y-81080000D01*
X140045000Y-81080000D02*
X140045000Y-80580000D01*
X138670000Y-81080000D02*
X138590000Y-81160000D01*
%TO.N,Net-(U3-L2)*%
X144548298Y-78430000D02*
X144870000Y-78430000D01*
X142898298Y-80080000D02*
X144548298Y-78430000D01*
X142470000Y-80080000D02*
X142898298Y-80080000D01*
%TO.N,Net-(U5-~{PG})*%
X153340000Y-81290000D02*
X152662500Y-81967500D01*
X152662500Y-81967500D02*
X152662500Y-82257500D01*
X155065000Y-81290000D02*
X153340000Y-81290000D01*
%TO.N,Net-(U5-PROG1)*%
X150725000Y-86380000D02*
X150725000Y-85195000D01*
X150990000Y-86645000D02*
X150725000Y-86380000D01*
%TO.N,Net-(U5-STAT2)*%
X153960000Y-82757500D02*
X152662500Y-82757500D01*
X155065000Y-82890000D02*
X154092500Y-82890000D01*
X154092500Y-82890000D02*
X153960000Y-82757500D01*
%TO.N,Net-(U5-PROG3)*%
X151225000Y-85195000D02*
X151225000Y-85623298D01*
X152261702Y-86660000D02*
X152625000Y-86660000D01*
X151225000Y-85623298D02*
X152261702Y-86660000D01*
%TO.N,Net-(U5-STAT1{slash}~{LBO})*%
X153897500Y-83257500D02*
X152662500Y-83257500D01*
X155055000Y-84415000D02*
X153897500Y-83257500D01*
X155055000Y-84440000D02*
X155055000Y-84415000D01*
%TO.N,Net-(U5-THERM)*%
X151725000Y-79935000D02*
X151840000Y-79820000D01*
X151725000Y-81320000D02*
X151725000Y-79935000D01*
%TO.N,Net-(U7-URx)*%
X127330000Y-77140000D02*
X127240000Y-77050000D01*
X127240000Y-70640000D02*
X127330000Y-70550000D01*
X127240000Y-77050000D02*
X127240000Y-70640000D01*
X127330000Y-78387500D02*
X127330000Y-77140000D01*
%TO.N,Net-(U7-UTx)*%
X127980000Y-77430000D02*
X127980000Y-78387500D01*
X128490000Y-72820000D02*
X128490000Y-76920000D01*
X128490000Y-76920000D02*
X127980000Y-77430000D01*
%TO.N,Net-(D1-K)*%
X154470000Y-88560000D02*
X156665000Y-86365000D01*
X154470000Y-89665000D02*
X154470000Y-88560000D01*
X156665000Y-86365000D02*
X156665000Y-84480000D01*
X156665000Y-84480000D02*
X156705000Y-84440000D01*
%TO.N,Net-(D2-K)*%
X157520000Y-83225000D02*
X157175000Y-82880000D01*
X156725000Y-82880000D02*
X156715000Y-82890000D01*
X157520000Y-87220000D02*
X157520000Y-83225000D01*
X157175000Y-82880000D02*
X156725000Y-82880000D01*
X156270000Y-89665000D02*
X156270000Y-88470000D01*
X156270000Y-88470000D02*
X157520000Y-87220000D01*
%TO.N,Net-(D3-K)*%
X158080000Y-89685000D02*
X158090000Y-89675000D01*
X158090000Y-82665000D02*
X156715000Y-81290000D01*
X158090000Y-89675000D02*
X158090000Y-82665000D01*
%TO.N,Net-(J3-D--PadA7)*%
X141212000Y-85342000D02*
X141212000Y-86145000D01*
X140212000Y-85434500D02*
X140212000Y-86145000D01*
X138816100Y-83810000D02*
X135105000Y-83810000D01*
X139523050Y-84516950D02*
X138816100Y-83810000D01*
X140590000Y-84720000D02*
X141212000Y-85342000D01*
X140212000Y-85434500D02*
X140212000Y-85205900D01*
X135105000Y-83810000D02*
X134395000Y-84520000D01*
X139928050Y-84921950D02*
X140182600Y-85176500D01*
X139523050Y-84516950D02*
X139726100Y-84720000D01*
X139928050Y-84921950D02*
X139523050Y-84516950D01*
X140212000Y-85205900D02*
X139928050Y-84921950D01*
X139726100Y-84720000D02*
X140590000Y-84720000D01*
%TO.N,Net-(J3-SHIELD)*%
X144782000Y-90945000D02*
X136142000Y-90945000D01*
X136142000Y-86745000D02*
X136142000Y-90945000D01*
X144782000Y-90945000D02*
X144782000Y-86745000D01*
X134365000Y-90960000D02*
X136127000Y-90960000D01*
X136127000Y-90960000D02*
X136142000Y-90945000D01*
%TO.N,Net-(J3-D+-PadA6)*%
X134395000Y-85845000D02*
X134395000Y-86170000D01*
X140010000Y-87200000D02*
X139712000Y-86902000D01*
X140712000Y-86145000D02*
X140712000Y-86949900D01*
X138650000Y-84211000D02*
X136029000Y-84211000D01*
X140461900Y-87200000D02*
X140010000Y-87200000D01*
X139712000Y-86145000D02*
X139712000Y-85273000D01*
X140712000Y-86949900D02*
X140461900Y-87200000D01*
X139712000Y-85273000D02*
X138650000Y-84211000D01*
X139712000Y-86902000D02*
X139712000Y-86145000D01*
X136029000Y-84211000D02*
X134395000Y-85845000D01*
%TO.N,Net-(J3-CC1)*%
X141712000Y-85273000D02*
X140759000Y-84320000D01*
X139570000Y-83470000D02*
X139570000Y-83131000D01*
X139565000Y-83126000D02*
X139565000Y-82930000D01*
X140759000Y-84320000D02*
X140420000Y-84320000D01*
X141712000Y-86145000D02*
X141712000Y-85273000D01*
X140420000Y-84320000D02*
X139570000Y-83470000D01*
X139570000Y-83131000D02*
X139565000Y-83126000D01*
%TO.N,Net-(J3-CC2)*%
X135096000Y-85711100D02*
X135096000Y-86658064D01*
X138712000Y-85273000D02*
X138051000Y-84612000D01*
X138712000Y-86145000D02*
X138712000Y-85273000D01*
X136195100Y-84612000D02*
X135096000Y-85711100D01*
X135096000Y-86658064D02*
X135096000Y-87019000D01*
X138051000Y-84612000D02*
X136195100Y-84612000D01*
X135096000Y-87019000D02*
X134395000Y-87720000D01*
%TD*%
%TA.AperFunction,Conductor*%
%TO.N,+V_bat*%
G36*
X150243039Y-86019685D02*
G01*
X150288794Y-86072489D01*
X150300000Y-86124000D01*
X150300000Y-87926000D01*
X150280315Y-87993039D01*
X150227511Y-88038794D01*
X150176000Y-88050000D01*
X148150000Y-88050000D01*
X148150000Y-88978493D01*
X148149500Y-88981007D01*
X148149500Y-89118993D01*
X148150000Y-89121506D01*
X148150000Y-90376000D01*
X148130315Y-90443039D01*
X148077511Y-90488794D01*
X148026000Y-90500000D01*
X146224000Y-90500000D01*
X146156961Y-90480315D01*
X146111206Y-90427511D01*
X146100000Y-90376000D01*
X146100000Y-87524000D01*
X146119685Y-87456961D01*
X146172489Y-87411206D01*
X146224000Y-87400000D01*
X148600000Y-87400000D01*
X148600000Y-86124000D01*
X148619685Y-86056961D01*
X148672489Y-86011206D01*
X148724000Y-86000000D01*
X150176000Y-86000000D01*
X150243039Y-86019685D01*
G37*
%TD.AperFunction*%
%TD*%
M02*
