%TF.GenerationSoftware,KiCad,Pcbnew,9.0.0*%
%TF.CreationDate,2025-06-13T20:30:42+03:00*%
%TF.ProjectId,BLE_sensors,424c455f-7365-46e7-936f-72732e6b6963,rev?*%
%TF.SameCoordinates,Original*%
%TF.FileFunction,Legend,Bot*%
%TF.FilePolarity,Positive*%
%FSLAX46Y46*%
G04 Gerber Fmt 4.6, Leading zero omitted, Abs format (unit mm)*
G04 Created by KiCad (PCBNEW 9.0.0) date 2025-06-13 20:30:42*
%MOMM*%
%LPD*%
G01*
G04 APERTURE LIST*
%ADD10C,0.150000*%
%ADD11C,0.120000*%
G04 APERTURE END LIST*
D10*
X156774819Y-87251905D02*
X155774819Y-87251905D01*
X155774819Y-87251905D02*
X155774819Y-87490000D01*
X155774819Y-87490000D02*
X155822438Y-87632857D01*
X155822438Y-87632857D02*
X155917676Y-87728095D01*
X155917676Y-87728095D02*
X156012914Y-87775714D01*
X156012914Y-87775714D02*
X156203390Y-87823333D01*
X156203390Y-87823333D02*
X156346247Y-87823333D01*
X156346247Y-87823333D02*
X156536723Y-87775714D01*
X156536723Y-87775714D02*
X156631961Y-87728095D01*
X156631961Y-87728095D02*
X156727200Y-87632857D01*
X156727200Y-87632857D02*
X156774819Y-87490000D01*
X156774819Y-87490000D02*
X156774819Y-87251905D01*
X155870057Y-88204286D02*
X155822438Y-88251905D01*
X155822438Y-88251905D02*
X155774819Y-88347143D01*
X155774819Y-88347143D02*
X155774819Y-88585238D01*
X155774819Y-88585238D02*
X155822438Y-88680476D01*
X155822438Y-88680476D02*
X155870057Y-88728095D01*
X155870057Y-88728095D02*
X155965295Y-88775714D01*
X155965295Y-88775714D02*
X156060533Y-88775714D01*
X156060533Y-88775714D02*
X156203390Y-88728095D01*
X156203390Y-88728095D02*
X156774819Y-88156667D01*
X156774819Y-88156667D02*
X156774819Y-88775714D01*
X131276666Y-84974819D02*
X131609999Y-84498628D01*
X131848094Y-84974819D02*
X131848094Y-83974819D01*
X131848094Y-83974819D02*
X131467142Y-83974819D01*
X131467142Y-83974819D02*
X131371904Y-84022438D01*
X131371904Y-84022438D02*
X131324285Y-84070057D01*
X131324285Y-84070057D02*
X131276666Y-84165295D01*
X131276666Y-84165295D02*
X131276666Y-84308152D01*
X131276666Y-84308152D02*
X131324285Y-84403390D01*
X131324285Y-84403390D02*
X131371904Y-84451009D01*
X131371904Y-84451009D02*
X131467142Y-84498628D01*
X131467142Y-84498628D02*
X131848094Y-84498628D01*
X130800475Y-84974819D02*
X130609999Y-84974819D01*
X130609999Y-84974819D02*
X130514761Y-84927200D01*
X130514761Y-84927200D02*
X130467142Y-84879580D01*
X130467142Y-84879580D02*
X130371904Y-84736723D01*
X130371904Y-84736723D02*
X130324285Y-84546247D01*
X130324285Y-84546247D02*
X130324285Y-84165295D01*
X130324285Y-84165295D02*
X130371904Y-84070057D01*
X130371904Y-84070057D02*
X130419523Y-84022438D01*
X130419523Y-84022438D02*
X130514761Y-83974819D01*
X130514761Y-83974819D02*
X130705237Y-83974819D01*
X130705237Y-83974819D02*
X130800475Y-84022438D01*
X130800475Y-84022438D02*
X130848094Y-84070057D01*
X130848094Y-84070057D02*
X130895713Y-84165295D01*
X130895713Y-84165295D02*
X130895713Y-84403390D01*
X130895713Y-84403390D02*
X130848094Y-84498628D01*
X130848094Y-84498628D02*
X130800475Y-84546247D01*
X130800475Y-84546247D02*
X130705237Y-84593866D01*
X130705237Y-84593866D02*
X130514761Y-84593866D01*
X130514761Y-84593866D02*
X130419523Y-84546247D01*
X130419523Y-84546247D02*
X130371904Y-84498628D01*
X130371904Y-84498628D02*
X130324285Y-84403390D01*
X155014819Y-87251905D02*
X154014819Y-87251905D01*
X154014819Y-87251905D02*
X154014819Y-87490000D01*
X154014819Y-87490000D02*
X154062438Y-87632857D01*
X154062438Y-87632857D02*
X154157676Y-87728095D01*
X154157676Y-87728095D02*
X154252914Y-87775714D01*
X154252914Y-87775714D02*
X154443390Y-87823333D01*
X154443390Y-87823333D02*
X154586247Y-87823333D01*
X154586247Y-87823333D02*
X154776723Y-87775714D01*
X154776723Y-87775714D02*
X154871961Y-87728095D01*
X154871961Y-87728095D02*
X154967200Y-87632857D01*
X154967200Y-87632857D02*
X155014819Y-87490000D01*
X155014819Y-87490000D02*
X155014819Y-87251905D01*
X155014819Y-88775714D02*
X155014819Y-88204286D01*
X155014819Y-88490000D02*
X154014819Y-88490000D01*
X154014819Y-88490000D02*
X154157676Y-88394762D01*
X154157676Y-88394762D02*
X154252914Y-88299524D01*
X154252914Y-88299524D02*
X154300533Y-88204286D01*
X135482857Y-81579580D02*
X135530476Y-81627200D01*
X135530476Y-81627200D02*
X135673333Y-81674819D01*
X135673333Y-81674819D02*
X135768571Y-81674819D01*
X135768571Y-81674819D02*
X135911428Y-81627200D01*
X135911428Y-81627200D02*
X136006666Y-81531961D01*
X136006666Y-81531961D02*
X136054285Y-81436723D01*
X136054285Y-81436723D02*
X136101904Y-81246247D01*
X136101904Y-81246247D02*
X136101904Y-81103390D01*
X136101904Y-81103390D02*
X136054285Y-80912914D01*
X136054285Y-80912914D02*
X136006666Y-80817676D01*
X136006666Y-80817676D02*
X135911428Y-80722438D01*
X135911428Y-80722438D02*
X135768571Y-80674819D01*
X135768571Y-80674819D02*
X135673333Y-80674819D01*
X135673333Y-80674819D02*
X135530476Y-80722438D01*
X135530476Y-80722438D02*
X135482857Y-80770057D01*
X134530476Y-81674819D02*
X135101904Y-81674819D01*
X134816190Y-81674819D02*
X134816190Y-80674819D01*
X134816190Y-80674819D02*
X134911428Y-80817676D01*
X134911428Y-80817676D02*
X135006666Y-80912914D01*
X135006666Y-80912914D02*
X135101904Y-80960533D01*
X133578095Y-81674819D02*
X134149523Y-81674819D01*
X133863809Y-81674819D02*
X133863809Y-80674819D01*
X133863809Y-80674819D02*
X133959047Y-80817676D01*
X133959047Y-80817676D02*
X134054285Y-80912914D01*
X134054285Y-80912914D02*
X134149523Y-80960533D01*
X131283667Y-91494819D02*
X131617000Y-91018628D01*
X131855095Y-91494819D02*
X131855095Y-90494819D01*
X131855095Y-90494819D02*
X131474143Y-90494819D01*
X131474143Y-90494819D02*
X131378905Y-90542438D01*
X131378905Y-90542438D02*
X131331286Y-90590057D01*
X131331286Y-90590057D02*
X131283667Y-90685295D01*
X131283667Y-90685295D02*
X131283667Y-90828152D01*
X131283667Y-90828152D02*
X131331286Y-90923390D01*
X131331286Y-90923390D02*
X131378905Y-90971009D01*
X131378905Y-90971009D02*
X131474143Y-91018628D01*
X131474143Y-91018628D02*
X131855095Y-91018628D01*
X130331286Y-91494819D02*
X130902714Y-91494819D01*
X130617000Y-91494819D02*
X130617000Y-90494819D01*
X130617000Y-90494819D02*
X130712238Y-90637676D01*
X130712238Y-90637676D02*
X130807476Y-90732914D01*
X130807476Y-90732914D02*
X130902714Y-90780533D01*
X129997952Y-90494819D02*
X129378905Y-90494819D01*
X129378905Y-90494819D02*
X129712238Y-90875771D01*
X129712238Y-90875771D02*
X129569381Y-90875771D01*
X129569381Y-90875771D02*
X129474143Y-90923390D01*
X129474143Y-90923390D02*
X129426524Y-90971009D01*
X129426524Y-90971009D02*
X129378905Y-91066247D01*
X129378905Y-91066247D02*
X129378905Y-91304342D01*
X129378905Y-91304342D02*
X129426524Y-91399580D01*
X129426524Y-91399580D02*
X129474143Y-91447200D01*
X129474143Y-91447200D02*
X129569381Y-91494819D01*
X129569381Y-91494819D02*
X129855095Y-91494819D01*
X129855095Y-91494819D02*
X129950333Y-91447200D01*
X129950333Y-91447200D02*
X129997952Y-91399580D01*
X134162857Y-89624819D02*
X134496190Y-89148628D01*
X134734285Y-89624819D02*
X134734285Y-88624819D01*
X134734285Y-88624819D02*
X134353333Y-88624819D01*
X134353333Y-88624819D02*
X134258095Y-88672438D01*
X134258095Y-88672438D02*
X134210476Y-88720057D01*
X134210476Y-88720057D02*
X134162857Y-88815295D01*
X134162857Y-88815295D02*
X134162857Y-88958152D01*
X134162857Y-88958152D02*
X134210476Y-89053390D01*
X134210476Y-89053390D02*
X134258095Y-89101009D01*
X134258095Y-89101009D02*
X134353333Y-89148628D01*
X134353333Y-89148628D02*
X134734285Y-89148628D01*
X133210476Y-89624819D02*
X133781904Y-89624819D01*
X133496190Y-89624819D02*
X133496190Y-88624819D01*
X133496190Y-88624819D02*
X133591428Y-88767676D01*
X133591428Y-88767676D02*
X133686666Y-88862914D01*
X133686666Y-88862914D02*
X133781904Y-88910533D01*
X132258095Y-89624819D02*
X132829523Y-89624819D01*
X132543809Y-89624819D02*
X132543809Y-88624819D01*
X132543809Y-88624819D02*
X132639047Y-88767676D01*
X132639047Y-88767676D02*
X132734285Y-88862914D01*
X132734285Y-88862914D02*
X132829523Y-88910533D01*
X145076666Y-83194819D02*
X145552856Y-83194819D01*
X145552856Y-83194819D02*
X145552856Y-82194819D01*
X144219523Y-83194819D02*
X144790951Y-83194819D01*
X144505237Y-83194819D02*
X144505237Y-82194819D01*
X144505237Y-82194819D02*
X144600475Y-82337676D01*
X144600475Y-82337676D02*
X144695713Y-82432914D01*
X144695713Y-82432914D02*
X144790951Y-82480533D01*
X146566666Y-88019580D02*
X146614285Y-88067200D01*
X146614285Y-88067200D02*
X146757142Y-88114819D01*
X146757142Y-88114819D02*
X146852380Y-88114819D01*
X146852380Y-88114819D02*
X146995237Y-88067200D01*
X146995237Y-88067200D02*
X147090475Y-87971961D01*
X147090475Y-87971961D02*
X147138094Y-87876723D01*
X147138094Y-87876723D02*
X147185713Y-87686247D01*
X147185713Y-87686247D02*
X147185713Y-87543390D01*
X147185713Y-87543390D02*
X147138094Y-87352914D01*
X147138094Y-87352914D02*
X147090475Y-87257676D01*
X147090475Y-87257676D02*
X146995237Y-87162438D01*
X146995237Y-87162438D02*
X146852380Y-87114819D01*
X146852380Y-87114819D02*
X146757142Y-87114819D01*
X146757142Y-87114819D02*
X146614285Y-87162438D01*
X146614285Y-87162438D02*
X146566666Y-87210057D01*
X146233332Y-87114819D02*
X145566666Y-87114819D01*
X145566666Y-87114819D02*
X145995237Y-88114819D01*
X158461666Y-83324819D02*
X158794999Y-82848628D01*
X159033094Y-83324819D02*
X159033094Y-82324819D01*
X159033094Y-82324819D02*
X158652142Y-82324819D01*
X158652142Y-82324819D02*
X158556904Y-82372438D01*
X158556904Y-82372438D02*
X158509285Y-82420057D01*
X158509285Y-82420057D02*
X158461666Y-82515295D01*
X158461666Y-82515295D02*
X158461666Y-82658152D01*
X158461666Y-82658152D02*
X158509285Y-82753390D01*
X158509285Y-82753390D02*
X158556904Y-82801009D01*
X158556904Y-82801009D02*
X158652142Y-82848628D01*
X158652142Y-82848628D02*
X159033094Y-82848628D01*
X157604523Y-82324819D02*
X157794999Y-82324819D01*
X157794999Y-82324819D02*
X157890237Y-82372438D01*
X157890237Y-82372438D02*
X157937856Y-82420057D01*
X157937856Y-82420057D02*
X158033094Y-82562914D01*
X158033094Y-82562914D02*
X158080713Y-82753390D01*
X158080713Y-82753390D02*
X158080713Y-83134342D01*
X158080713Y-83134342D02*
X158033094Y-83229580D01*
X158033094Y-83229580D02*
X157985475Y-83277200D01*
X157985475Y-83277200D02*
X157890237Y-83324819D01*
X157890237Y-83324819D02*
X157699761Y-83324819D01*
X157699761Y-83324819D02*
X157604523Y-83277200D01*
X157604523Y-83277200D02*
X157556904Y-83229580D01*
X157556904Y-83229580D02*
X157509285Y-83134342D01*
X157509285Y-83134342D02*
X157509285Y-82896247D01*
X157509285Y-82896247D02*
X157556904Y-82801009D01*
X157556904Y-82801009D02*
X157604523Y-82753390D01*
X157604523Y-82753390D02*
X157699761Y-82705771D01*
X157699761Y-82705771D02*
X157890237Y-82705771D01*
X157890237Y-82705771D02*
X157985475Y-82753390D01*
X157985475Y-82753390D02*
X158033094Y-82801009D01*
X158033094Y-82801009D02*
X158080713Y-82896247D01*
X158466666Y-84894819D02*
X158799999Y-84418628D01*
X159038094Y-84894819D02*
X159038094Y-83894819D01*
X159038094Y-83894819D02*
X158657142Y-83894819D01*
X158657142Y-83894819D02*
X158561904Y-83942438D01*
X158561904Y-83942438D02*
X158514285Y-83990057D01*
X158514285Y-83990057D02*
X158466666Y-84085295D01*
X158466666Y-84085295D02*
X158466666Y-84228152D01*
X158466666Y-84228152D02*
X158514285Y-84323390D01*
X158514285Y-84323390D02*
X158561904Y-84371009D01*
X158561904Y-84371009D02*
X158657142Y-84418628D01*
X158657142Y-84418628D02*
X159038094Y-84418628D01*
X157561904Y-83894819D02*
X158038094Y-83894819D01*
X158038094Y-83894819D02*
X158085713Y-84371009D01*
X158085713Y-84371009D02*
X158038094Y-84323390D01*
X158038094Y-84323390D02*
X157942856Y-84275771D01*
X157942856Y-84275771D02*
X157704761Y-84275771D01*
X157704761Y-84275771D02*
X157609523Y-84323390D01*
X157609523Y-84323390D02*
X157561904Y-84371009D01*
X157561904Y-84371009D02*
X157514285Y-84466247D01*
X157514285Y-84466247D02*
X157514285Y-84704342D01*
X157514285Y-84704342D02*
X157561904Y-84799580D01*
X157561904Y-84799580D02*
X157609523Y-84847200D01*
X157609523Y-84847200D02*
X157704761Y-84894819D01*
X157704761Y-84894819D02*
X157942856Y-84894819D01*
X157942856Y-84894819D02*
X158038094Y-84847200D01*
X158038094Y-84847200D02*
X158085713Y-84799580D01*
X131366666Y-86214819D02*
X131699999Y-85738628D01*
X131938094Y-86214819D02*
X131938094Y-85214819D01*
X131938094Y-85214819D02*
X131557142Y-85214819D01*
X131557142Y-85214819D02*
X131461904Y-85262438D01*
X131461904Y-85262438D02*
X131414285Y-85310057D01*
X131414285Y-85310057D02*
X131366666Y-85405295D01*
X131366666Y-85405295D02*
X131366666Y-85548152D01*
X131366666Y-85548152D02*
X131414285Y-85643390D01*
X131414285Y-85643390D02*
X131461904Y-85691009D01*
X131461904Y-85691009D02*
X131557142Y-85738628D01*
X131557142Y-85738628D02*
X131938094Y-85738628D01*
X130795237Y-85643390D02*
X130890475Y-85595771D01*
X130890475Y-85595771D02*
X130938094Y-85548152D01*
X130938094Y-85548152D02*
X130985713Y-85452914D01*
X130985713Y-85452914D02*
X130985713Y-85405295D01*
X130985713Y-85405295D02*
X130938094Y-85310057D01*
X130938094Y-85310057D02*
X130890475Y-85262438D01*
X130890475Y-85262438D02*
X130795237Y-85214819D01*
X130795237Y-85214819D02*
X130604761Y-85214819D01*
X130604761Y-85214819D02*
X130509523Y-85262438D01*
X130509523Y-85262438D02*
X130461904Y-85310057D01*
X130461904Y-85310057D02*
X130414285Y-85405295D01*
X130414285Y-85405295D02*
X130414285Y-85452914D01*
X130414285Y-85452914D02*
X130461904Y-85548152D01*
X130461904Y-85548152D02*
X130509523Y-85595771D01*
X130509523Y-85595771D02*
X130604761Y-85643390D01*
X130604761Y-85643390D02*
X130795237Y-85643390D01*
X130795237Y-85643390D02*
X130890475Y-85691009D01*
X130890475Y-85691009D02*
X130938094Y-85738628D01*
X130938094Y-85738628D02*
X130985713Y-85833866D01*
X130985713Y-85833866D02*
X130985713Y-86024342D01*
X130985713Y-86024342D02*
X130938094Y-86119580D01*
X130938094Y-86119580D02*
X130890475Y-86167200D01*
X130890475Y-86167200D02*
X130795237Y-86214819D01*
X130795237Y-86214819D02*
X130604761Y-86214819D01*
X130604761Y-86214819D02*
X130509523Y-86167200D01*
X130509523Y-86167200D02*
X130461904Y-86119580D01*
X130461904Y-86119580D02*
X130414285Y-86024342D01*
X130414285Y-86024342D02*
X130414285Y-85833866D01*
X130414285Y-85833866D02*
X130461904Y-85738628D01*
X130461904Y-85738628D02*
X130509523Y-85691009D01*
X130509523Y-85691009D02*
X130604761Y-85643390D01*
X146579580Y-85723333D02*
X146627200Y-85675714D01*
X146627200Y-85675714D02*
X146674819Y-85532857D01*
X146674819Y-85532857D02*
X146674819Y-85437619D01*
X146674819Y-85437619D02*
X146627200Y-85294762D01*
X146627200Y-85294762D02*
X146531961Y-85199524D01*
X146531961Y-85199524D02*
X146436723Y-85151905D01*
X146436723Y-85151905D02*
X146246247Y-85104286D01*
X146246247Y-85104286D02*
X146103390Y-85104286D01*
X146103390Y-85104286D02*
X145912914Y-85151905D01*
X145912914Y-85151905D02*
X145817676Y-85199524D01*
X145817676Y-85199524D02*
X145722438Y-85294762D01*
X145722438Y-85294762D02*
X145674819Y-85437619D01*
X145674819Y-85437619D02*
X145674819Y-85532857D01*
X145674819Y-85532857D02*
X145722438Y-85675714D01*
X145722438Y-85675714D02*
X145770057Y-85723333D01*
X146674819Y-86199524D02*
X146674819Y-86390000D01*
X146674819Y-86390000D02*
X146627200Y-86485238D01*
X146627200Y-86485238D02*
X146579580Y-86532857D01*
X146579580Y-86532857D02*
X146436723Y-86628095D01*
X146436723Y-86628095D02*
X146246247Y-86675714D01*
X146246247Y-86675714D02*
X145865295Y-86675714D01*
X145865295Y-86675714D02*
X145770057Y-86628095D01*
X145770057Y-86628095D02*
X145722438Y-86580476D01*
X145722438Y-86580476D02*
X145674819Y-86485238D01*
X145674819Y-86485238D02*
X145674819Y-86294762D01*
X145674819Y-86294762D02*
X145722438Y-86199524D01*
X145722438Y-86199524D02*
X145770057Y-86151905D01*
X145770057Y-86151905D02*
X145865295Y-86104286D01*
X145865295Y-86104286D02*
X146103390Y-86104286D01*
X146103390Y-86104286D02*
X146198628Y-86151905D01*
X146198628Y-86151905D02*
X146246247Y-86199524D01*
X146246247Y-86199524D02*
X146293866Y-86294762D01*
X146293866Y-86294762D02*
X146293866Y-86485238D01*
X146293866Y-86485238D02*
X146246247Y-86580476D01*
X146246247Y-86580476D02*
X146198628Y-86628095D01*
X146198628Y-86628095D02*
X146103390Y-86675714D01*
X158494819Y-87251905D02*
X157494819Y-87251905D01*
X157494819Y-87251905D02*
X157494819Y-87490000D01*
X157494819Y-87490000D02*
X157542438Y-87632857D01*
X157542438Y-87632857D02*
X157637676Y-87728095D01*
X157637676Y-87728095D02*
X157732914Y-87775714D01*
X157732914Y-87775714D02*
X157923390Y-87823333D01*
X157923390Y-87823333D02*
X158066247Y-87823333D01*
X158066247Y-87823333D02*
X158256723Y-87775714D01*
X158256723Y-87775714D02*
X158351961Y-87728095D01*
X158351961Y-87728095D02*
X158447200Y-87632857D01*
X158447200Y-87632857D02*
X158494819Y-87490000D01*
X158494819Y-87490000D02*
X158494819Y-87251905D01*
X157494819Y-88156667D02*
X157494819Y-88775714D01*
X157494819Y-88775714D02*
X157875771Y-88442381D01*
X157875771Y-88442381D02*
X157875771Y-88585238D01*
X157875771Y-88585238D02*
X157923390Y-88680476D01*
X157923390Y-88680476D02*
X157971009Y-88728095D01*
X157971009Y-88728095D02*
X158066247Y-88775714D01*
X158066247Y-88775714D02*
X158304342Y-88775714D01*
X158304342Y-88775714D02*
X158399580Y-88728095D01*
X158399580Y-88728095D02*
X158447200Y-88680476D01*
X158447200Y-88680476D02*
X158494819Y-88585238D01*
X158494819Y-88585238D02*
X158494819Y-88299524D01*
X158494819Y-88299524D02*
X158447200Y-88204286D01*
X158447200Y-88204286D02*
X158399580Y-88156667D01*
X124059819Y-85313095D02*
X124869342Y-85313095D01*
X124869342Y-85313095D02*
X124964580Y-85360714D01*
X124964580Y-85360714D02*
X125012200Y-85408333D01*
X125012200Y-85408333D02*
X125059819Y-85503571D01*
X125059819Y-85503571D02*
X125059819Y-85694047D01*
X125059819Y-85694047D02*
X125012200Y-85789285D01*
X125012200Y-85789285D02*
X124964580Y-85836904D01*
X124964580Y-85836904D02*
X124869342Y-85884523D01*
X124869342Y-85884523D02*
X124059819Y-85884523D01*
X124059819Y-86265476D02*
X124059819Y-86932142D01*
X124059819Y-86932142D02*
X125059819Y-86503571D01*
X153950713Y-77974819D02*
X153379285Y-77974819D01*
X153664999Y-78974819D02*
X153664999Y-77974819D01*
X153045951Y-78974819D02*
X153045951Y-77974819D01*
X153045951Y-78451009D02*
X152474523Y-78451009D01*
X152474523Y-78974819D02*
X152474523Y-77974819D01*
X151474523Y-78974819D02*
X152045951Y-78974819D01*
X151760237Y-78974819D02*
X151760237Y-77974819D01*
X151760237Y-77974819D02*
X151855475Y-78117676D01*
X151855475Y-78117676D02*
X151950713Y-78212914D01*
X151950713Y-78212914D02*
X152045951Y-78260533D01*
X151514819Y-89783333D02*
X151038628Y-89450000D01*
X151514819Y-89211905D02*
X150514819Y-89211905D01*
X150514819Y-89211905D02*
X150514819Y-89592857D01*
X150514819Y-89592857D02*
X150562438Y-89688095D01*
X150562438Y-89688095D02*
X150610057Y-89735714D01*
X150610057Y-89735714D02*
X150705295Y-89783333D01*
X150705295Y-89783333D02*
X150848152Y-89783333D01*
X150848152Y-89783333D02*
X150943390Y-89735714D01*
X150943390Y-89735714D02*
X150991009Y-89688095D01*
X150991009Y-89688095D02*
X151038628Y-89592857D01*
X151038628Y-89592857D02*
X151038628Y-89211905D01*
X150514819Y-90116667D02*
X150514819Y-90735714D01*
X150514819Y-90735714D02*
X150895771Y-90402381D01*
X150895771Y-90402381D02*
X150895771Y-90545238D01*
X150895771Y-90545238D02*
X150943390Y-90640476D01*
X150943390Y-90640476D02*
X150991009Y-90688095D01*
X150991009Y-90688095D02*
X151086247Y-90735714D01*
X151086247Y-90735714D02*
X151324342Y-90735714D01*
X151324342Y-90735714D02*
X151419580Y-90688095D01*
X151419580Y-90688095D02*
X151467200Y-90640476D01*
X151467200Y-90640476D02*
X151514819Y-90545238D01*
X151514819Y-90545238D02*
X151514819Y-90259524D01*
X151514819Y-90259524D02*
X151467200Y-90164286D01*
X151467200Y-90164286D02*
X151419580Y-90116667D01*
X148734819Y-78328095D02*
X149544342Y-78328095D01*
X149544342Y-78328095D02*
X149639580Y-78375714D01*
X149639580Y-78375714D02*
X149687200Y-78423333D01*
X149687200Y-78423333D02*
X149734819Y-78518571D01*
X149734819Y-78518571D02*
X149734819Y-78709047D01*
X149734819Y-78709047D02*
X149687200Y-78804285D01*
X149687200Y-78804285D02*
X149639580Y-78851904D01*
X149639580Y-78851904D02*
X149544342Y-78899523D01*
X149544342Y-78899523D02*
X148734819Y-78899523D01*
X148734819Y-79851904D02*
X148734819Y-79375714D01*
X148734819Y-79375714D02*
X149211009Y-79328095D01*
X149211009Y-79328095D02*
X149163390Y-79375714D01*
X149163390Y-79375714D02*
X149115771Y-79470952D01*
X149115771Y-79470952D02*
X149115771Y-79709047D01*
X149115771Y-79709047D02*
X149163390Y-79804285D01*
X149163390Y-79804285D02*
X149211009Y-79851904D01*
X149211009Y-79851904D02*
X149306247Y-79899523D01*
X149306247Y-79899523D02*
X149544342Y-79899523D01*
X149544342Y-79899523D02*
X149639580Y-79851904D01*
X149639580Y-79851904D02*
X149687200Y-79804285D01*
X149687200Y-79804285D02*
X149734819Y-79709047D01*
X149734819Y-79709047D02*
X149734819Y-79470952D01*
X149734819Y-79470952D02*
X149687200Y-79375714D01*
X149687200Y-79375714D02*
X149639580Y-79328095D01*
X127232857Y-74689580D02*
X127280476Y-74737200D01*
X127280476Y-74737200D02*
X127423333Y-74784819D01*
X127423333Y-74784819D02*
X127518571Y-74784819D01*
X127518571Y-74784819D02*
X127661428Y-74737200D01*
X127661428Y-74737200D02*
X127756666Y-74641961D01*
X127756666Y-74641961D02*
X127804285Y-74546723D01*
X127804285Y-74546723D02*
X127851904Y-74356247D01*
X127851904Y-74356247D02*
X127851904Y-74213390D01*
X127851904Y-74213390D02*
X127804285Y-74022914D01*
X127804285Y-74022914D02*
X127756666Y-73927676D01*
X127756666Y-73927676D02*
X127661428Y-73832438D01*
X127661428Y-73832438D02*
X127518571Y-73784819D01*
X127518571Y-73784819D02*
X127423333Y-73784819D01*
X127423333Y-73784819D02*
X127280476Y-73832438D01*
X127280476Y-73832438D02*
X127232857Y-73880057D01*
X126280476Y-74784819D02*
X126851904Y-74784819D01*
X126566190Y-74784819D02*
X126566190Y-73784819D01*
X126566190Y-73784819D02*
X126661428Y-73927676D01*
X126661428Y-73927676D02*
X126756666Y-74022914D01*
X126756666Y-74022914D02*
X126851904Y-74070533D01*
X125947142Y-73784819D02*
X125280476Y-73784819D01*
X125280476Y-73784819D02*
X125709047Y-74784819D01*
X137695357Y-78219580D02*
X137742976Y-78267200D01*
X137742976Y-78267200D02*
X137885833Y-78314819D01*
X137885833Y-78314819D02*
X137981071Y-78314819D01*
X137981071Y-78314819D02*
X138123928Y-78267200D01*
X138123928Y-78267200D02*
X138219166Y-78171961D01*
X138219166Y-78171961D02*
X138266785Y-78076723D01*
X138266785Y-78076723D02*
X138314404Y-77886247D01*
X138314404Y-77886247D02*
X138314404Y-77743390D01*
X138314404Y-77743390D02*
X138266785Y-77552914D01*
X138266785Y-77552914D02*
X138219166Y-77457676D01*
X138219166Y-77457676D02*
X138123928Y-77362438D01*
X138123928Y-77362438D02*
X137981071Y-77314819D01*
X137981071Y-77314819D02*
X137885833Y-77314819D01*
X137885833Y-77314819D02*
X137742976Y-77362438D01*
X137742976Y-77362438D02*
X137695357Y-77410057D01*
X136742976Y-78314819D02*
X137314404Y-78314819D01*
X137028690Y-78314819D02*
X137028690Y-77314819D01*
X137028690Y-77314819D02*
X137123928Y-77457676D01*
X137123928Y-77457676D02*
X137219166Y-77552914D01*
X137219166Y-77552914D02*
X137314404Y-77600533D01*
X136362023Y-77410057D02*
X136314404Y-77362438D01*
X136314404Y-77362438D02*
X136219166Y-77314819D01*
X136219166Y-77314819D02*
X135981071Y-77314819D01*
X135981071Y-77314819D02*
X135885833Y-77362438D01*
X135885833Y-77362438D02*
X135838214Y-77410057D01*
X135838214Y-77410057D02*
X135790595Y-77505295D01*
X135790595Y-77505295D02*
X135790595Y-77600533D01*
X135790595Y-77600533D02*
X135838214Y-77743390D01*
X135838214Y-77743390D02*
X136409642Y-78314819D01*
X136409642Y-78314819D02*
X135790595Y-78314819D01*
X158506666Y-81754819D02*
X158839999Y-81278628D01*
X159078094Y-81754819D02*
X159078094Y-80754819D01*
X159078094Y-80754819D02*
X158697142Y-80754819D01*
X158697142Y-80754819D02*
X158601904Y-80802438D01*
X158601904Y-80802438D02*
X158554285Y-80850057D01*
X158554285Y-80850057D02*
X158506666Y-80945295D01*
X158506666Y-80945295D02*
X158506666Y-81088152D01*
X158506666Y-81088152D02*
X158554285Y-81183390D01*
X158554285Y-81183390D02*
X158601904Y-81231009D01*
X158601904Y-81231009D02*
X158697142Y-81278628D01*
X158697142Y-81278628D02*
X159078094Y-81278628D01*
X158173332Y-80754819D02*
X157506666Y-80754819D01*
X157506666Y-80754819D02*
X157935237Y-81754819D01*
X137715357Y-75674580D02*
X137762976Y-75722200D01*
X137762976Y-75722200D02*
X137905833Y-75769819D01*
X137905833Y-75769819D02*
X138001071Y-75769819D01*
X138001071Y-75769819D02*
X138143928Y-75722200D01*
X138143928Y-75722200D02*
X138239166Y-75626961D01*
X138239166Y-75626961D02*
X138286785Y-75531723D01*
X138286785Y-75531723D02*
X138334404Y-75341247D01*
X138334404Y-75341247D02*
X138334404Y-75198390D01*
X138334404Y-75198390D02*
X138286785Y-75007914D01*
X138286785Y-75007914D02*
X138239166Y-74912676D01*
X138239166Y-74912676D02*
X138143928Y-74817438D01*
X138143928Y-74817438D02*
X138001071Y-74769819D01*
X138001071Y-74769819D02*
X137905833Y-74769819D01*
X137905833Y-74769819D02*
X137762976Y-74817438D01*
X137762976Y-74817438D02*
X137715357Y-74865057D01*
X136762976Y-75769819D02*
X137334404Y-75769819D01*
X137048690Y-75769819D02*
X137048690Y-74769819D01*
X137048690Y-74769819D02*
X137143928Y-74912676D01*
X137143928Y-74912676D02*
X137239166Y-75007914D01*
X137239166Y-75007914D02*
X137334404Y-75055533D01*
X136429642Y-74769819D02*
X135810595Y-74769819D01*
X135810595Y-74769819D02*
X136143928Y-75150771D01*
X136143928Y-75150771D02*
X136001071Y-75150771D01*
X136001071Y-75150771D02*
X135905833Y-75198390D01*
X135905833Y-75198390D02*
X135858214Y-75246009D01*
X135858214Y-75246009D02*
X135810595Y-75341247D01*
X135810595Y-75341247D02*
X135810595Y-75579342D01*
X135810595Y-75579342D02*
X135858214Y-75674580D01*
X135858214Y-75674580D02*
X135905833Y-75722200D01*
X135905833Y-75722200D02*
X136001071Y-75769819D01*
X136001071Y-75769819D02*
X136286785Y-75769819D01*
X136286785Y-75769819D02*
X136382023Y-75722200D01*
X136382023Y-75722200D02*
X136429642Y-75674580D01*
X127402857Y-76939580D02*
X127450476Y-76987200D01*
X127450476Y-76987200D02*
X127593333Y-77034819D01*
X127593333Y-77034819D02*
X127688571Y-77034819D01*
X127688571Y-77034819D02*
X127831428Y-76987200D01*
X127831428Y-76987200D02*
X127926666Y-76891961D01*
X127926666Y-76891961D02*
X127974285Y-76796723D01*
X127974285Y-76796723D02*
X128021904Y-76606247D01*
X128021904Y-76606247D02*
X128021904Y-76463390D01*
X128021904Y-76463390D02*
X127974285Y-76272914D01*
X127974285Y-76272914D02*
X127926666Y-76177676D01*
X127926666Y-76177676D02*
X127831428Y-76082438D01*
X127831428Y-76082438D02*
X127688571Y-76034819D01*
X127688571Y-76034819D02*
X127593333Y-76034819D01*
X127593333Y-76034819D02*
X127450476Y-76082438D01*
X127450476Y-76082438D02*
X127402857Y-76130057D01*
X126450476Y-77034819D02*
X127021904Y-77034819D01*
X126736190Y-77034819D02*
X126736190Y-76034819D01*
X126736190Y-76034819D02*
X126831428Y-76177676D01*
X126831428Y-76177676D02*
X126926666Y-76272914D01*
X126926666Y-76272914D02*
X127021904Y-76320533D01*
X125593333Y-76034819D02*
X125783809Y-76034819D01*
X125783809Y-76034819D02*
X125879047Y-76082438D01*
X125879047Y-76082438D02*
X125926666Y-76130057D01*
X125926666Y-76130057D02*
X126021904Y-76272914D01*
X126021904Y-76272914D02*
X126069523Y-76463390D01*
X126069523Y-76463390D02*
X126069523Y-76844342D01*
X126069523Y-76844342D02*
X126021904Y-76939580D01*
X126021904Y-76939580D02*
X125974285Y-76987200D01*
X125974285Y-76987200D02*
X125879047Y-77034819D01*
X125879047Y-77034819D02*
X125688571Y-77034819D01*
X125688571Y-77034819D02*
X125593333Y-76987200D01*
X125593333Y-76987200D02*
X125545714Y-76939580D01*
X125545714Y-76939580D02*
X125498095Y-76844342D01*
X125498095Y-76844342D02*
X125498095Y-76606247D01*
X125498095Y-76606247D02*
X125545714Y-76511009D01*
X125545714Y-76511009D02*
X125593333Y-76463390D01*
X125593333Y-76463390D02*
X125688571Y-76415771D01*
X125688571Y-76415771D02*
X125879047Y-76415771D01*
X125879047Y-76415771D02*
X125974285Y-76463390D01*
X125974285Y-76463390D02*
X126021904Y-76511009D01*
X126021904Y-76511009D02*
X126069523Y-76606247D01*
X147699580Y-78438333D02*
X147747200Y-78390714D01*
X147747200Y-78390714D02*
X147794819Y-78247857D01*
X147794819Y-78247857D02*
X147794819Y-78152619D01*
X147794819Y-78152619D02*
X147747200Y-78009762D01*
X147747200Y-78009762D02*
X147651961Y-77914524D01*
X147651961Y-77914524D02*
X147556723Y-77866905D01*
X147556723Y-77866905D02*
X147366247Y-77819286D01*
X147366247Y-77819286D02*
X147223390Y-77819286D01*
X147223390Y-77819286D02*
X147032914Y-77866905D01*
X147032914Y-77866905D02*
X146937676Y-77914524D01*
X146937676Y-77914524D02*
X146842438Y-78009762D01*
X146842438Y-78009762D02*
X146794819Y-78152619D01*
X146794819Y-78152619D02*
X146794819Y-78247857D01*
X146794819Y-78247857D02*
X146842438Y-78390714D01*
X146842438Y-78390714D02*
X146890057Y-78438333D01*
X147223390Y-79009762D02*
X147175771Y-78914524D01*
X147175771Y-78914524D02*
X147128152Y-78866905D01*
X147128152Y-78866905D02*
X147032914Y-78819286D01*
X147032914Y-78819286D02*
X146985295Y-78819286D01*
X146985295Y-78819286D02*
X146890057Y-78866905D01*
X146890057Y-78866905D02*
X146842438Y-78914524D01*
X146842438Y-78914524D02*
X146794819Y-79009762D01*
X146794819Y-79009762D02*
X146794819Y-79200238D01*
X146794819Y-79200238D02*
X146842438Y-79295476D01*
X146842438Y-79295476D02*
X146890057Y-79343095D01*
X146890057Y-79343095D02*
X146985295Y-79390714D01*
X146985295Y-79390714D02*
X147032914Y-79390714D01*
X147032914Y-79390714D02*
X147128152Y-79343095D01*
X147128152Y-79343095D02*
X147175771Y-79295476D01*
X147175771Y-79295476D02*
X147223390Y-79200238D01*
X147223390Y-79200238D02*
X147223390Y-79009762D01*
X147223390Y-79009762D02*
X147271009Y-78914524D01*
X147271009Y-78914524D02*
X147318628Y-78866905D01*
X147318628Y-78866905D02*
X147413866Y-78819286D01*
X147413866Y-78819286D02*
X147604342Y-78819286D01*
X147604342Y-78819286D02*
X147699580Y-78866905D01*
X147699580Y-78866905D02*
X147747200Y-78914524D01*
X147747200Y-78914524D02*
X147794819Y-79009762D01*
X147794819Y-79009762D02*
X147794819Y-79200238D01*
X147794819Y-79200238D02*
X147747200Y-79295476D01*
X147747200Y-79295476D02*
X147699580Y-79343095D01*
X147699580Y-79343095D02*
X147604342Y-79390714D01*
X147604342Y-79390714D02*
X147413866Y-79390714D01*
X147413866Y-79390714D02*
X147318628Y-79343095D01*
X147318628Y-79343095D02*
X147271009Y-79295476D01*
X147271009Y-79295476D02*
X147223390Y-79200238D01*
X128708094Y-89894819D02*
X128708094Y-88894819D01*
X128708094Y-88894819D02*
X128469999Y-88894819D01*
X128469999Y-88894819D02*
X128327142Y-88942438D01*
X128327142Y-88942438D02*
X128231904Y-89037676D01*
X128231904Y-89037676D02*
X128184285Y-89132914D01*
X128184285Y-89132914D02*
X128136666Y-89323390D01*
X128136666Y-89323390D02*
X128136666Y-89466247D01*
X128136666Y-89466247D02*
X128184285Y-89656723D01*
X128184285Y-89656723D02*
X128231904Y-89751961D01*
X128231904Y-89751961D02*
X128327142Y-89847200D01*
X128327142Y-89847200D02*
X128469999Y-89894819D01*
X128469999Y-89894819D02*
X128708094Y-89894819D01*
X127279523Y-89228152D02*
X127279523Y-89894819D01*
X127517618Y-88847200D02*
X127755713Y-89561485D01*
X127755713Y-89561485D02*
X127136666Y-89561485D01*
X139101904Y-79024819D02*
X139101904Y-79834342D01*
X139101904Y-79834342D02*
X139054285Y-79929580D01*
X139054285Y-79929580D02*
X139006666Y-79977200D01*
X139006666Y-79977200D02*
X138911428Y-80024819D01*
X138911428Y-80024819D02*
X138720952Y-80024819D01*
X138720952Y-80024819D02*
X138625714Y-79977200D01*
X138625714Y-79977200D02*
X138578095Y-79929580D01*
X138578095Y-79929580D02*
X138530476Y-79834342D01*
X138530476Y-79834342D02*
X138530476Y-79024819D01*
X138149523Y-79024819D02*
X137530476Y-79024819D01*
X137530476Y-79024819D02*
X137863809Y-79405771D01*
X137863809Y-79405771D02*
X137720952Y-79405771D01*
X137720952Y-79405771D02*
X137625714Y-79453390D01*
X137625714Y-79453390D02*
X137578095Y-79501009D01*
X137578095Y-79501009D02*
X137530476Y-79596247D01*
X137530476Y-79596247D02*
X137530476Y-79834342D01*
X137530476Y-79834342D02*
X137578095Y-79929580D01*
X137578095Y-79929580D02*
X137625714Y-79977200D01*
X137625714Y-79977200D02*
X137720952Y-80024819D01*
X137720952Y-80024819D02*
X138006666Y-80024819D01*
X138006666Y-80024819D02*
X138101904Y-79977200D01*
X138101904Y-79977200D02*
X138149523Y-79929580D01*
X156096666Y-86794819D02*
X156429999Y-86318628D01*
X156668094Y-86794819D02*
X156668094Y-85794819D01*
X156668094Y-85794819D02*
X156287142Y-85794819D01*
X156287142Y-85794819D02*
X156191904Y-85842438D01*
X156191904Y-85842438D02*
X156144285Y-85890057D01*
X156144285Y-85890057D02*
X156096666Y-85985295D01*
X156096666Y-85985295D02*
X156096666Y-86128152D01*
X156096666Y-86128152D02*
X156144285Y-86223390D01*
X156144285Y-86223390D02*
X156191904Y-86271009D01*
X156191904Y-86271009D02*
X156287142Y-86318628D01*
X156287142Y-86318628D02*
X156668094Y-86318628D01*
X155239523Y-86128152D02*
X155239523Y-86794819D01*
X155477618Y-85747200D02*
X155715713Y-86461485D01*
X155715713Y-86461485D02*
X155096666Y-86461485D01*
X145952857Y-84459580D02*
X146000476Y-84507200D01*
X146000476Y-84507200D02*
X146143333Y-84554819D01*
X146143333Y-84554819D02*
X146238571Y-84554819D01*
X146238571Y-84554819D02*
X146381428Y-84507200D01*
X146381428Y-84507200D02*
X146476666Y-84411961D01*
X146476666Y-84411961D02*
X146524285Y-84316723D01*
X146524285Y-84316723D02*
X146571904Y-84126247D01*
X146571904Y-84126247D02*
X146571904Y-83983390D01*
X146571904Y-83983390D02*
X146524285Y-83792914D01*
X146524285Y-83792914D02*
X146476666Y-83697676D01*
X146476666Y-83697676D02*
X146381428Y-83602438D01*
X146381428Y-83602438D02*
X146238571Y-83554819D01*
X146238571Y-83554819D02*
X146143333Y-83554819D01*
X146143333Y-83554819D02*
X146000476Y-83602438D01*
X146000476Y-83602438D02*
X145952857Y-83650057D01*
X145000476Y-84554819D02*
X145571904Y-84554819D01*
X145286190Y-84554819D02*
X145286190Y-83554819D01*
X145286190Y-83554819D02*
X145381428Y-83697676D01*
X145381428Y-83697676D02*
X145476666Y-83792914D01*
X145476666Y-83792914D02*
X145571904Y-83840533D01*
X144381428Y-83554819D02*
X144286190Y-83554819D01*
X144286190Y-83554819D02*
X144190952Y-83602438D01*
X144190952Y-83602438D02*
X144143333Y-83650057D01*
X144143333Y-83650057D02*
X144095714Y-83745295D01*
X144095714Y-83745295D02*
X144048095Y-83935771D01*
X144048095Y-83935771D02*
X144048095Y-84173866D01*
X144048095Y-84173866D02*
X144095714Y-84364342D01*
X144095714Y-84364342D02*
X144143333Y-84459580D01*
X144143333Y-84459580D02*
X144190952Y-84507200D01*
X144190952Y-84507200D02*
X144286190Y-84554819D01*
X144286190Y-84554819D02*
X144381428Y-84554819D01*
X144381428Y-84554819D02*
X144476666Y-84507200D01*
X144476666Y-84507200D02*
X144524285Y-84459580D01*
X144524285Y-84459580D02*
X144571904Y-84364342D01*
X144571904Y-84364342D02*
X144619523Y-84173866D01*
X144619523Y-84173866D02*
X144619523Y-83935771D01*
X144619523Y-83935771D02*
X144571904Y-83745295D01*
X144571904Y-83745295D02*
X144524285Y-83650057D01*
X144524285Y-83650057D02*
X144476666Y-83602438D01*
X144476666Y-83602438D02*
X144381428Y-83554819D01*
X136472857Y-83184819D02*
X136806190Y-82708628D01*
X137044285Y-83184819D02*
X137044285Y-82184819D01*
X137044285Y-82184819D02*
X136663333Y-82184819D01*
X136663333Y-82184819D02*
X136568095Y-82232438D01*
X136568095Y-82232438D02*
X136520476Y-82280057D01*
X136520476Y-82280057D02*
X136472857Y-82375295D01*
X136472857Y-82375295D02*
X136472857Y-82518152D01*
X136472857Y-82518152D02*
X136520476Y-82613390D01*
X136520476Y-82613390D02*
X136568095Y-82661009D01*
X136568095Y-82661009D02*
X136663333Y-82708628D01*
X136663333Y-82708628D02*
X137044285Y-82708628D01*
X135520476Y-83184819D02*
X136091904Y-83184819D01*
X135806190Y-83184819D02*
X135806190Y-82184819D01*
X135806190Y-82184819D02*
X135901428Y-82327676D01*
X135901428Y-82327676D02*
X135996666Y-82422914D01*
X135996666Y-82422914D02*
X136091904Y-82470533D01*
X135139523Y-82280057D02*
X135091904Y-82232438D01*
X135091904Y-82232438D02*
X134996666Y-82184819D01*
X134996666Y-82184819D02*
X134758571Y-82184819D01*
X134758571Y-82184819D02*
X134663333Y-82232438D01*
X134663333Y-82232438D02*
X134615714Y-82280057D01*
X134615714Y-82280057D02*
X134568095Y-82375295D01*
X134568095Y-82375295D02*
X134568095Y-82470533D01*
X134568095Y-82470533D02*
X134615714Y-82613390D01*
X134615714Y-82613390D02*
X135187142Y-83184819D01*
X135187142Y-83184819D02*
X134568095Y-83184819D01*
D11*
%TO.C,D2*%
X155535000Y-88967500D02*
X157005000Y-88967500D01*
X155535000Y-91252500D02*
X155535000Y-88967500D01*
X157005000Y-88967500D02*
X157005000Y-91252500D01*
%TO.C,R9*%
X133807258Y-83997500D02*
X133332742Y-83997500D01*
X133807258Y-85042500D02*
X133332742Y-85042500D01*
%TO.C,D1*%
X153735000Y-88967500D02*
X155205000Y-88967500D01*
X153735000Y-91252500D02*
X153735000Y-88967500D01*
X155205000Y-88967500D02*
X155205000Y-91252500D01*
%TO.C,C11*%
X137955580Y-80650000D02*
X137674420Y-80650000D01*
X137955580Y-81670000D02*
X137674420Y-81670000D01*
%TO.C,R13*%
X133302742Y-90437500D02*
X133777258Y-90437500D01*
X133302742Y-91482500D02*
X133777258Y-91482500D01*
%TO.C,R11*%
X133332742Y-87197500D02*
X133807258Y-87197500D01*
X133332742Y-88242500D02*
X133807258Y-88242500D01*
%TO.C,L1*%
X143510000Y-80432064D02*
X143510000Y-79227936D01*
X146230000Y-80432064D02*
X146230000Y-79227936D01*
%TO.C,C7*%
X148780580Y-86170000D02*
X148499420Y-86170000D01*
X148780580Y-87190000D02*
X148499420Y-87190000D01*
%TO.C,R6*%
X155652742Y-82367500D02*
X156127258Y-82367500D01*
X155652742Y-83412500D02*
X156127258Y-83412500D01*
%TO.C,R5*%
X155642742Y-83917500D02*
X156117258Y-83917500D01*
X155642742Y-84962500D02*
X156117258Y-84962500D01*
%TO.C,J3*%
X135882000Y-89940000D02*
X135882000Y-88020000D01*
X135882000Y-91950000D02*
X135882000Y-93655000D01*
X135882000Y-93655000D02*
X145042000Y-93655000D01*
X145042000Y-88020000D02*
X145042000Y-89940000D01*
X145042000Y-93655000D02*
X145042000Y-91950000D01*
%TO.C,R8*%
X133807258Y-85647500D02*
X133332742Y-85647500D01*
X133807258Y-86692500D02*
X133332742Y-86692500D01*
%TO.C,C9*%
X146785000Y-84159420D02*
X146785000Y-84440580D01*
X147805000Y-84159420D02*
X147805000Y-84440580D01*
%TO.C,D3*%
X157345000Y-88987500D02*
X158815000Y-88987500D01*
X157345000Y-91272500D02*
X157345000Y-88987500D01*
X158815000Y-88987500D02*
X158815000Y-91272500D01*
%TO.C,U7*%
X124070000Y-81250000D02*
X124070000Y-79050000D01*
X124070000Y-81250000D02*
X124070000Y-83450000D01*
X129290000Y-81250000D02*
X129290000Y-79050000D01*
X129290000Y-81250000D02*
X129290000Y-83450000D01*
X124270000Y-78350000D02*
X123940000Y-78590000D01*
X123940000Y-78110000D01*
X124270000Y-78350000D01*
G36*
X124270000Y-78350000D02*
G01*
X123940000Y-78590000D01*
X123940000Y-78110000D01*
X124270000Y-78350000D01*
G37*
%TO.C,TH1*%
X152427742Y-79297500D02*
X152902258Y-79297500D01*
X152427742Y-80342500D02*
X152902258Y-80342500D01*
%TO.C,R3*%
X150467500Y-87232742D02*
X150467500Y-87707258D01*
X151512500Y-87232742D02*
X151512500Y-87707258D01*
%TO.C,U5*%
X148615000Y-81872500D02*
X148615000Y-81447500D01*
X148615000Y-84642500D02*
X148615000Y-85367500D01*
X148615000Y-85367500D02*
X149340000Y-85367500D01*
X149340000Y-81147500D02*
X148855000Y-81147500D01*
X152835000Y-81147500D02*
X152110000Y-81147500D01*
X152835000Y-81872500D02*
X152835000Y-81147500D01*
X152835000Y-84642500D02*
X152835000Y-85367500D01*
X152835000Y-85367500D02*
X152110000Y-85367500D01*
X148615000Y-81147500D02*
X148285000Y-81387500D01*
X148285000Y-80907500D01*
X148615000Y-81147500D01*
G36*
X148615000Y-81147500D02*
G01*
X148285000Y-81387500D01*
X148285000Y-80907500D01*
X148615000Y-81147500D01*
G37*
%TO.C,C17*%
X123601252Y-73595000D02*
X123078748Y-73595000D01*
X123601252Y-75065000D02*
X123078748Y-75065000D01*
%TO.C,C12*%
X140501252Y-77125000D02*
X139978748Y-77125000D01*
X140501252Y-78595000D02*
X139978748Y-78595000D01*
%TO.C,R7*%
X155652742Y-80767500D02*
X156127258Y-80767500D01*
X155652742Y-81812500D02*
X156127258Y-81812500D01*
%TO.C,C13*%
X140491252Y-75065000D02*
X139968748Y-75065000D01*
X140491252Y-76535000D02*
X139968748Y-76535000D01*
%TO.C,C16*%
X123920580Y-76070000D02*
X123639420Y-76070000D01*
X123920580Y-77090000D02*
X123639420Y-77090000D01*
%TO.C,C8*%
X146790000Y-81360580D02*
X146790000Y-81079420D01*
X147810000Y-81360580D02*
X147810000Y-81079420D01*
%TO.C,D4*%
X127390000Y-87780000D02*
X127390000Y-86480000D01*
X130510000Y-86480000D02*
X130510000Y-87750000D01*
X130790000Y-88370000D02*
X130460000Y-88130000D01*
X130790000Y-87890000D01*
X130790000Y-88370000D01*
G36*
X130790000Y-88370000D02*
G01*
X130460000Y-88130000D01*
X130790000Y-87890000D01*
X130790000Y-88370000D01*
G37*
%TO.C,U3*%
X142507500Y-79195000D02*
X140007500Y-79195000D01*
X142507500Y-81965000D02*
X140007500Y-81965000D01*
X143537500Y-79280000D02*
X143057500Y-79280000D01*
X143057500Y-78800000D01*
X143537500Y-79280000D01*
G36*
X143537500Y-79280000D02*
G01*
X143057500Y-79280000D01*
X143057500Y-78800000D01*
X143537500Y-79280000D01*
G37*
%TO.C,R4*%
X153212742Y-86137500D02*
X153687258Y-86137500D01*
X153212742Y-87182500D02*
X153687258Y-87182500D01*
%TO.C,C10*%
X142281252Y-82425000D02*
X141758748Y-82425000D01*
X142281252Y-83895000D02*
X141758748Y-83895000D01*
%TO.C,R12*%
X138502742Y-82407500D02*
X138977258Y-82407500D01*
X138502742Y-83452500D02*
X138977258Y-83452500D01*
%TD*%
M02*
